<?xml version="1.0" encoding="utf-8"?>
<!-- Generator: Adobe Illustrator 19.0.0, SVG Export Plug-In . SVG Version: 6.00 Build 0)  -->
<svg version="1.1" id="Layer_1" xmlns="http://www.w3.org/2000/svg" xmlns:xlink="http://www.w3.org/1999/xlink" x="0px" y="0px"
	 viewBox="0 0 200 200" style="enable-background:new 0 0 200 200;" xml:space="preserve">
<style type="text/css">
	.st0{fill:none;}
	.st1{fill:#FFFFFF;}
</style>
<g id="XMLID_2_">
	<path id="XMLID_2806_" class="st0" d="M61.7,150.4c0.1,0.2,0.2,0.4,0.3,0.7c0.6-0.1,1.2-0.2,1.8-0.3c2.1-0.4,4.2-0.7,6.4-0.9
		c0,0,0,0,0,0c-0.1-0.2-0.2-0.4-0.3-0.6C67.5,149.8,64.8,150.1,61.7,150.4z"/>
	<path id="XMLID_2807_" class="st0" d="M69.5,148.5c-0.1-0.2-0.2-0.4-0.3-0.5l-0.2-0.4c-2,0.5-4,1-6,1.4c-0.6,0.1-1.2,0.3-1.8,0.4
		c0,0.1,0.1,0.2,0.1,0.3c0.1,0.1,0.1,0.2,0.2,0.3c3-0.6,5.6-1,8.1-1.3L69.5,148.5z"/>
	<path id="XMLID_2808_" class="st0" d="M58.3,134.9c0.6-0.2,1.1-0.4,1.7-0.5c-0.2,0-0.5-0.1-0.6-0.3C59,134.3,58.7,134.6,58.3,134.9
		z"/>
	<path id="XMLID_2809_" class="st0" d="M66.8,160.4c0.1,0.1,0.2,0.3,0.3,0.4l0.3,0c2,0.2,4.1,0.3,6.1,0.5l0,0
		c0.1-0.1,0.1-0.1,0.2-0.2c0.1-0.2,0.2-0.4,0.3-0.7c-2,0.1-4,0.1-5.9,0C67.7,160.4,67.2,160.4,66.8,160.4z"/>
	<path id="XMLID_2810_" class="st0" d="M67.9,145.1c0,0.2-0.1,0.4-0.3,0.5c-2.2,0.5-4.5,1-7.3,1.5l0,0.1c0.3-0.1,0.7-0.2,1-0.3
		c2.2-0.4,4.4-0.9,6.5-0.9c0,0,0,0,0,0c0.2,0,0.3,0.2,0.3,0.4c0,0.2-0.1,0.4-0.3,0.5c-2.1,0.5-4.3,0.7-6.5,0.9
		c-0.3,0-0.6,0.1-0.8,0.1l0.1,0.2c0.1,0.2,0.2,0.5,0.3,0.7c0.6-0.2,1.3-0.3,2-0.5c1.9-0.5,3.9-1,5.8-1.4
		C68.4,146.3,68.2,145.7,67.9,145.1z"/>
	<path id="XMLID_2811_" class="st0" d="M71.2,162.7c0.2,0,0.3,0,0.5,0.1c0.4-0.2,0.8-0.4,1.1-0.7c-1.7-0.2-3.5-0.4-5-0.5
		C69,162.6,70.1,163,71.2,162.7z"/>
	<path id="XMLID_2812_" class="st0" d="M70.4,150.6c-2.1,0.4-4.2,0.7-6.3,0.9c-0.6,0.1-1.2,0.1-1.7,0.2l0.3,0.7
		c1.2-0.2,2.4-0.4,3.6-0.6c1.5-0.3,3.1-0.6,4.7-0.7c0,0,0,0,0.1,0c-0.1-0.2-0.2-0.4-0.3-0.6C70.5,150.6,70.5,150.6,70.4,150.6z"/>
	<path id="XMLID_2813_" class="st0" d="M64.9,157.3C64.9,157.3,64.9,157.4,64.9,157.3L64.9,157.3c0.2,0.1,0.3,0,0.4,0
		C65.1,157.4,65,157.4,64.9,157.3z"/>
	<path id="XMLID_2814_" class="st0" d="M71.2,151.8C71.2,151.7,71.2,151.7,71.2,151.8c-0.1,0-0.1,0-0.2,0.1
		c-2.5,0.8-5.4,1.1-8.2,1.2c0.1,0.3,0.3,0.6,0.4,1c1.3,0,2.5-0.1,3.6-0.3c0.8-0.1,1.6-0.3,2.3-0.5c0.7-0.2,1.4-0.3,2.2-0.4
		c0.2,0,0.4,0.1,0.4,0.3c0,0.2,0,0.4-0.2,0.4c-2.1,0.8-4.6,1.2-8.1,1.1c0.2,0.3,0.3,0.7,0.5,1c2.1-0.1,4.1-0.4,6.1-0.7
		c0.8-0.1,1.7-0.3,2.6-0.4C72.3,153.7,71.7,152.7,71.2,151.8z"/>
	<path id="XMLID_2815_" class="st0" d="M59,144.1c0.1,0.1,0.1,0.3,0.2,0.4c0,0.1,0.1,0.2,0.1,0.2l0.3,0c0.8-0.1,1.7-0.2,2.5-0.4
		c0.7-0.1,1.4-0.3,2-0.5c0.8-0.2,1.6-0.4,2.3-0.6c0.2,0,0.4,0.1,0.4,0.3c0.1,0.2,0,0.4-0.2,0.5c-1.9,0.9-4.4,1.4-7.1,1.5
		c0.1,0.1,0.1,0.2,0.2,0.4c0.1,0.2,0.2,0.4,0.3,0.6c2.8-0.7,5.2-1.3,7.4-1.8c0.2,0,0.3,0,0.4,0.1c-0.4-0.8-0.8-1.6-1.1-2.4
		C64.3,143.3,61.6,143.7,59,144.1z"/>
	<path id="XMLID_2816_" class="st0" d="M59.2,133.1c0.1-0.1,0.2-0.2,0.3-0.3c0.3-0.2,0.6-0.4,0.8-0.6c-5.4,1-10.9,1.3-16.6,1.4
		c1,0.5,2,0.8,3,1.1c1.6-0.1,3.3-0.3,4.9-0.5c2.1-0.2,4.3-0.5,6.4-0.5c0.1,0,0.1,0,0.2,0C58.5,133.5,58.9,133.3,59.2,133.1z"/>
	<path id="XMLID_2817_" class="st0" d="M65.3,139.4L65.3,139.4c-2,0.5-4,0.9-6,1.3c-0.5,0.1-1.1,0.2-1.6,0.3
		c0.2,0.4,0.3,0.9,0.5,1.3c1.5-0.3,2.9-0.7,4.4-1c1-0.3,2.1-0.5,3.2-0.7C65.7,140.2,65.5,139.8,65.3,139.4z"/>
	<path id="XMLID_2818_" class="st0" d="M49.9,135.3c1.5,0.1,2.9,0.1,4.3-0.2C52.8,135.2,51.3,135.3,49.9,135.3z"/>
	<path id="XMLID_2819_" class="st0" d="M60.7,134.1c0.8-0.2,1.6-0.4,2.5-0.6c-0.1-0.4-0.2-0.8-0.4-1.1
		C62.1,133,61.4,133.6,60.7,134.1z"/>
	<path id="XMLID_2820_" class="st0" d="M63.4,134.4c-1.1,0.3-2.2,0.6-3.2,0.8c-1.4,0.3-2.8,0.7-4.3,1.1c0,0,0,0.1,0,0.1
		c0,0,0,0.1,0,0.4l1.2-0.3c2.2-0.5,4.4-1,6.6-1.3C63.6,135,63.5,134.7,63.4,134.4z"/>
	<path id="XMLID_2821_" class="st0" d="M64.7,137.8c0,0.1-0.1,0.1-0.2,0.2c-1.1,0.6-2.4,0.9-3.7,1.1c-0.2,0-0.3,0.1-0.5,0.1
		c-1.1,0.2-2.2,0.4-3.2,0.5l0.1,0.2c0.1,0.2,0.1,0.3,0.2,0.4c0.6-0.1,1.1-0.3,1.7-0.4c1.9-0.5,3.9-1,5.9-1.3
		C64.9,138.3,64.8,138.1,64.7,137.8z"/>
	<path id="XMLID_2822_" class="st0" d="M59.4,138.6c-0.3,0-0.5,0.1-0.8,0.1c-0.6,0.1-1.2,0.2-1.8,0.3c0,0.1,0.1,0.2,0.1,0.3
		c1.2-0.2,2.2-0.4,3-0.6c0.6-0.1,1.1-0.3,1.7-0.5c-0.5,0.1-1,0.2-1.5,0.3C59.9,138.5,59.7,138.5,59.4,138.6z"/>
	<path id="XMLID_2823_" class="st0" d="M57.3,137.3l-1.1,0.2c0.1,0.2,0.2,0.4,0.3,0.7c0.4-0.1,0.9-0.2,1.3-0.2
		c0.4-0.1,0.9-0.1,1.3-0.2c0.5-0.1,1.1-0.2,1.6-0.4c0.9-0.2,1.9-0.5,2.8-0.6c0.2,0,0.4,0.2,0.5,0.4c0,0.1,0,0.3-0.1,0.4
		c0.2,0,0.3-0.1,0.5-0.1c0.1,0,0.1,0,0.2,0c-0.2-0.4-0.3-0.9-0.5-1.3C61.8,136.6,59.5,137,57.3,137.3z"/>
	<path id="XMLID_2824_" class="st0" d="M66.2,141.5l-0.1-0.2c-2.5,0.7-5.1,1.2-7.6,1.6l0.2,0.5c1.1-0.2,2.2-0.5,3.3-0.8
		c1.4-0.4,2.8-0.7,4.3-1C66.3,141.6,66.3,141.5,66.2,141.5z"/>
	<path id="XMLID_2825_" class="st0" d="M95.1,124.4c-0.3,0.2-0.5,0.4-0.8,0.7l0.7,0.6c3.8,3.5,7.8,7.2,11.4,11
		c0.5,0.1,1,0.2,1.5,0.2l0.3,0.1C103.9,133,99.4,128.7,95.1,124.4L95.1,124.4z"/>
	<path id="XMLID_2826_" class="st0" d="M91.3,128c1.1,0.9,2.1,1.9,3.1,2.9c0.4,0.4,0.8,0.7,1.1,1.1c0.4,0.4,0.8,0.7,1.1,1.1
		c0.9,0.8,1.8,1.6,2.6,2.5c0.2,0,0.4,0.1,0.5,0.1c-3-2.6-5.6-5.7-7.9-8.4C91.7,127.6,91.5,127.8,91.3,128z"/>
	<path id="XMLID_2827_" class="st0" d="M73.1,155.3C73.1,155.3,73.1,155.3,73.1,155.3c-2.9,0.9-6.2,1.1-8.7,1.1l0,0
		c0.1,0.1,0.1,0.2,0.1,0.3c1.8,0.1,3.3,0,4.8-0.1c0.7-0.1,1.3-0.2,2-0.3c0.7-0.1,1.5-0.2,2.2-0.3c-0.1-0.2-0.2-0.5-0.3-0.7
		L73.1,155.3z"/>
	<path id="XMLID_2828_" class="st0" d="M94.1,126.4l-0.6-0.6l-0.1,0.1c-0.2,0.2-0.5,0.4-0.7,0.7c1.8,1.9,3.8,3.8,5.7,5.6
		c1.4,1.3,2.8,2.7,4.2,4c0.4,0.1,0.7,0.1,1.1,0.2C100.4,133.2,97.2,129.7,94.1,126.4z"/>
	<path id="XMLID_2829_" class="st0" d="M98.7,121.4c-0.4,0.3-0.8,0.6-1.2,0.9c2.9,2.7,5.8,5.5,8.6,8.2l5.6,5.4
		c0.3,0.3,0.6,0.6,0.9,0.9c0.4,0.4,0.8,0.8,1.2,1.2l1.7,0.3c-2.3-2.3-4.7-4.6-6.9-6.9C105.4,128,102.1,124.6,98.7,121.4z"/>
	<path id="XMLID_2830_" class="st0" d="M118.3,129.5c-2.2-2-4.5-4-6.8-5.9c-2.3-1.9-4.6-3.9-6.8-5.9c-0.5,0.3-1,0.6-1.5,0.8
		c7.6,6.3,16.3,13.4,22.9,21.5c0.8,0.1,1.7,0.3,2.5,0.4l1,0.2C126.2,137.1,122.3,133.2,118.3,129.5z"/>
	<path id="XMLID_2831_" class="st0" d="M116.4,124.4c-2.9-2.6-6-5.3-8.8-8.1c-0.7,0.3-1.3,0.6-1.9,0.9c10.1,6.9,19.1,15.9,26.6,23.9
		l2.4,0.4c-2.9-2.4-5.7-5.2-8.4-7.8c-1.6-1.5-3.2-3.1-4.9-4.7C119.9,127.4,118.1,125.9,116.4,124.4z"/>
	<path id="XMLID_2832_" class="st0" d="M100.2,120.4c-0.2,0.1-0.4,0.3-0.6,0.4l0,0c6.4,5.6,12.9,11.4,18.5,17.8l1.7,0.3
		C113.5,132.8,106.9,126.4,100.2,120.4L100.2,120.4z"/>
	<path id="XMLID_2833_" class="st0" d="M102.1,119.1c-0.3,0.2-0.6,0.4-0.9,0.6c8.2,6.7,15.2,13.1,21.2,19.6c0,0,0,0,0,0l0.6,0.1
		c-1.1-1.2-2.2-2.4-3.3-3.6c-1.8-1.9-3.6-4-5.5-5.8C110.6,126.5,106.6,123,102.1,119.1z"/>
	<path id="XMLID_2834_" class="st0" d="M96.7,123c-0.3,0.2-0.6,0.5-0.9,0.7c5.1,4.5,10.1,9.2,14.8,13.7c0.2,0,0.4,0.1,0.6,0.1
		c-0.7-0.7-1.3-1.3-2-2l-3.7-3.7C102.7,129,99.7,126,96.7,123z"/>
	<path id="XMLID_2835_" class="st0" d="M172.8,39.6c0.5,0.4,0.6,1,0.3,1.5c-2.5,3.6-5.2,7-7.9,10.2c2,0.4,3.9,0.7,5.9,1.1
		c0.2-1.2,1.2-3.1,2.4-5.4c2.3-4.5,5.2-10,3.2-12.2c-0.9-0.5-1.8-0.5-2.8-0.2c-4.7,1.7-9.2,12.4-10.8,16.3l0.1,0
		c2.4-3.7,5-7.6,8-11.2C171.6,39.1,172.3,39.2,172.8,39.6z"/>
	<path id="XMLID_2836_" class="st0" d="M74.3,159.6c0-0.1,0-0.3,0-0.4c-0.6,0.2-1.3,0.3-2.1,0.4c0.1,0,0.3,0,0.4,0
		C73.2,159.6,73.7,159.6,74.3,159.6z"/>
	<path id="XMLID_2837_" class="st0" d="M66.4,159.9c0.6,0,1.2-0.1,1.8-0.1c0.4,0,0.8,0,1.2-0.1c-1,0-2.1-0.1-3.3-0.3
		C66.2,159.6,66.3,159.7,66.4,159.9z"/>
	<path id="XMLID_2838_" class="st0" d="M93.1,131.4c-0.9-0.9-1.8-1.7-2.6-2.6c-0.3,0.3-0.5,0.6-0.8,0.8c1.5,1.8,3.1,3.2,4.8,4.8
		l0.8,0.8c0.4,0.1,0.8,0.1,1.2,0.2c0.1,0,0.2,0,0.3,0c-0.5-0.5-1.1-1.1-1.6-1.6c-0.4-0.5-0.9-0.9-1.3-1.4
		C93.7,132,93.4,131.7,93.1,131.4z"/>
	<path id="XMLID_2839_" class="st0" d="M66.1,158.8c1.7,0.2,3.3,0.2,4.8,0.1c0.7-0.1,1.4-0.2,2.1-0.3c0.4-0.1,0.8-0.2,1.2-0.2
		c-0.1-0.5-0.2-0.9-0.5-1.5c0,0-0.1,0.1-0.2,0.1c-0.2,0.1-0.5,0.1-0.7,0.2c0.2,0,0.4,0,0.6,0c0,0,0,0,0,0c0.2,0,0.3,0.2,0.3,0.4
		c0,0.2-0.1,0.4-0.4,0.4c-2.2,0.1-4.3,0.1-6.5,0.2c-0.6,0-1.2,0-1.8,0c0.2,0.3,0.4,0.7,0.6,1C65.8,158.8,66,158.8,66.1,158.8z"/>
	<path id="XMLID_2840_" class="st0" d="M158.6,64.7c0.5,1.1,1.6,1.9,3.1,2.3c0.4,0.1,0.6,0.3,0.8,0.6c3.8-0.5,7.4-6.2,9.5-9.5
		c0.4-0.6,0.7-1.1,1-1.6l0,0c-4.5-0.7-8.6-1.5-12.5-2.2C158.9,57.8,157.3,62,158.6,64.7z"/>
	<path id="XMLID_2841_" class="st0" d="M87.8,131.9c-0.2,0.3-0.5,0.6-0.7,0.9c0.4,0.3,0.8,0.7,1.1,1l0.6,0.6c0.5,0,0.9,0.1,1.4,0.1
		l0.1,0c-0.1-0.1-0.2-0.2-0.3-0.3c-0.2-0.2-0.4-0.4-0.6-0.6L87.8,131.9z"/>
	<path id="XMLID_2842_" class="st0" d="M88.5,131.1l1.7,1.7c0.2,0.2,0.4,0.4,0.6,0.6c0.5,0.4,0.9,0.9,1.3,1.4c0.3,0,0.6,0.1,1,0.1
		c-1.3-1.2-2.6-2.7-4-4.5C89,130.6,88.7,130.8,88.5,131.1z"/>
	<path id="XMLID_2843_" class="st0" d="M86.2,134.1c0.2,0,0.4,0,0.6,0.1l0.1,0c-0.1-0.1-0.3-0.3-0.4-0.5
		C86.4,133.9,86.3,134,86.2,134.1z"/>
	<path id="XMLID_2844_" class="st0" d="M65.2,115.2l0.3-0.1c0.4-0.1,0.8-0.3,1.2-0.4c0.2-0.1,0.4-0.1,0.7-0.2c0.6-0.2,1.3-0.5,2-0.6
		c0.1,0,0.2,0,0.2,0.1c0-0.4-0.1-0.8-0.1-1.2c-1.2,0.7-2.6,1.2-4.4,1.6C65.1,114.6,65.1,114.9,65.2,115.2z"/>
	<path id="XMLID_2845_" class="st0" d="M62,108.1l1.1-0.4c1.3-0.5,2.7-1,4-1.4c-0.1-0.1-0.2-0.3-0.3-0.4l-0.1-0.1
		c-0.6,0.3-1.2,0.4-1.8,0.6c-0.4,0.1-0.8,0.2-1.2,0.4c-0.6,0.2-1.3,0.5-2.2,0.9C61.7,107.8,61.9,108,62,108.1z"/>
	<path id="XMLID_2846_" class="st0" d="M63.3,109.9c0.1,0.2,0.2,0.4,0.3,0.5c1.3-0.5,3.1-1.3,4.9-1.5c-0.1-0.3-0.2-0.5-0.3-0.8
		c0,0-0.1,0.1-0.1,0.1C66.9,109,65.4,109.5,63.3,109.9z"/>
	<path id="XMLID_2847_" class="st0" d="M62.9,109.3c0.8-0.2,1.5-0.4,2.1-0.7c0.4-0.2,0.8-0.4,1.2-0.6c0.4-0.2,0.9-0.4,1.3-0.6
		c0.1,0,0.2,0,0.2,0c-0.1-0.1-0.1-0.3-0.2-0.4c-1.4,0.5-2.9,0.9-4.3,1.4l-0.8,0.3C62.6,108.9,62.8,109.1,62.9,109.3z"/>
	<path id="XMLID_2848_" class="st0" d="M64.4,112.2l0.4-0.2c1.3-0.6,2.6-1.3,4-1.7c0,0,0.1,0,0.1,0c0-0.1-0.1-0.3-0.1-0.4
		c-0.3,0.1-0.7,0.1-1.1,0.2c-0.5,0.1-1,0.2-1.5,0.3c-0.7,0.2-1.5,0.4-2.3,0.7C64.1,111.4,64.3,111.8,64.4,112.2z"/>
	<path id="XMLID_2849_" class="st0" d="M63.9,102.4c-0.1-0.1-0.2-0.2-0.3-0.2c-2.6,0.3-5.4,0.7-8.8,1.3c0.7,0.2,1.4,0.5,2.1,0.8
		C59.2,103.9,61.5,103.2,63.9,102.4z"/>
	<path id="XMLID_2850_" class="st0" d="M51.8,103c3.7-0.7,7.2-1.2,10.6-1.6c-0.3-0.2-0.7-0.5-1.1-0.7c0,0-0.1,0-0.1,0
		c-3.2,0.8-6.5,1.6-10,2.3C51.5,102.9,51.7,102.9,51.8,103z"/>
	<path id="XMLID_2851_" class="st0" d="M69.1,111c-1.2,0.7-2.6,1.2-4,1.6l-0.5,0.2c0.1,0.3,0.2,0.6,0.3,0.9c1-0.3,2-0.7,3-1.2
		c0.5-0.2,0.9-0.4,1.4-0.6c0,0,0,0,0,0C69.3,111.6,69.2,111.3,69.1,111C69.1,111,69.1,111,69.1,111z"/>
	<path id="XMLID_2852_" class="st0" d="M60,105.1c1.7-0.6,3.4-1.2,5.1-1.5c-0.1-0.1-0.3-0.3-0.4-0.4c-2.1,0.8-4.3,1.3-6.6,1.7
		c0.3,0.2,0.6,0.4,0.9,0.5C59.2,105.3,59.6,105.2,60,105.1z"/>
	<path id="XMLID_2853_" class="st0" d="M60.1,106.3l0.3-0.1c1.8-0.6,3.7-1.2,5.5-1.6c-0.1-0.2-0.3-0.3-0.4-0.5
		c-1.7,0.7-3.6,1.2-5.4,1.6c-0.2,0-0.4,0.1-0.6,0.1C59.8,106.1,60,106.2,60.1,106.3z"/>
	<path id="XMLID_2854_" class="st0" d="M65.2,122.7c0.5-0.1,0.9-0.3,1.4-0.4c0.5-0.2,1.1-0.4,1.7-0.5c0.2-0.4,0.3-0.9,0.5-1.3
		c-1.6,0.6-3.3,0.9-4.8,1.1c-0.3,0.6-0.7,1.2-1.1,1.8C63.7,123.1,64.5,122.9,65.2,122.7z"/>
	<path id="XMLID_2855_" class="st0" d="M62,106.6c-0.4,0.1-0.9,0.2-1.3,0.3c0.1,0.1,0.2,0.2,0.3,0.2C61.3,107,61.7,106.8,62,106.6z"
		/>
	<path id="XMLID_2856_" class="st0" d="M56.7,126.1c0.2-0.1,0.3-0.1,0.5,0c2.5-1.4,5-4.5,5.9-7.4c0.2-0.7,0.4-1.5,0.4-2.4
		c-0.1,0-0.2-0.1-0.2-0.2c0-0.2,0-0.3,0.2-0.4c0-0.3-0.1-0.7-0.1-1.1c-0.2,0-0.3-0.1-0.3-0.2c0-0.2,0-0.3,0.2-0.3
		c-0.4-1.6-1.1-3.1-2.1-4.4c-0.1-0.1-0.2-0.2-0.3-0.3l-0.1-0.1c-0.1,0-0.2,0-0.2-0.1c-0.1-0.1-0.1-0.2-0.1-0.3
		c-0.5-0.5-1.1-1-1.7-1.5l-0.3,0.1c-0.2,0-0.3,0-0.3-0.2c0-0.1,0-0.2,0.1-0.3c-4-2.7-9.3-3.1-13.4-1c-3.3,1.7-5.5,4.7-6.2,8.3
		c0.1,0.1,0.2,0.2,0.2,0.3c0,0.1-0.1,0.3-0.2,0.3c0,0,0,0-0.1,0c-0.4,2.8,0.3,5.6,1.9,8C44,128.7,51.4,128.9,56.7,126.1z"/>
	<path id="XMLID_2857_" class="st0" d="M58,127.9c2.6-0.3,4.9-0.5,7-0.7c0.1,0,0.1,0,0.2,0c0.1-0.2,0.2-0.3,0.4-0.5
		c-1.9,0.5-4.1,0.5-6.3,0.4C58.8,127.4,58.4,127.7,58,127.9z"/>
	<path id="XMLID_2858_" class="st0" d="M60.8,125.7c-0.3,0.3-0.6,0.6-0.9,0.9c1.1-0.1,2.1-0.2,3-0.3c0.4-0.1,0.8-0.1,1.2-0.2
		c0.7-0.1,1.4-0.2,2.1-0.3c0.3-0.4,0.5-0.8,0.8-1.3c-2.2,0.4-4,0.8-5.8,1.2C61,125.8,60.9,125.7,60.8,125.7
		C60.9,125.7,60.9,125.7,60.8,125.7z"/>
	<path id="XMLID_2859_" class="st0" d="M67.3,123.7C67.3,123.7,67.3,123.7,67.3,123.7c0.2-0.3,0.4-0.6,0.5-0.9
		c-1.7,0.7-3.7,1-5.5,1.3l-0.1,0c-0.3,0.4-0.6,0.8-0.9,1.1C63.5,124.4,65.4,124,67.3,123.7z"/>
	<path id="XMLID_2860_" class="st0" d="M108.8,115.7c3.7,3,7.3,6.3,10.8,9.4c1,0.9,2,1.8,3,2.7c1.3,1.1,2.6,2.3,3.9,3.4
		c3.8,3.4,7.8,6.8,11.1,10.7c0.5,0.1,1.1,0.2,1.6,0.3l0.4,0.1c-1.4-1.4-2.7-2.8-4.1-4.2c-7.7-7.8-15.7-15.9-24.2-23.3
		C110.4,115.1,109.6,115.4,108.8,115.7z"/>
	<path id="XMLID_2861_" class="st0" d="M67.5,115.3c-0.2,0.1-0.5,0.1-0.7,0.2c-0.4,0.1-0.9,0.3-1.3,0.4l-0.2,0.1c0,0.5,0,0.9,0,1.3
		c0.4-0.1,0.8-0.3,1.2-0.4c0.4-0.2,0.8-0.4,1.1-0.6c0.4-0.2,0.7-0.5,1.1-0.6c0.2-0.1,0.3,0,0.4,0.1c0.1,0.1,0.1,0.3,0,0.5
		c-1,1.1-2.7,1.6-3.9,1.8c-0.1,0.5-0.2,1-0.3,1.5c1.7-0.8,3.1-1.1,4.3-1.1c0.1,0,0.1,0,0.2,0.1c0.3-1.3,0.4-2.5,0.4-3.8c0,0,0,0,0,0
		C68.9,114.9,68.2,115.1,67.5,115.3z"/>
	<path id="XMLID_2862_" class="st0" d="M66.7,119.5c-0.7,0.2-1.4,0.4-2.2,0.7c-0.1,0.2-0.2,0.4-0.2,0.6c0.9-0.2,1.8-0.4,2.6-0.6
		c0.7-0.2,1.3-0.3,2-0.5c0,0,0,0,0.1,0c0.1-0.2,0.1-0.4,0.2-0.7c-0.4,0.1-0.9,0.2-1.3,0.3C67.5,119.3,67.1,119.4,66.7,119.5z"/>
	<path id="XMLID_2863_" class="st0" d="M45,99.2c-1.5,0.6-2.9,1.3-4.2,2.3c1.1-0.3,2.2-0.7,3.2-1c2.7-0.9,5.5-1.8,8.3-2.5
		C49.8,97.8,47.3,98.2,45,99.2z"/>
	<path id="XMLID_2864_" class="st0" d="M35.3,107.1c-0.2,0.3-0.4,0.7-0.6,1c2.1-0.7,4.1-1.2,6.2-1.5c0.2-0.2,0.4-0.4,0.6-0.5
		C39.2,106.4,37.2,106.8,35.3,107.1z"/>
	<path id="XMLID_2865_" class="st0" d="M36.9,119.9c-0.4,0.1-0.8,0.1-1.3,0.2c-0.4,0-0.7,0.1-1.1,0.2c-0.7,0.1-1.4,0.3-2,0.4
		c0.1,0.3,0.1,0.6,0.2,0.8v0c0,0.1,0,0.1,0.1,0.2c0,0,0,0,0,0l1.7-0.4c0.3-0.1,0.5-0.1,0.8-0.2c0.6-0.2,1.2-0.3,1.8-0.4
		C37,120.4,37,120.2,36.9,119.9z"/>
	<path id="XMLID_2866_" class="st0" d="M58.2,99.1c-6,1.7-12.2,3.2-18.2,4.7l-1,0.2c-0.1,0-0.3,0-0.3-0.2c0-0.1,0-0.3,0.2-0.4
		l0.5-0.1c5.6-1.6,11.4-3.3,17.2-4.8c-0.6-0.2-1.2-0.3-1.9-0.4c0,0-0.1,0.1-0.1,0.1c-3.3,1.2-6.8,2.1-10.2,3c-1.5,0.4-3,0.8-4.5,1.2
		c-0.1,0-0.2,0-0.3,0c-0.8,0.7-1.6,1.5-2.4,2.3c3.7-0.7,7.4-1.5,11-2.3c3.9-0.8,8-1.6,11.9-2.4C59.6,99.6,58.9,99.3,58.2,99.1z"/>
	<path id="XMLID_2867_" class="st0" d="M36.5,117.6c0-0.3,0-0.6,0-0.8c-1.1,0.5-2.5,0.7-4.3,0.9l0,0.1c0,0.2,0,0.5,0,0.8
		c0.8,0,1.5-0.1,2.1-0.2c0.5-0.1,1-0.3,1.6-0.4C36.1,117.7,36.3,117.6,36.5,117.6z"/>
	<path id="XMLID_2868_" class="st0" d="M38.1,122.9c-0.5,0.2-1,0.3-1.6,0.4c-0.2,0.1-0.5,0.1-0.7,0.2c-0.6,0.1-1.2,0.3-1.8,0.4
		l-0.2,0c0.1,0.2,0.2,0.4,0.3,0.7c0.3-0.1,0.6-0.1,0.9-0.2c1.2-0.3,2.4-0.6,3.6-0.7c0,0,0,0,0-0.1C38.3,123.3,38.2,123.1,38.1,122.9
		z"/>
	<path id="XMLID_2869_" class="st0" d="M36.7,119.1c0-0.2-0.1-0.4-0.1-0.7c-1.1,0.4-2.6,0.7-4.3,0.7c0,0.3,0.1,0.6,0.1,0.9
		c0.7-0.2,1.4-0.4,2-0.5l0.3-0.1C35.4,119.3,36.1,119.2,36.7,119.1z"/>
	<path id="XMLID_2870_" class="st0" d="M37.6,129.3c0.3,0.3,0.6,0.6,0.9,0.9c2.4-0.3,4.9-0.6,7.5-0.9c-0.8-0.2-1.5-0.5-2.3-0.9
		C41.8,129.1,39.5,129.2,37.6,129.3z"/>
	<path id="XMLID_2871_" class="st0" d="M35,125.1c-0.2,0-0.4,0.1-0.6,0.1c0.2,0.4,0.5,0.8,0.7,1.1l0.2-0.1c1.4-0.4,2.9-0.8,4.3-1.1
		c-0.2-0.3-0.5-0.5-0.7-0.8C37.7,124.7,36.4,124.9,35,125.1z"/>
	<path id="XMLID_2872_" class="st0" d="M41.1,126.7c-0.7,0.3-1.5,0.4-2.3,0.5c-0.2,0-0.3,0.1-0.5,0.1c-0.7,0.1-1.4,0.2-2.3,0.3
		c0.3,0.4,0.6,0.7,0.9,1c1.3-0.1,2.4-0.2,3.4-0.4c0.5-0.1,1-0.2,1.5-0.3c0.3-0.1,0.6-0.1,0.9-0.2C42.1,127.4,41.6,127.1,41.1,126.7z
		"/>
	<path id="XMLID_2873_" class="st0" d="M40.1,125.7c0,0.1-0.1,0.2-0.2,0.2c-1.4,0.5-2.9,0.8-4.3,1.1c0,0,0,0,0,0
		c1-0.1,1.7-0.3,2.4-0.4c0.4-0.1,0.7-0.2,1.1-0.3c0.4-0.1,0.9-0.2,1.3-0.3C40.3,125.9,40.2,125.8,40.1,125.7z"/>
	<path id="XMLID_2874_" class="st0" d="M37.7,122.1c-0.1-0.3-0.2-0.5-0.3-0.8c-0.6,0.2-1.1,0.3-1.7,0.4c-0.2,0.1-0.5,0.1-0.7,0.2
		l-1.8,0.3c0.1,0.3,0.2,0.8,0.4,0.8h0c0.7,0,1.4-0.3,2.2-0.4c0.2-0.1,0.5-0.1,0.7-0.1C36.8,122.3,37.2,122.2,37.7,122.1z"/>
	<path id="XMLID_2875_" class="st0" d="M51.9,129.5c-0.6,0.1-1.3,0.2-2,0.2c-3.4,0.3-7,0.7-10.7,1c0.5,0.4,0.9,0.7,1.4,1
		c6.7-1.1,14.7-2.2,22.5-2.2c0.4-0.4,0.8-0.9,1.3-1.5C60.4,128.6,56.3,129.1,51.9,129.5z"/>
	<path id="XMLID_2876_" class="st0" d="M39,108.7c0.2-0.3,0.5-0.7,0.8-1c-1.9,0.3-3.7,0.7-5.5,1.2c-0.2,0.4-0.4,0.7-0.5,1.1
		c0.5-0.1,1.1-0.2,1.6-0.4c0.4-0.1,0.8-0.2,1.1-0.2c0.3-0.1,0.6-0.2,1-0.2C38,108.9,38.5,108.7,39,108.7z"/>
	<path id="XMLID_2877_" class="st0" d="M36.5,115.8c0-0.1,0-0.1,0-0.2c-1.4,0.3-2.9,0.4-4.3,0.5l0,0.1c0,0.2,0,0.4,0,0.7
		c0.5-0.1,1-0.2,1.5-0.3c0.5-0.1,1.1-0.3,1.6-0.4C35.7,116.1,36.1,115.9,36.5,115.8z"/>
	<path id="XMLID_2878_" class="st0" d="M44.5,104.2c-2.5,0.4-5.1,0.8-7.6,1.2c-0.1,0-0.1,0-0.2,0c-0.3,0.4-0.6,0.8-0.9,1.1
		c2.7-0.6,5.3-1.3,7.8-1.8c0.2-0.1,0.5-0.3,0.7-0.4C44.3,104.2,44.4,104.2,44.5,104.2z"/>
	<path id="XMLID_2879_" class="st0" d="M37.3,110c-0.2,0-0.4,0.1-0.5,0.1l-0.3,0.1c-0.9,0.2-1.9,0.4-2.9,0.4c-0.2,0.4-0.3,0.7-0.4,1
		c0.3-0.1,0.5-0.1,0.8-0.2c0.4-0.1,0.8-0.2,1.2-0.3c0.3-0.1,0.6-0.2,1-0.3c0.6-0.2,1.3-0.4,1.9-0.5c0.1-0.2,0.2-0.4,0.4-0.7
		C38,109.9,37.6,110,37.3,110z"/>
	<path id="XMLID_2880_" class="st0" d="M36.6,114.7c0.1-0.5,0.2-0.9,0.3-1.4c-0.4,0.1-0.9,0.1-1.3,0.2c-0.5,0-0.9,0.1-1.4,0.2
		c-0.5,0.1-1.1,0.2-1.7,0.4c-0.1,0.6-0.2,1-0.2,1.5c1-0.1,1.7-0.2,2.5-0.4c0.5-0.1,1-0.3,1.5-0.4L36.6,114.7z"/>
	<path id="XMLID_2881_" class="st0" d="M35.8,112c-0.2,0-0.4,0.1-0.5,0.1c-0.8,0.2-1.6,0.3-2.4,0.4c-0.1,0.3-0.1,0.6-0.2,0.8
		c1.3-0.4,2.9-0.9,4.5-0.8c0.1-0.3,0.2-0.7,0.4-1C36.9,111.7,36.4,111.8,35.8,112z"/>
	<path id="XMLID_2882_" class="st0" d="M62.2,130.5c-2.6,0.2-5.3,0.5-7.8,0.7c-4.2,0.3-8.6,0.7-12.8,1.2c0.4,0.2,0.8,0.5,1.1,0.7
		c3-0.2,6-0.6,8.9-0.9c3.2-0.4,6.5-0.7,9.7-1c0.1,0,0.1,0,0.2,0C61.7,131,61.9,130.7,62.2,130.5z"/>
	<path id="XMLID_2883_" class="st0" d="M119.4,113.1c11.4,10.2,22.4,20.2,32.3,31.3c0,0,0,0,0,0c1.2,0.2,2.2,0.3,3,0.5
		c-6.5-6-12.9-12.4-19.2-18.5c-4.5-4.4-9.2-9-13.8-13.5C120.9,112.9,120.1,113,119.4,113.1z"/>
	<path id="XMLID_2884_" class="st0" d="M130.1,89.4c0.7,0.5,1.4,1,2.1,1.6c-0.3-0.2-0.5-0.5-0.8-0.7c-3-2.7-5.4-4.8-7.6-6.9
		c-1.2-1.1-2.3-2.1-3.5-3.2c-0.8-0.7-1.5-1.4-2.3-2.1c-0.2-0.2-0.4-0.4-0.5-0.5c-0.1,0.1-0.3,0-0.4-0.1l-1-1.1
		c-0.5,0.6-0.9,1.2-1.2,1.8c1.5,1.5,3.2,2.6,5,3.8c0.7,0.5,1.4,0.9,2,1.4C124.6,85.3,127.4,87.3,130.1,89.4z"/>
	<path id="XMLID_2885_" class="st0" d="M137.4,115.6c2.4,1.7,4.8,3.3,7.2,5c1.9,1.3,3.8,2.6,5.7,3.9
		C146.6,120.7,142.2,117.6,137.4,115.6z"/>
	<path id="XMLID_2886_" class="st0" d="M125.5,69.6c4.7,3.1,9.7,6.6,15.2,10.5l0.7,0.5c2,1.5,4.1,2.9,6.1,4.5
		c-7.3-6-14.2-11.1-21.1-15.7C126.1,69.4,125.8,69.5,125.5,69.6z"/>
	<path id="XMLID_2887_" class="st0" d="M131,68.3c-0.2,0-0.5,0.1-0.7,0.1c2.6,1.9,5.2,3.7,7.8,5.5c5.8,4.1,11.8,8.4,17.6,12.7l0-0.1
		C147.5,80.2,139.2,74,131,68.3z"/>
	<path id="XMLID_2888_" class="st0" d="M137.8,68.8c-0.1-0.1-0.2-0.2-0.2-0.4c-0.6-0.1-1.1-0.1-1.7-0.2c1.7,0.8,3.4,1.7,5.2,2.7
		C140,70.2,138.9,69.5,137.8,68.8z"/>
	<path id="XMLID_2889_" class="st0" d="M139.9,68.8c1.1,0.7,2.2,1.3,3.3,2c2.7,1.7,5.5,3.4,8.3,5.2
		C148.5,72.4,144.5,69.9,139.9,68.8z"/>
	<path id="XMLID_2890_" class="st0" d="M133.2,76.4c-2.9-2.1-5.9-4.2-8.8-6.4c-0.5,0.2-0.9,0.4-1.3,0.6c10.2,6.9,21.7,15.2,30.9,25
		c0.3-0.6,0.6-1.3,0.8-2c-1.4-1.1-2.7-2.3-4-3.5c-3.5-3-7.1-6.1-11-8.9C137.6,79.6,135.4,78,133.2,76.4z"/>
	<path id="XMLID_2891_" class="st0" d="M147,129.1c4.5,3.9,9.1,7.9,12.8,12.4c-0.3-1.4-0.8-2.7-1.3-4.1c-6-4.7-12-9.6-17.8-14.3
		c-4-3.3-8.1-6.6-12.2-9.9c-0.6-0.1-1.1-0.1-1.7-0.2c5.6,3.1,10.5,7.5,15.2,11.7c0.6,0.5,1.1,1,1.7,1.5
		C144.8,127.2,145.9,128.1,147,129.1z"/>
	<path id="XMLID_2892_" class="st0" d="M160.3,143.9c-3.8-2.9-7.3-6.5-10.6-9.9c-2.1-2.1-4.2-4.3-6.4-6.2c-0.7-0.7-1.4-1.3-2.2-2
		c-4.9-4.6-10-9.3-15.9-12.6c-0.1-0.1-0.2-0.2-0.2-0.3c0,0,0,0,0,0c-0.6,0-1.1,0-1.7,0l2,1.8c10.9,9.8,22.2,19.9,32.3,30.7
		c1.2,0.2,2.1,0.4,2.9,0.6C160.6,145.4,160.5,144.7,160.3,143.9C160.3,143.9,160.3,143.9,160.3,143.9z"/>
	<path id="XMLID_2893_" class="st0" d="M134.8,114.8C134.8,114.7,134.8,114.7,134.8,114.8c-1.4-0.6-2.8-0.9-4.1-1.2
		c8.8,6.6,17.8,13.4,26.4,20.5c-0.8-1.7-1.8-3.4-2.9-4.9c-5.7-3.3-11-7.5-16.1-11.5c-1-0.8-2-1.6-3-2.4
		C134.8,115.1,134.8,114.9,134.8,114.8z"/>
	<path id="XMLID_2894_" class="st0" d="M151.4,88.4c1.3,1.2,2.6,2.5,3.8,3.8c0.1-0.2,0.1-0.5,0.2-0.7c-0.2,0-0.4,0-0.5-0.2
		C153.7,90.3,152.6,89.3,151.4,88.4z"/>
	<path id="XMLID_2895_" class="st0" d="M127.6,69c10.6,6.9,19.8,13.8,28,21c0.1-0.5,0.1-1,0.1-1.5c-6.1-4.4-12.3-9.1-18.2-13.5
		c-2.8-2.1-5.6-4.2-8.4-6.3C128.5,68.7,128,68.9,127.6,69z"/>
	<path id="XMLID_2896_" class="st0" d="M154.6,81.6c-4.3-2.9-8.8-5.8-13.1-8.6c-2.2-1.4-4.5-2.9-6.7-4.3c-0.2-0.1-0.3-0.4-0.2-0.6
		c-0.7,0-1.4,0-2.1,0c7.9,5.2,15.6,10.7,22.9,16.3C155.2,83.5,155,82.6,154.6,81.6z"/>
	<path id="XMLID_2897_" class="st0" d="M120.6,95.8c1.3,1.2,2.8,2.5,4.1,3.7c2.1,1.8,4.3,3.7,6.3,5.7c1.3,0.3,2.6,0.5,3.9,0.6
		c-8-5.9-15.5-12.7-22.7-19.4c0,0.4,0,0.9-0.1,1.3c1.4,1.3,2.7,2.6,4,3.9C117.7,92.9,119.2,94.4,120.6,95.8z"/>
	<path id="XMLID_2898_" class="st0" d="M117.5,87.9c-1.6-1.3-3.2-2.7-4.8-4c-0.1,0.4-0.2,0.9-0.2,1.4c2,1.6,4,3.1,5.9,4.7
		c6.4,5.1,13,10.3,19,15.8c0.1,0,0.2,0,0.3,0c-1.9-1.7-3.8-3.4-5.6-5.2c-2.1-2-4.2-4-6.4-5.9C123,92.4,120.2,90.1,117.5,87.9z"/>
	<path id="XMLID_2899_" class="st0" d="M113.5,94.5c1.7,1.7,3.4,3.3,5.1,4.9c1.7,1.6,3.4,3.2,5,4.8c0.5,0.2,1,0.4,1.6,0.5
		c-4.2-4.3-8.2-8.8-12.7-13.7C112.7,92.2,113.1,93.4,113.5,94.5z"/>
	<path id="XMLID_2900_" class="st0" d="M112.4,114.5c6.8,5.1,12.7,10.1,17.9,15c-5.3-5.1-10.7-10.4-16.2-15.5
		C113.4,114.2,112.9,114.3,112.4,114.5z"/>
	<path id="XMLID_2901_" class="st0" d="M118.5,82.4L118,82c-1.3-1-2.5-1.9-3.6-3c-0.3,0.6-0.6,1.2-0.8,1.9l2.7,2.2
		c3.5,2.9,7.2,5.9,10.8,8.9c1.7,1.4,3.5,2.7,5.2,4c3.5,2.6,7.1,5.4,10.2,8.4c0.1,0.1,0.2,0.3,0.2,0.5c0.8-0.2,1.6-0.5,2.4-0.9
		c-2.8-2.2-5.5-4.6-8.1-6.8c-2.9-2.5-6-5.2-9-7.6C125.1,87.3,122.1,85.1,118.5,82.4z"/>
	<path id="XMLID_2904_" class="st0" d="M161.1,70c0,0-0.1,0-0.1,0c-3.5,0-5.9-3.5-6-6.8c-0.2-2.9,0.9-6.2,3.1-9.3
		c-6.9-1.3-13.9-2.8-21.5-4.5c-2.2-0.5-4.3-1-6.5-1.4c-10.7-2.3-21.8-4.6-31.9-8.7c-0.3,6.1-1.2,12.2-2.1,18.2
		c-0.2,1.5-0.5,3.1-0.7,4.6c-1.2,8.3-2.4,16.7-3.6,24.5c-0.9,5.9-1.8,11.9-2.7,17.8l-2.8,18.8c-0.1,0.9-0.3,1.9-0.4,2.9
		c-0.3,2.1-0.5,4.3-1.1,6.4c8.4-15.2,27.3-24.6,44.8-22.2c18.3,2.5,33.3,18.3,34.2,36c0,0.2,0,0.4-0.1,0.6l0.1,0
		c0.2,0.1,0.5,0.1,0.7,0.2c0.5-10.5,2.2-21.1,3.9-31.5c0.7-4.2,1.4-8.6,2-12.9c1-6.6,2-13.3,2.9-19.9c1.3-8.4,2.6-17.1,3.8-25.7
		c-0.1,0-0.2,0-0.3,0l-0.3,0c-1.6,2.5-3.5,5.3-5.9,8.3C168.7,67.8,165,71,161.1,70z M154.3,100.7c-4.2,5.3-10.7,8.3-17.4,8.3
		c-2.6,0-5.2-0.5-7.7-1.4l0,0c-4.2,0.6-8.5-0.8-12.1-3.9c-4.5-3.8-7.4-9.6-7.5-15.1c0-0.7,0-1.4,0-2.1l0,0c-0.1-0.1-0.1-0.3-0.1-0.4
		c0-0.1,0.1-0.2,0.2-0.2c0.2-1.9,0.6-3.8,1.3-5.6l0,0c-0.2-0.2-0.2-0.5,0-0.7c0.1-0.1,0.3-0.2,0.5-0.2c3.3-7.5,11.1-12.8,20.4-13.8
		c9.1-1,17.6,2.5,22.5,9.4c1.5,2.1,2.7,4.6,3.4,7.2c0.1,0.1,0.2,0.3,0.2,0.6C159.4,89.1,158.1,95.7,154.3,100.7z"/>
	<path id="XMLID_2905_" class="st0" d="M144.5,143.2c-4.3-4-8.5-8.1-12.7-12.1c4,3.9,7.5,7.8,10.5,11.8L144.5,143.2z"/>
	<path id="XMLID_2906_" class="st0" d="M126.7,93.5c-5.2-4.3-9.6-8-13.6-11.5c-0.1,0.3-0.2,0.5-0.2,0.8c5.6,4.3,10.2,7.9,14.3,11.4
		c2.7,2.3,5.2,4.4,7.5,6.6c0.4,0.4,0.8,0.7,1.2,1.1c1.3,1.2,2.7,2.4,3.7,3.8c0.6-0.1,1.2-0.2,1.8-0.3c-3.9-2.5-7.5-5.6-11-8.6
		C129.2,95.6,127.9,94.5,126.7,93.5z"/>
	<path id="XMLID_2907_" class="st0" d="M115.2,113.7c13.4,10.6,23.7,20.3,31.7,29.7c0,0,0.1,0.1,0.1,0.1c0.7,0.1,1.5,0.2,2.3,0.4
		c-4.7-4.5-9.3-9.1-13.8-13.6c-5.7-5.7-11.6-11.5-17.5-17.1C117,113.4,116.1,113.5,115.2,113.7z"/>
	<path id="XMLID_2908_" class="st0" d="M120.5,72.1c4.6,2.7,8.8,6.3,12.9,9.7c0.8,0.7,1.6,1.4,2.5,2l1.4,1.1
		c5.1,4.2,10.4,8.6,14.9,13.5c0.4-0.5,0.8-1.1,1.1-1.7c-2.9-2.3-5.7-4.8-8.4-7.3c-2.4-2.1-4.8-4.3-7.2-6.4
		c-4.9-4.1-10-7.9-15.6-12.1C121.6,71.4,121,71.7,120.5,72.1z"/>
	<path id="XMLID_2909_" class="st0" d="M118.8,96c2.9,3,5.8,6,8.5,9c0.1,0.1,0.1,0.2,0.2,0.3c0.4,0.1,0.8,0.2,1.2,0.2
		c0.1-0.1,0.2-0.3,0.3-0.4c-2.9-2.1-5.5-4.7-8.1-7.1l-1.9-1.8C119,96.2,118.9,96.1,118.8,96z"/>
	<path id="XMLID_2910_" class="st0" d="M142.6,91.8c-2.3-2.1-4.7-4.3-7.1-6.3c-2.1-1.8-4.4-3.5-6.6-5.2c-3.1-2.4-6.3-4.9-9.2-7.6
		c-0.5,0.3-0.8,0.6-1.2,1c11.8,7,22.9,16.6,31.4,27.2c0.5-0.4,0.9-0.9,1.3-1.3c0,0,0,0,0,0C148.3,97,145.4,94.3,142.6,91.8z"/>
	<path id="XMLID_2911_" class="st0" d="M117.7,74.4c-0.3,0.3-0.6,0.6-0.9,0.9c3.3,2.8,6.6,5.7,9.7,8.5c1.9,1.7,3.9,3.5,5.9,5.3
		c1.8,1.6,3.7,3.2,5.5,4.7c3.3,2.8,6.7,5.7,9.8,8.7c0.4-0.2,0.8-0.5,1.2-0.8C139.2,91.5,129,82.5,117.7,74.4z"/>
	<path id="XMLID_2914_" class="st1" d="M181.2,45.3c-0.2-0.1-0.5-0.1-0.7,0.1c-1.4,2-2.7,4.2-4,6.3c-0.3,0.6-0.6,1.1-1,1.7l-0.1,0.1
		l-3.7-0.7l0.3-0.3c2.1-2.1,9.5-13.5,7.8-17.9c-0.4-1.1-1.3-1.7-2.8-1.8l-0.1,0l-0.1-0.1c-0.9-0.9-1.9-1.2-3.1-0.9
		c-5,1.2-11.1,12.8-13.2,18.8l-0.1,0.2l-0.2,0c-8.6-1.6-15.7-3-22.4-4.5c-4.9-1.1-9.8-2.4-14.6-3.6c-8.4-2.2-17-4.4-25.6-5.6
		c-0.2,0-0.4,0-0.6,0.2l-0.1,0.1l-0.1,0c0,0-0.1,0-0.1,0c-0.4,0-0.7,0.2-0.8,0.6c-1.7,6.3-2.7,13-3.6,19.4c-0.2,1.6-0.5,3.2-0.7,4.9
		c-1.3,8.5-2.6,17.2-3.6,24.5c-0.9,5.9-1.7,11.7-2.6,17.6l-2.7,18.3c-0.1,1-0.3,2-0.5,3.1c-0.5,2.9-1,5.9-0.8,8.7
		c0,0.1,0,0.2,0.1,0.3l0,0.1l0,0.1c-0.1,0.4,0.1,0.8,0.5,0.9c9.4,2.1,19.1,3.6,28.5,5.1c4.5,0.7,9.1,1.5,13.6,2.2
		c6.8,1.2,13.9,2.5,21,3.8c1.9,0.4,3.8,0.8,5.9,1.3c4.6,1.1,9.4,2.2,13.9,2.2c0.3,0,1-0.2,1.1-0.3c0.2-0.3,0.8-0.6,0.8-1v0l-0.4,0
		c1.6-6,2.2-12.4,3-18.5c0.2-1.7,0.4-3.4,0.6-5.1c0.7-5.1,1.4-10.1,2.1-15.2l1.1-7.6c0.9-6.5,1.8-13.2,2.7-19.6
		c1.2-9,2.5-18.4,3.9-27.6c0-0.3,0-0.6-0.2-0.9c-0.2-0.3-0.6-0.4-0.9-0.4l-0.1,0c-0.1,0-0.1,0-0.2-0.1l-0.7-0.1l0.2-0.3
		c1.5-2.7,2.7-5.3,3.5-7.7C181.6,45.7,181.4,45.5,181.2,45.3z M162.5,50.9c2.7-6.5,6.7-15.3,11.2-16.9c1.1-0.4,2.2-0.3,3.2,0.2
		l0.1,0c2.4,2.4-0.7,8.2-3.1,12.8c-1.2,2.2-2.2,4.2-2.4,5.3c0,0,0,0.1,0,0.1l0.1,0.3l-0.3-0.1c-2.2-0.4-4.4-0.8-6.6-1.2l-0.4-0.1
		l0.3-0.3c2.7-3.2,5.6-6.7,8.1-10.4c0.2-0.3,0-0.6-0.2-0.8c-0.3-0.2-0.7-0.3-0.9,0c-2.9,3.6-5.6,7.5-8,11.2l-0.1,0.1l-1-0.2
		L162.5,50.9z M160.2,53.8l0.2,0c4,0.8,8.3,1.5,13.1,2.3l0.4,0.1l-0.4,0.6c-0.3,0.4-0.6,1-1,1.6c-2.3,3.7-5.9,9.3-10,9.8l-0.2,0
		l-0.1-0.2c-0.1-0.3-0.3-0.4-0.6-0.5c-1.7-0.5-2.8-1.3-3.4-2.6c-1.4-2.9,0.3-7.4,2-10.9L160.2,53.8z M86.7,134.7
		c-0.3,0-0.7-0.1-1-0.1l-0.4,0l0.2-0.3c0.2-0.3,0.5-0.7,0.7-1l0.2-0.3l0.2,0.3c0.3,0.4,0.6,0.8,1,1.1l0,0l0.5,0.5L86.7,134.7z
		 M90.2,135c-0.5-0.1-1-0.1-1.4-0.2l-0.1,0l-0.7-0.7c-0.4-0.4-0.8-0.7-1.3-1.1l-0.2-0.1l0.1-0.2c0.3-0.4,0.7-0.9,1-1.3l0.2-0.2
		l2,2.1c0.2,0.2,0.4,0.4,0.6,0.6c0.2,0.3,0.5,0.5,0.7,0.8l0.5,0.5L90.2,135z M97.6,135.9c-0.3,0-0.7-0.1-1-0.1
		c-0.4-0.1-0.9-0.1-1.3-0.2l-0.1,0l-1-0.9c-1.5-1.3-3-2.6-4.3-4.1c1.4,1.8,2.7,3.3,4,4.4l0.7,0.5l-1.5-0.2c-0.4,0-0.8-0.1-1.2-0.1
		l-0.1,0l-0.1-0.1c-0.4-0.5-0.9-0.9-1.3-1.4c-0.2-0.2-0.4-0.4-0.6-0.6l-2-2l0.1-0.2c0.3-0.4,0.7-0.8,1-1.2l0.2-0.2l0,0l0.1-0.1
		c0.4-0.4,0.7-0.8,1.1-1.2l0.2-0.2l0.2,0.2c0.9,1,1.8,1.9,2.7,2.8c0.3,0.3,0.6,0.6,0.9,0.9c0.5,0.5,0.9,0.9,1.4,1.4
		c0.7,0.7,1.4,1.4,2.1,2.1l0.5,0.5L97.6,135.9z M99.9,136.2c-0.3,0-0.5-0.1-0.8-0.1l-0.1,0l-0.1-0.1c-0.8-0.9-1.7-1.8-2.6-2.6
		c-0.4-0.4-0.8-0.7-1.1-1.1c-0.4-0.4-0.8-0.7-1.1-1.1c-1.1-1-2.1-2.1-3.3-3.1l-0.2-0.2l0.2-0.2c0.3-0.4,0.7-0.7,1-1l0.2-0.2l0.2,0.2
		c2.4,2.9,5.3,6.3,8.6,9.1l0.6,0.5L99.9,136.2z M103.7,136.8c-0.4-0.1-0.8-0.1-1.3-0.2l-0.1,0l-0.1-0.1c-1.4-1.4-2.8-2.8-4.3-4.1
		c-2-1.8-4-3.8-5.9-5.8l-0.2-0.2l0.2-0.2c0.3-0.3,0.6-0.6,0.9-0.8l0.5-0.4l0.9,1c3.3,3.5,6.6,7.1,10.2,10.4l0.6,0.5L103.7,136.8z
		 M107.7,137.4c-0.5-0.1-1-0.2-1.5-0.2l-0.1,0l-0.1-0.1c-3.6-3.9-7.5-7.5-11.4-11.1l-1.1-1l0.2-0.2c0.3-0.3,0.6-0.6,1-0.9l0.4-0.3
		l0.2,0.2c4.5,4.6,9.3,9.1,13.8,13.3l0.6,0.5L107.7,137.4z M111.3,138c-0.3,0-0.5-0.1-0.8-0.1l-0.1,0l-0.1-0.1
		c-4.8-4.5-9.9-9.4-15.1-13.9l-0.2-0.2l0.2-0.2c0.4-0.3,0.8-0.6,1.1-0.9l0.3-0.2l0.2,0.2c3,3,6.1,6.1,9,9l3.7,3.7
		c0.8,0.8,1.7,1.7,2.5,2.5l0.5,0.5L111.3,138z M113.7,138.4L113.7,138.4c-0.5-0.5-0.9-0.9-1.3-1.3c-0.3-0.3-0.6-0.6-0.9-0.9
		l-5.6-5.4c-2.9-2.8-5.8-5.6-8.8-8.4l-0.2-0.2l0.2-0.2c0.5-0.4,1-0.8,1.5-1.2l0.2-0.1l0.1,0.1c3.5,3.2,6.9,6.7,10.1,10
		c2.4,2.5,5,5,7.5,7.5l0.6,0.5L113.7,138.4z M117.9,139.1L117.9,139.1c-5.6-6.5-12.2-12.3-18.6-17.8l-0.5-0.4l0.2-0.2
		c0.3-0.2,0.6-0.4,0.9-0.6l0.3-0.2l0.1,0.1c6.8,6.2,13.5,12.6,20,18.9l0.9,0.9L117.9,139.1z M122.1,139.7l-0.1-0.1
		c-6.1-6.5-13-12.9-21.4-19.7l-0.3-0.2l0.3-0.2c0.5-0.3,0.9-0.6,1.4-0.9l0.1-0.1l0.1,0.1c4.6,3.9,8.6,7.5,12.2,11
		c1.9,1.9,3.8,3.9,5.6,5.8c1.2,1.4,2.5,2.7,3.8,4.1l0.5,0.5L122.1,139.7z M128.5,140.8c-0.9-0.2-1.7-0.3-2.6-0.4l-0.1,0l-0.1-0.1
		c-6.7-8.2-15.4-15.3-23.1-21.7l-0.3-0.2l0.3-0.2c0.6-0.3,1.2-0.7,1.9-1.1l0.2-0.1l0.1,0.1c2.2,2.1,4.6,4.1,6.9,6
		c2.3,1.9,4.6,3.9,6.8,5.9c4.3,3.9,8.4,8.1,11.8,11.6l0.5,0.5L128.5,140.8z M132.1,141.5L132.1,141.5c-7.6-8.1-16.8-17.3-27-24.2
		l-0.3-0.2l0.4-0.2c0.8-0.4,1.5-0.8,2.4-1.1l0.2-0.1l0.1,0.1c2.9,2.8,5.9,5.6,8.9,8.2c1.7,1.5,3.4,3.1,5.1,4.6
		c1.6,1.5,3.3,3.1,4.9,4.7c2.9,2.8,5.9,5.8,9.1,8.3l0.7,0.6L132.1,141.5z M149.9,144.6c-1.1-0.2-2.1-0.3-3.2-0.5l-0.1,0l0-0.1
		c0,0,0-0.1-0.1-0.1c-8-9.4-18.4-19.2-31.9-29.9c5.6,5.2,11.2,10.6,16.6,15.8c4.6,4.5,9.5,9.2,14.3,13.7l0.6,0.6l-3.9-0.7l-0.1-0.1
		c-7.3-9.4-17.2-18.8-30.3-28.6l-0.3-0.2l0,0c8.6,7.4,16.6,15.5,24.4,23.4c1.5,1.6,3.1,3.1,4.6,4.7l0.5,0.5l-1.9-0.3
		c-0.6-0.1-1.1-0.2-1.7-0.3l-0.1,0l-0.1-0.1c-3.3-3.8-7.3-7.3-11.1-10.6c-1.3-1.1-2.6-2.3-3.9-3.4c-1-0.9-2-1.8-3-2.7
		c-3.6-3.3-7.3-6.6-11.1-9.7l-0.3-0.3l0.4-0.2c0.9-0.4,1.9-0.8,2.9-1.1l0.1,0l0,0l0.4-0.1c0.7-0.2,1.4-0.4,2.2-0.6l0.1,0l0,0
		l0.4-0.1c1.1-0.3,2.3-0.5,3.4-0.7l0.1,0l0.1,0.1c6,5.6,11.9,11.5,17.6,17.2c4.7,4.7,9.5,9.5,14.3,14.1l0.5,0.5L149.9,144.6z
		 M155.5,145.5c-1.1-0.2-2.4-0.4-4-0.6l-0.1,0l-0.1-0.1c-10-11.2-21.2-21.3-32.7-31.6l-0.4-0.4l0.5-0.1c0.9-0.1,1.9-0.2,3.1-0.2
		l0.1,0l0.1,0.1c4.7,4.5,9.4,9.1,13.9,13.5c6.4,6.3,13,12.8,19.8,19l0.6,0.6L155.5,145.5z M160.9,146.6c-0.9-0.2-2-0.5-3.3-0.7
		l-0.1,0l-0.1-0.1C147.3,135,136,124.8,125.1,115l-2.9-2.6l0.6,0c0.6,0,1.3,0,2,0l0,0l1.1,0.1c1,0.1,1.9,0.2,2.9,0.3l0.1,0l0,0
		l1,0.2c1.5,0.3,3.1,0.6,4.6,1.1l-0.1-0.1l1.6,0.6l0,0c6.3,2.2,11.9,6.2,16.3,11.3l1.3,1.5l-1.6-1.2c-2.5-1.8-5-3.5-7.5-5.2
		c-2.9-1.9-5.9-4-8.7-6.1l-0.3-0.2l0,0c0,0,0,0-0.1,0.1l-0.1,0.2l0.1-0.2c1,0.8,2,1.6,3,2.4c5.2,4.1,10.5,8.2,16.1,11.5l0.1,0.1
		c1.3,1.9,2.5,4,3.5,6.1l0.5,1l-0.8-0.7c-8.9-7.5-18.5-14.6-27.7-21.5l-1.1-0.8c4.1,3.3,8.2,6.7,12.2,9.9
		c5.8,4.7,11.8,9.6,17.8,14.3l0.1,0l0,0.1c0.7,1.7,1.2,3.5,1.6,5.2l0.2,1l-0.7-0.8c-3.8-4.8-8.7-9-13.4-13.1c-1.1-1-2.2-1.9-3.3-2.9
		c-0.6-0.5-1.1-1-1.7-1.5c-4.8-4.3-9.8-8.7-15.5-11.9c5.6,3.3,10.5,7.8,15.2,12.2c0.7,0.7,1.5,1.3,2.2,2c2.2,2,4.3,4.2,6.4,6.3
		c3.4,3.4,6.8,6.9,10.6,9.8l0.1,0l0.1,0.1c0.2,0.9,0.3,1.8,0.4,2.6l0,0.3L160.9,146.6z M177.6,57c-1.2,8.7-2.5,17.5-3.8,26
		c-1,6.5-2,13.2-3,19.8c-0.6,4.3-1.3,8.6-2,12.9c-1.7,10.4-3.5,21.2-4,31.7l0,0.3l-0.3-0.1c-0.3-0.1-0.6-0.2-1-0.3l-0.6-0.2l0.2-0.3
		c0.1-0.2,0.2-0.4,0.2-0.6c-0.8-17.4-15.7-33-33.8-35.5c-17.9-2.5-37.3,7.7-45.1,23.6l-0.1,0.1l-0.6,0l0.1-0.3
		c0.9-2.6,1.2-5.4,1.6-8.1c0.1-1,0.2-1.9,0.4-2.9l2.8-18.9c0.9-5.9,1.8-11.9,2.7-17.8c1.2-7.8,2.4-16.1,3.6-24.5
		c0.2-1.5,0.5-3.1,0.7-4.6c0.9-6.1,1.9-12.3,2.1-18.5l0-0.3l0.3,0.1c10.1,4.2,21.3,6.5,32.1,8.8c2.2,0.5,4.4,0.9,6.6,1.4
		c7.7,1.7,14.9,3.2,21.8,4.5l0.4,0.1l-0.2,0.3c-2.3,3.1-3.4,6.3-3.2,9.2c0.2,3,2.3,6.2,5.6,6.2c0.1,0,0.1,0,0.2,0l0.1,0l0.1,0
		c3.6,1.6,7.2-2,9-4.3c2.4-3,4.3-5.7,5.9-8.3l0.1-0.1l0.6,0.1c0.2,0,0.3,0.1,0.5,0.1l0.2,0L177.6,57z"/>
	<path id="XMLID_3072_" class="st1" d="M157.3,82.6L157.3,82.6c0.1-0.2,0-0.2,0-0.2l-0.1,0l0-0.1c-0.7-2.6-1.8-5-3.3-7.1
		c-4.8-6.7-13-10.2-22-9.2c-9.2,1-16.9,6.2-20.1,13.7l-0.1,0.3l-0.3-0.2l0,0.1l0.2,0.2l-0.1,0.2c-0.7,1.9-1.2,3.8-1.4,5.8l0,0.2
		l-0.1,0l0.1,0.1l0,0.1c0,0.7-0.1,1.5,0,2.2c0.2,5.4,3,11.1,7.4,14.8c3.5,3,7.7,4.3,11.8,3.8l0.1,0l0.1,0c8.6,3.4,18.9,0.6,24.5-6.7
		C157.7,95.5,158.9,89.1,157.3,82.6L157.3,82.6z M114.3,78c0.4-0.7,0.9-1.4,1.5-2.2l0.2-0.2l0.8,1c0.2-0.1,0.3,0.1,1.4,1.2
		c0.8,0.7,1.5,1.4,2.3,2.1c1.2,1.1,2.3,2.1,3.5,3.2c2.2,2,4.6,4.2,7.6,6.8c1,0.9,2,1.8,3,2.7c1.5,1.4,3.1,2.7,4.6,4.1l-0.3,0.4
		c-3.1-2.6-6.3-5.1-9.2-7.3c-2.7-2.1-5.5-4.2-8.3-6.1c-0.7-0.5-1.3-0.9-2-1.4c-1.8-1.2-3.6-2.4-5.2-4l-0.1-0.1L114.3,78z
		 M120.4,103.3c-1.6-0.9-2.9-1.9-4.1-3.2c-0.9-0.9-1.6-2-2.3-3.2l-1.1-2l1.5,1.7c2.1,2.4,4.2,4.5,6.2,6.3L120.4,103.3z M129.5,105.4
		c-0.2,0.1-0.4,0.3-0.5,0.5L129,106l-0.2,0c-0.5-0.1-0.6-0.2-1.1-0.3l0.3,0v-0.2c0-0.1-0.5-0.1-0.5-0.1c-4.7-5.2-10-10.3-14.9-15.2
		c4.8,5.4,9.1,10.2,13.6,14.8l0.5,0.6l-0.9-0.2c-0.9-0.2-1.8-0.5-2.6-0.8l-0.1-0.1c-1.7-1.6-3.4-3.3-5-4.8c-1.7-1.6-3.4-3.2-5.1-4.9
		l-0.1-0.1c-0.6-1.4-1-2.9-1.2-4.4l-0.1-0.8l0,0l0,0c0-0.2,0-0.3,0-0.5l0-0.9l0.5,0.5c2.3,2.5,4.8,4.9,7.2,7.2l1.9,1.8
		c2.6,2.5,5.4,5.1,8.3,7.3l0.3,0.2L129.5,105.4z M138.1,106.2c-0.3,0-0.5,0-0.8,0.1l-0.1,0l-0.1-0.1c-6-5.6-12.6-10.8-19-15.9
		c-1.7-1.4-3.5-2.8-5.2-4.1c7.4,6.8,15,13.8,23.1,19.7l0.6,0.5l-0.8,0c-1.7,0-3.3-0.3-4.9-0.7l-0.1,0l0,0c-2-2-4.2-3.9-6.3-5.7
		c-1.4-1.2-2.8-2.4-4.2-3.7c-1.5-1.4-3-2.8-4.4-4.2c-1.3-1.3-2.6-2.7-4-4l0-0.1v-0.1c0-0.6-0.1-1.3,0-1.9l0-0.5l0,0l0,0
		c0.1-0.6,0.1-1.1,0.3-1.6c0-0.1,0-0.1,0-0.2l0.1-0.5l0.3,0.3c1.7,1.4,3.4,2.8,5.1,4.2c2.7,2.2,5.5,4.5,8.2,6.8
		c2.2,1.9,4.4,3.9,6.4,5.9c1.9,1.8,3.9,3.8,6,5.5l0.4,0.4L138.1,106.2z M139.5,106.1l-0.1,0l-0.1-0.1c-0.9-1.4-2.3-2.6-3.7-3.8
		c-0.4-0.4-0.8-0.7-1.2-1.1c-2.3-2.1-4.7-4.3-7.5-6.5c-4.2-3.5-8.7-7.1-14.4-11.5l-0.1-0.1l0-0.2c0.1-0.4,0.2-0.8,0.4-1.3l0.1-0.3
		l0.3,0.2c4.1,3.6,8.5,7.3,13.8,11.7c1.2,1,2.5,2.1,3.7,3.1c3.6,3.1,7.3,6.3,11.3,8.7c0,0,0.1,0,0.1,0l0.1,0.5
		C141.3,105.8,140.4,105.9,139.5,106.1z M145.6,104.3c-1.1,0.5-2.2,0.9-3.3,1.2l-0.2-0.5c0.1,0,0.1-0.1,0.1-0.2c0-0.1,0-0.1,0-0.2
		c-3.1-3-6.7-5.7-10.2-8.4c-1.7-1.3-3.6-2.7-5.3-4.1c-3.6-2.9-7.3-5.9-10.8-8.9l-2.9-2.4l0.1-0.2c0.3-0.8,0.6-1.6,1.1-2.4l0.2-0.3
		l0.2,0.2c1.1,1.2,2.4,2.1,3.8,3.2l0.5,0.4c3.7,2.7,6.7,5,9.5,7.2c3.1,2.5,6.1,5.1,9.1,7.6c2.7,2.4,5.5,4.8,8.4,7.1l0.3,0.2
		L145.6,104.3z M147.1,103.5c-0.2,0.1-0.4,0.2-0.6,0.3l-0.2,0.1l-0.1-0.2c0,0,0-0.1-0.1-0.1c-1.4-1.4-2.9-2.8-4.7-4.4l0.3-0.4
		c1.9,1.6,3.6,3,5.4,4.3l0.3,0.2L147.1,103.5z M149.5,101.9c-0.6,0.4-1.1,0.8-1.6,1.1l-0.2,0.1l-0.1-0.1c-3.2-3.1-6.6-6-10-8.8
		c-1.8-1.5-3.7-3.1-5.5-4.7c-2-1.7-4-3.5-5.9-5.3c-3.2-2.9-6.5-5.9-9.9-8.7l-0.2-0.2l0.2-0.2c0.4-0.4,0.8-0.8,1.2-1.3l0.1-0.1
		l0.2,0.1c11.4,8.3,21.8,17.3,31.6,27.7l0.2,0.2L149.5,101.9z M155.3,93.6c-0.3,1-0.7,1.8-1.1,2.6l-0.2,0.3l-0.2-0.3
		c-9-9.6-20.1-17.7-30.1-24.5c5.1,3.8,9.7,7.4,14.3,11.1c2.5,2.1,4.9,4.2,7.3,6.4c2.7,2.5,5.6,5,8.5,7.4l0.2,0.1l-0.1,0.2
		c-0.5,0.9-1,1.5-1.5,2.2l0,0h0l-0.3,0.6v0c0,0.6-1.2,1.2-1.8,1.8l-0.2,0.2l-0.2-0.2c-8.6-10.7-19.9-20.4-31.8-27.5l-0.3-0.2
		l0.2-0.2c0.5-0.4,1-0.8,1.6-1.3l0,0l0.3-0.2c0.7-0.5,1.4-0.9,2.1-1.3l0.1-0.1l0,0l0.3-0.1c0.6-0.3,1.2-0.6,1.8-0.8l0.1-0.1l0.1,0.1
		c2.9,2.2,6,4.4,8.9,6.5c2.2,1.6,4.4,3.2,6.6,4.8c3.9,2.8,7.5,5.9,11,9c1.4,1.2,2.8,2.4,4.2,3.6l0.1,0.1L155.3,93.6z M137.8,74.6
		c6,4.5,12.2,9.2,18.3,13.6l0.1,0.1l0,0.1c0,0.7-0.1,1.3-0.2,1.9l0,0l-0.2,1l0,0c-0.1,0.5-0.2,1-0.3,1.5l-0.1,0.4l-0.3-0.4
		c-3.9-4.6-9.1-8.3-14.1-11.9l-0.7-0.5c-5.7-4.1-10.8-7.6-15.6-10.8l-0.4-0.3l0.4-0.2c0.5-0.2,1.1-0.4,1.5-0.5l0.1,0l0,0l0.5-0.1
		c0.6-0.2,1.3-0.3,2.1-0.5l0,0l0.6-0.1c0.5-0.1,0.9-0.1,1.4-0.2l0.1,0l0,0l0.7-0.1c1.9-0.2,3.8-0.1,5.7,0.1l0,0l0.4,0.1
		c0,0,0.1,0,0.1,0l0.3,0l0,0l0.8,0.1c0.2,0,0.5,0.1,0.7,0.1c5.3,1.2,9.9,4.2,13,8.5l0.7,1.1l-1.1-0.7c-3.1-2-6.3-4-9.4-5.9
		c-1.5-0.9-2.9-1.8-4.4-2.7l-0.4-0.3l0,0c0,0,0,0.1,0,0.1c1.6,1.1,3.3,2.1,4.9,3.2c3.4,2.3,7,4.6,10.6,6.7l0.1,0l0,0.1
		c0.2,0.4,0.4,0.7,0.6,1.1l0.4,0.9l-0.8-0.6c-6.5-4.8-12.8-8.6-18.9-11.4c2.3,1.4,4.5,2.9,6.7,4.3c4.4,2.8,8.8,5.7,13.2,8.6l0.1,0
		l0,0.1c0.4,1.2,0.8,2.4,0.9,3.6l0.1,0.6l-0.5-0.4c-7.7-5.8-15.7-11.6-24-17l-0.2-0.2c8.2,5.7,16.5,11.8,24.6,18.1l0.1,0.1l0,0.4
		c0,0.2,0,0.3,0,0.5l0,0.5l-0.4-0.3c-6-4.4-12.1-8.8-18-13c-1.7-1.2-3.4-2.4-5-3.6C134.4,72,136.1,73.3,137.8,74.6z"/>
	<path id="XMLID_3082_" class="st1" d="M151.9,98.9c-4.5-4.9-9.8-9.3-14.9-13.5l-1.4-1.1c-0.8-0.7-1.6-1.4-2.5-2
		c-4.1-3.4-8.2-6.9-12.7-9.6c2.8,2.5,5.9,4.9,8.8,7.2c2.2,1.7,4.5,3.4,6.6,5.3c2.4,2,4.8,4.2,7.1,6.3c2.8,2.6,5.7,5.2,8.7,7.7
		c0.1,0,0.1,0.1,0.1,0l0.2,0l0-0.2C151.9,98.9,151.9,98.9,151.9,98.9z"/>
	<path id="XMLID_3083_" class="st1" d="M155.5,90.9l0.1-0.1l-0.1-0.1c0,0,0-0.1-0.1-0.1c-8.1-7.2-17.2-14-27.7-20.9
		c8.8,6,17.7,12.9,27.4,21.2C155.3,91.1,155.5,90.9,155.5,90.9z"/>
	<path id="XMLID_3182_" class="st1" d="M64.4,137.8c0.1,0,0.1-0.1,0-0.1c0,0,0-0.1-0.1-0.1c0,0,0,0,0,0c-0.8,0.1-1.7,0.4-2.5,0.7
		c-0.6,0.2-1.2,0.4-1.8,0.6c-0.8,0.2-1.8,0.4-2.9,0.6c1-0.1,2.1-0.3,3.2-0.5c0.2,0,0.3-0.1,0.5-0.1
		C62.1,138.7,63.4,138.4,64.4,137.8z"/>
	<path id="XMLID_3185_" class="st1" d="M72.2,149.6c-0.9-1.7-1.8-3.4-2.6-5.1c-1.1-2.3-2.1-4.7-3-7.1c-0.8-1.9-1.5-3.8-2.4-5.7
		c-0.1-0.2-0.3-0.3-0.4-0.3l-0.2,0l0.2-0.2c5.1-5,7.8-11.5,7.4-17.6c-0.6-8.2-7.1-15.4-15.6-17c-5.8-1.1-11.8,0.5-16.7,4.6
		c-5,4.2-7.9,10.1-7.9,16v0.1l-0.3,0c-0.1,0-0.1,0.1-0.1,0.1c0,0,0-0.2,0-0.2c0,0,0-0.2,0-0.2h0.1l0,0.4c0,1.6,0.3,3.4,0.8,4.9
		l0,0.1c0,0,0,0.1,0,0.1l0,0c0.5,1.5,1.2,3,2.1,4.4l0.1,0.1l-0.3,0.1c-0.1,0-0.1,0.1-0.1,0.1c0,0.1,0,0.1,0.1,0.1c0.1,0,0.1,0,0.2,0
		l0.2,0l0.1,0.2c0.1,0.1,0.2,0.3,0.3,0.4c1.2,1.6,2.8,3.2,4.5,4.5l0.1,0.1l0,0.1c0,0,0,0.1,0,0.1c0,0,0,0,0.1,0l0.2,0l0,0
		c5.2,3.8,11,5.3,15.7,3.9l0.2-0.1l0,0.2c-0.1,0.2,0,0.5,0,0.7v0.1l-0.5,0.1c-0.1,0-0.1,0.3-0.1,0.3c0,0,0,0.3,0,0.3c0,0,0,0,0,0
		l0.4-0.3l0,0c0.1,1.4,0.9,3.2,1.6,4.6c0.2,0.5,0.4,0.9,0.6,1.3c1.4,3.6,3,7.3,4.8,11c0.2,0.4,0.4,0.8,0.6,1.4
		c1.3,2.8,3.4,7.5,6.3,8.4c0.9,0.3,1.9,0.2,2.9-0.4l0,0c1.8-0.2,2.8-1.3,3.4-2.2c1-1.8,1.1-4.3,0.2-6.4
		C74.3,153.5,73.2,151.5,72.2,149.6z M65.9,126.6c-0.2,0.3-0.4,0.6-0.6,0.9l-0.1,0.1l-0.1-0.1c0,0-0.1,0-0.1,0
		c-2.3,0.2-4.8,0.5-7.7,0.8l-0.8,0.1l0.8-0.3c0.6-0.2,1.2-0.5,1.8-1l0,0h0c2.4,0,4.6,0,6.6-0.6l0.3-0.1L65.9,126.6z M38.3,114.6
		L38.3,114.6l-0.1-0.1c0.7-3.7,3-6.8,6.3-8.6c4.3-2.2,9.7-1.8,13.8,1.1l0.2,0.1l-0.3,0.1c-0.1,0,0,0.1,0,0.1c0,0,0,0,0,0l0.4-0.1
		l0,0c0.7,0.5,1.3,1,1.8,1.6l0.1,0.1l0,0.1c0,0,0,0.1,0,0.1c0,0,0,0,0.1,0l0,0l0.1,0l0.2,0.2c0.1,0.1,0.2,0.2,0.3,0.3
		c1.1,1.4,1.8,3,2.2,4.6l0,0.1l-0.2,0.1c0,0,0,0,0,0.1c0,0,0,0,0,0l0.2,0l0,0.1c0.1,0.5,0.2,0.9,0.2,1.3l0,0.1l-0.2,0
		c-0.1,0-0.1,0.1-0.1,0.1c0,0,0,0,0.1-0.1l0-0.1h0.1l0,0.2c0,0.9-0.1,1.8-0.4,2.6c-0.9,2.9-3.5,6.1-6.1,7.5l-0.1,0l-0.1,0
		c-0.1-0.1-0.2-0.1-0.3,0c-2.2,1.1-4.6,1.7-7.1,1.7c-3.7,0-7.4-1.5-9.7-5c-1.6-2.4-2.3-5.3-1.9-8.2l0-0.1l0.1,0c0,0,0,0,0.1,0
		c0,0,0,0,0.1,0c0.1,0,0.1-0.1,0.1-0.1C38.4,114.6,38.3,114.6,38.3,114.6z M60.3,106.8l0.2-0.1c0.8-0.2,1.7-0.4,2.6-0.6l0.1,0.2
		c-0.8,0.3-1.5,0.7-2.2,1.1l-0.1,0l-0.1-0.1c-0.1-0.1-0.3-0.3-0.4-0.4L60.3,106.8z M68.1,122.6c-0.2,0.5-0.4,0.9-0.6,1.3l0,0.1
		l-0.1,0c0,0,0,0-0.1,0c-2,0.3-4,0.8-6.3,1.6c0,0,0,0,0,0c0,0,0,0,0,0c1.8-0.5,3.8-0.9,6.1-1.3l0.2,0l-0.1,0.2
		c-0.3,0.6-0.6,1.1-0.9,1.5l0,0.1l-0.1,0c-0.7,0-1.4,0.2-2.1,0.3c-0.4,0.1-0.8,0.1-1.2,0.2c-1,0.1-2.1,0.2-3.4,0.3l-0.4,0l0.3-0.2
		c0.5-0.4,0.9-0.8,1.4-1.2l0,0c0,0,0-0.1,0.1-0.1c0.4-0.4,0.7-0.8,1.2-1.4l0,0l0.2,0c1.8-0.3,3.9-0.6,5.7-1.4l0.3-0.1L68.1,122.6z
		 M69,120.2c-0.2,0.6-0.4,1.1-0.6,1.6l0,0.1l-0.1,0c-0.6,0.1-1.1,0.3-1.7,0.5c-0.4,0.2-0.9,0.3-1.4,0.4c-0.8,0.2-1.7,0.5-2.8,0.7
		l-0.3,0.1l0.2-0.3c0.5-0.7,0.9-1.4,1.3-2.1l0-0.1l0.1,0c1.6-0.2,3.5-0.5,5.1-1.2l0.2-0.1L69,120.2z M69.7,112.5
		c0.4,2.4,0.2,4.9-0.5,7.3l0,0.1l-0.1-0.1c0,0,0,0,0,0c-0.7,0.2-1.4,0.3-2,0.5c-0.9,0.2-1.9,0.5-2.9,0.7l-0.2,0l0.1-0.2
		c0.1-0.2,0.2-0.5,0.4-0.8l0,0l0,0c0.8-0.4,1.6-0.6,2.3-0.8c0.4-0.1,0.8-0.2,1.2-0.2c0.4-0.1,0.8-0.1,1.3-0.2c0.1,0,0.1-0.4,0.1-0.4
		c0-0.1,0-0.3-0.1-0.3c0,0-0.1,0-0.1,0c-1.2,0-2.6,0.7-4.3,1.5l-0.3,0.3l0.1-0.2c0.2-0.5,0.3-1.1,0.4-1.8l0-0.1l0.1,0
		c1.2-0.2,2.9-0.7,3.9-1.7c0-0.1,0-0.1,0-0.2c0,0-0.1-0.1-0.1,0c-0.4,0.2-0.7,0.4-1.1,0.6c-0.4,0.2-0.8,0.5-1.2,0.7
		c-0.4,0.2-0.9,0.3-1.4,0.5l-0.2,0l0-0.2c0.1-0.5,0.1-1,0-1.6l0-0.1l0.4-0.1c0.4-0.1,0.9-0.3,1.3-0.4c0.2-0.1,0.5-0.1,0.7-0.2
		c0.7-0.2,1.4-0.4,2-0.7c0.1,0,0.1-0.1,0.1-0.1c0,0-0.1-0.1-0.1-0.1c-0.6,0.1-1.3,0.3-1.9,0.5c-0.2,0.1-0.4,0.2-0.7,0.2
		c-0.4,0.1-0.8,0.3-1.2,0.4l-0.6,0.2l0-0.2c0-0.4-0.1-0.7-0.2-1.1l0-0.1l0.1,0c1.9-0.5,3.4-1,4.6-1.7l0.2-0.1L69.7,112.5z M69,109.6
		l0,0.1c0.3,0.8,0.5,1.6,0.6,2.4l0,0.2l-0.2,0c0,0-0.1,0-0.1,0c-0.5,0.2-0.9,0.4-1.4,0.6c-1,0.4-2.1,0.9-3.2,1.2l-0.1,0l0-0.1
		c-0.1-0.3-0.2-0.7-0.3-1.1l0-0.1l0.7-0.2c1.3-0.5,2.7-0.9,3.9-1.6c0.1,0,0.1-0.1,0.1-0.2c0-0.1-0.1-0.1-0.1-0.1
		c-1.3,0.4-2.7,1-4,1.6l-0.6,0.3l0-0.1c-0.2-0.5-0.4-0.9-0.6-1.4l-0.1-0.1l0.1,0c0.9-0.3,1.7-0.6,2.4-0.8c0.5-0.1,1-0.2,1.6-0.3
		c0.4-0.1,0.8-0.1,1.1-0.2L69,109.6z M67.7,106.8L67.7,106.8c0.4,0.8,0.8,1.5,1,2.2l0.1,0.1l-0.2,0c-1.8,0.2-3.8,0.9-5.1,1.5l-0.1,0
		l-0.1-0.1c-0.1-0.2-0.3-0.5-0.5-0.8l-0.1-0.2l0.2,0c2.1-0.3,3.7-0.9,4.8-1.6c0.1,0,0.1-0.1,0.1-0.2c0-0.1-0.2-0.2-0.3-0.1
		c-0.4,0.2-0.9,0.4-1.3,0.6c-0.4,0.2-0.8,0.4-1.2,0.6c-0.7,0.2-1.4,0.5-2.2,0.7l-0.1,0l0-0.1c-0.2-0.2-0.3-0.5-0.5-0.7l-0.2-0.2
		l1.2-0.4C64.7,107.8,66.2,107.3,67.7,106.8L67.7,106.8z M66.9,105.5l0.2,0.3c0.1,0.2,0.3,0.4,0.4,0.6l0.1,0.1l-0.1,0
		c-1.4,0.5-2.8,1-4.2,1.5l-1.3,0.5l-0.1-0.1c-0.2-0.2-0.4-0.4-0.5-0.6l-0.2-0.2l0.2-0.1c0.9-0.4,1.6-0.7,2.3-1
		c0.4-0.1,0.8-0.3,1.3-0.4C65.5,106,66.2,105.8,66.9,105.5L66.9,105.5z M65.7,103.9L65.7,103.9c0.3,0.3,0.5,0.5,0.7,0.8l0.3,0.4
		l-0.5-0.3c0,0-0.1,0-0.1,0c-1.9,0.4-3.8,1-5.6,1.6l-0.5,0.1l-0.1,0c-0.2-0.2-0.5-0.4-0.8-0.6l-0.2-0.2l0.3-0.1
		c0.3-0.1,0.6-0.1,0.8-0.2C62,105.2,63.9,104.7,65.7,103.9L65.7,103.9z M64.7,102.9L64.7,102.9c0.3,0.3,0.5,0.5,0.7,0.7l0.2,0.2
		l-0.2,0c-1.7,0.3-3.5,0.9-5.2,1.5c-0.4,0.1-0.8,0.3-1.1,0.4l-0.1,0l-0.1,0c-0.4-0.2-0.8-0.5-1.2-0.7l-0.3-0.2l0.4-0.1
		C60.1,104.3,62.4,103.7,64.7,102.9L64.7,102.9z M63.7,102L63.7,102c0.2,0.1,0.3,0.2,0.4,0.3l0.3,0.3l-0.2,0.1
		c-2.5,0.8-4.8,1.5-7.2,2l0,0l0,0c-0.9-0.4-1.8-0.7-2.7-1l-0.5-0.1l0.6-0.1C57.9,102.8,60.9,102.3,63.7,102L63.7,102z M61.3,100.4
		L61.3,100.4l0.1,0c0.5,0.3,1,0.6,1.4,0.9l0.2,0.2l-0.3,0c-3.5,0.4-7.1,1-10.9,1.7l0,0l0,0c-0.6-0.1-1.1-0.1-1.7-0.1l0-0.2
		C54,102.1,57.7,101.3,61.3,100.4C61.2,100.4,61.3,100.4,61.3,100.4z M35.4,106.6c0.3-0.5,0.7-1,1.2-1.5l0.1-0.1l0,0l0.1-0.1
		c0.8-1,1.7-1.9,2.7-2.7l0,0l0.2,0L40,102v0l0.2-0.3c1.5-1.2,3.1-2.1,4.8-2.8c2.6-1,5.3-1.4,8.2-1.2l0.8,0.1L53.2,98
		c-3,0.7-6.1,1.7-9.1,2.7c-1.3,0.4-2.6,0.9-3.9,1.3l-0.5,0.2l0,0.1c0,0,0,0,0.1,0c1.5-0.4,3-0.8,4.5-1.2c3.4-0.9,6.9-1.8,10.2-3
		c0,0,0,0,0.1,0l0-0.1l0.1,0c0.9,0.1,1.7,0.3,2.4,0.5l0.4,0.1L57,98.7c-5.9,1.5-11.8,3.2-17.6,4.9l-0.5,0.1c0,0,0,0.1,0,0.1
		c0,0,0,0,0,0l1-0.2c6-1.5,12.2-3,18.3-4.7l0,0l0,0c0.8,0.3,1.6,0.7,2.3,1l0.3,0.2l-0.3,0.1c-4.1,0.8-8.3,1.7-12.3,2.5
		c-3.7,0.8-7.6,1.6-11.4,2.3l-0.2,0l0,0.1c0,0,0.1,0,0.1,0c2.9-0.4,5.9-0.9,8.7-1.4l0.1,0.2c-0.5,0.2-0.9,0.3-1.2,0.5
		c-0.2,0.1-0.5,0.2-0.7,0.4l0,0c-2.6,0.6-5.4,1.2-8.1,1.9l-0.3,0.1L35.4,106.6z M34.4,108.2c0.2-0.4,0.5-0.8,0.8-1.3l0,0l0.1,0
		c2-0.3,4.2-0.7,6.8-1.2l0.5-0.1l-0.4,0.3c-0.4,0.3-0.7,0.6-1,0.9l0,0l0,0c-2.2,0.4-4.3,0.9-6.5,1.6l-0.3,0.1L34.4,108.2z M33.5,110
		c0.2-0.4,0.4-0.8,0.6-1.4l0,0l0.1,0c1.9-0.5,3.9-0.9,5.9-1.2l0.3-0.1l-0.2,0.3c-0.4,0.4-0.7,0.8-1,1.3l0,0l0,0
		c-0.5,0.1-1,0.2-1.5,0.4c-0.3,0.1-0.6,0.2-1,0.3c-0.4,0.1-0.8,0.2-1.2,0.2c-0.6,0.1-1.2,0.2-1.8,0.4l-0.2,0.1L33.5,110z
		 M32.8,111.8c0.1-0.4,0.3-0.8,0.5-1.3l0-0.1l0.1,0c1,0,2-0.2,2.9-0.4l0.3-0.1c0.2,0,0.4-0.1,0.5-0.1c0.4-0.1,0.9-0.2,1.3-0.3
		l0.3-0.1l-0.1,0.2c-0.2,0.3-0.4,0.6-0.5,1l0,0.1l-0.1,0l0-0.1l0,0.1c-0.6,0-1.2,0.2-1.9,0.4c-0.3,0.1-0.7,0.2-1,0.3
		c-0.4,0.1-0.8,0.2-1.2,0.3c-0.3,0.1-0.7,0.1-1,0.2l-0.2,0L32.8,111.8z M32.4,113.5c0.1-0.4,0.2-0.8,0.3-1.1l0-0.1l0.1,0
		c0.8-0.1,1.6-0.2,2.4-0.4c0.2,0,0.4-0.1,0.5-0.1c0.7-0.1,1.3-0.3,1.9-0.5l0.3-0.1l-0.1,0.3c-0.2,0.5-0.4,0.9-0.5,1.3l0,0.1l-0.1,0
		c-1.6-0.1-3.4,0.4-4.7,0.8l-0.2,0.1L32.4,113.5z M32,115.7c0-0.5,0.1-1.1,0.2-1.7l0-0.1l0.1,0c0.7-0.2,1.2-0.3,1.8-0.4
		c0.5-0.1,0.9-0.1,1.4-0.2c0.5-0.1,1-0.1,1.5-0.2l0.2,0l0,0.2c-0.1,0.5-0.2,1.1-0.3,1.6l0,0.1l-0.5,0.1c-0.5,0.1-1,0.3-1.5,0.4
		c-0.8,0.2-1.6,0.3-2.6,0.4l-0.1,0L32,115.7z M32,117c0-0.3,0-0.6,0-0.8l0-0.3l0.1,0c1.5-0.1,3.1-0.2,4.5-0.6l0.2,0l0,0.3
		c0,0.1,0,0.2,0,0.3l0,0.1l-0.1,0c-0.4,0.1-0.9,0.2-1.3,0.4c-0.5,0.2-1,0.3-1.6,0.4c-0.5,0.1-1.1,0.2-1.7,0.3l-0.1,0V117z M32,118.6
		c0-0.3,0-0.6,0-0.9l0-0.3l0.1,0c1.9-0.1,3.5-0.5,4.6-1l0.3-0.1v0.2c0,0.4-0.1,0.8-0.1,1.1l-0.1,0.1l-0.1,0
		c-0.2,0.1-0.5,0.1-0.7,0.2c-0.5,0.2-1,0.3-1.6,0.4c-0.7,0.1-1.5,0.2-2.3,0.3l-0.1,0L32,118.6z M32.3,120.2c-0.1-0.4-0.1-0.7-0.2-1
		l0-0.2h0.1c0,0,0,0,0.1,0c1.8,0,3.3-0.3,4.4-0.8l0.1-0.1l0,0.1c0,0.4,0.1,0.5,0.2,0.8l0,0h-0.1c-0.7,0-1.4,0.4-2.1,0.5l-0.3,0.2
		c-0.6,0.1-1.3,0.3-2.1,0.6l-0.1,0.1L32.3,120.2z M32.7,121.9c0,0,0-0.1,0-0.1c0-0.1,0-0.1-0.1-0.2c-0.1-0.3-0.2-0.6-0.2-1l0-0.1
		l0.1,0c0.6-0.2,1.3-0.3,2.1-0.5c0.4-0.1,0.7-0.1,1.1-0.2c0.5-0.1,0.9-0.1,1.4-0.2l0.1,0l0,0.1c0.1,0.4,0.2,0.7,0.3,1l0,0.1l-0.1,0
		c-0.6,0.1-1.3,0.3-1.9,0.4c-0.3,0.1-0.5,0.2-0.8,0.2l-1.9,0.5L32.7,121.9z M33.3,123.5c-0.2-0.3-0.3-0.7-0.5-1.2l0-0.1l2.1-0.5
		c0.2-0.1,0.5-0.1,0.7-0.2c0.6-0.1,1.2-0.3,1.8-0.5l0.1,0l0,0.1c0.1,0.4,0.3,0.7,0.4,1l0.1,0.1l-0.2,0c-0.5,0.1-1,0.2-1.5,0.4
		c-0.3,0.1-0.5,0.1-0.7,0.2c-0.7,0.2-1.4,0.4-2.2,0.6L33.3,123.5L33.3,123.5z M33.9,124.8L33.9,124.8c-0.2-0.4-0.3-0.6-0.5-1
		l-0.1-0.1l0.5-0.1c0.6-0.1,1.2-0.3,1.8-0.4c0.2-0.1,0.5-0.1,0.7-0.2c0.5-0.1,1.1-0.2,1.6-0.4l0.1,0l0,0.1c0.1,0.3,0.3,0.5,0.4,0.8
		c0,0,0.1,0.1,0.1,0.1l0.2,0.3l-0.2,0c-1.2,0.1-2.5,0.4-3.7,0.7C34.6,124.6,34.3,124.7,33.9,124.8L33.9,124.8z M35.5,127.3
		L35.5,127.3c-0.1-0.1-0.1-0.1-0.1-0.2l-0.2-0.2l0.2,0c1.5-0.3,3-0.7,4.4-1.1c0.1,0,0.1-0.1,0.1-0.1c0-0.1-0.1-0.1-0.2-0.1
		c-1.4,0.3-2.9,0.7-4.3,1.1l-0.4,0.1l0-0.1c-0.3-0.4-0.6-0.9-0.9-1.4L34,125l0.2,0c0.3,0,0.5-0.1,0.8-0.1c1.3-0.2,2.7-0.4,4-0.8
		l0.1,0l0.1,0.1c0.5,0.7,1,1.3,1.7,1.9l0.2,0.2l-0.2,0c-0.5,0.1-1,0.2-1.5,0.3c-0.4,0.1-0.7,0.2-1.1,0.3
		C37.3,127,36.6,127.1,35.5,127.3L35.5,127.3z M36.8,128.9L36.8,128.9c-0.4-0.4-0.7-0.8-1.1-1.3l-0.1-0.2l0.2,0
		c0.9-0.1,1.7-0.2,2.5-0.3c0.2,0,0.3-0.1,0.5-0.1c0.8-0.1,1.6-0.2,2.3-0.5l0.1,0l0.1,0c0.6,0.5,1.2,0.9,1.8,1.3l0.3,0.2l-0.3,0.1
		c-0.4,0.1-0.8,0.2-1.2,0.3c-0.5,0.1-1,0.2-1.5,0.3C39.3,128.7,38.2,128.8,36.8,128.9L36.8,128.9z M38.4,130.4L38.4,130.4
		c-0.4-0.4-0.8-0.7-1.2-1.2L37,129l0.3,0c1.9,0,4.4-0.1,6.4-0.9l0.1,0l0,0c0.9,0.5,1.9,0.8,2.9,1l0.7,0.2l-0.7,0.1
		C43.8,129.7,41.1,130,38.4,130.4L38.4,130.4z M40.5,132L40.5,132c-0.6-0.4-1.2-0.8-1.7-1.3l-0.2-0.2l0.3,0c3.8-0.3,7.5-0.7,11-1
		c0.7,0,1.4-0.1,2-0.2c4.5-0.5,8.7-0.9,12.8-1.4l0.3,0l-0.2,0.2c-0.5,0.7-1,1.2-1.5,1.7l0,0l-0.1,0c-0.3,0-0.6,0-0.9,0
		C54.7,129.8,47.1,130.9,40.5,132L40.5,132z M63.5,133.7l-0.1,0c-2,0.4-4,1-5.9,1.6l-1.1,0.4l1-0.6c0.7-0.4,1.4-0.9,2-1.4l0.1-0.1
		l0.1,0.1c0.2,0.3,0.6,0.5,1,0.2c0.8-0.6,1.5-1.2,2.2-1.8l0.1-0.1l0.1,0.2c0.1,0.4,0.3,0.9,0.4,1.4L63.5,133.7z M42.6,133.2
		L42.6,133.2c-0.5-0.3-1-0.5-1.5-0.9l-0.3-0.2l0.3,0c4.4-0.5,8.9-0.9,13.2-1.2c2.7-0.2,5.5-0.4,8.2-0.7l0.3,0l-0.2,0.2
		c-0.4,0.4-0.7,0.7-1.1,1l-0.1,0.1l-0.1-0.1c0,0-0.1,0-0.1,0c-3.2,0.2-6.5,0.6-9.7,1C48.6,132.7,45.6,133,42.6,133.2L42.6,133.2z
		 M46.6,135L46.6,135c-1.2-0.4-2.3-0.9-3.5-1.4l-0.4-0.2l0.5,0c6-0.1,11.9-0.4,17.6-1.5l0.5-0.1l-0.4,0.3c-0.4,0.3-0.8,0.7-1.2,0.9
		c-0.1,0.1-0.2,0.1-0.2,0.2l0,0l0,0c-0.3,0.2-0.7,0.4-1.2,0.7l-0.1,0l-0.1,0c0,0-0.1,0-0.2,0c-2.1,0-4.3,0.3-6.4,0.6
		C49.9,134.7,48.3,135,46.6,135L46.6,135z M51.4,135.6c-1.1,0-2.3-0.1-3.4-0.3l0-0.2c2.5,0.1,5.4,0.1,8.2-0.4l0.1,0.2
		C54.8,135.3,53.1,135.6,51.4,135.6z M55.7,137c-0.1-0.3-0.1-0.5,0-0.7c0,0,0,0,0-0.1l0-0.1l0.1,0c1.4-0.4,2.9-0.8,4.4-1.1
		c1.1-0.3,2.2-0.5,3.3-0.8l0.1,0l0.1,0.2c0.1,0.4,0.2,0.7,0.4,1.1l0.1,0.1l-0.1,0c-2.3,0.4-4.5,0.9-6.7,1.3l-1.4,0.3L55.7,137z
		 M57.3,140.6L57.3,140.6c-0.1-0.2-0.2-0.4-0.3-0.6l-0.3-0.5c-0.1-0.2-0.2-0.4-0.3-0.5l-0.1-0.2l0.2,0c0.7-0.1,1.3-0.2,2-0.3
		c0.3-0.1,0.5-0.1,0.8-0.1c0.2,0,0.5-0.1,0.7-0.1c1.2-0.2,2.4-0.4,3.5-0.8c0.1,0,0.1-0.1,0.1-0.2c0-0.1-0.1-0.2-0.2-0.2c0,0,0,0,0,0
		c-0.9,0-1.9,0.4-2.8,0.6c-0.5,0.1-1.1,0.3-1.6,0.4c-0.4,0.1-0.9,0.2-1.3,0.2c-0.5,0.1-0.9,0.1-1.4,0.2l-0.1,0l0-0.1
		c-0.2-0.3-0.3-0.7-0.4-0.9l0-0.1l1.4-0.2c2.3-0.4,4.6-0.7,6.8-1.2l0.1,0l0,0.1c0.3,0.9,0.7,1.8,1,2.7l0.1,0.1l-0.2,0
		c-2,0.3-4,0.8-6,1.4C58.6,140.3,58,140.5,57.3,140.6L57.3,140.6z M58.1,142.5c-0.2-0.5-0.4-1-0.6-1.5l-0.1-0.1l0.1,0
		c0.6-0.1,1.1-0.2,1.7-0.3c2-0.4,4.1-0.8,6.1-1.4l0.1,0l0.1,0.3c0.2,0.4,0.4,0.9,0.5,1.3l0.1,0.1l-0.1,0c-1.1,0.2-2.2,0.5-3.3,0.8
		c-1.5,0.4-3,0.7-4.5,1L58.1,142.5L58.1,142.5z M58.2,142.8l0.1,0c2.6-0.4,5.3-0.9,7.9-1.7l0.1,0l0.2,0.4c0,0.1,0.1,0.2,0.1,0.3
		l0.1,0.1l-0.2,0c-1.5,0.2-3,0.6-4.4,1c-1.1,0.3-2.3,0.6-3.5,0.8l-0.1,0L58.2,142.8z M60.8,148.9c-0.1-0.3-0.2-0.5-0.3-0.8l-0.2-0.5
		l0.2,0c0.3,0,0.7-0.1,1-0.1c2.2-0.2,4.4-0.4,6.4-0.9c0.1,0,0.1-0.1,0.1-0.2c0-0.1-0.1-0.1-0.1-0.1c-2.1,0.1-4.4,0.5-6.5,0.8
		c-0.4,0.1-0.7,0.1-1.1,0.2l-0.1,0l-0.2-0.6l0.1,0c2.9-0.5,5.2-1,7.4-1.6c0.1,0,0.2-0.2,0.1-0.2c0,0,0-0.2-0.2-0.1
		c-2.2,0.5-4.6,1-7.5,1.8l-0.1,0l0-0.1c-0.1-0.2-0.2-0.5-0.3-0.7c-0.1-0.2-0.2-0.4-0.2-0.5l-0.1-0.2l0.2,0c2.7-0.1,5.3-0.6,7.2-1.5
		c0.1,0,0.1-0.1,0.1-0.2c0-0.1-0.1-0.1-0.2-0.1c-0.8,0.1-1.6,0.3-2.3,0.6c-0.7,0.2-1.3,0.4-2,0.5c-0.8,0.2-1.7,0.3-2.6,0.4l-0.5,0.1
		l0-0.1c0-0.1-0.1-0.2-0.1-0.3c-0.1-0.2-0.1-0.3-0.2-0.5l-0.1-0.1l0.2-0.1c2.7-0.4,5.4-0.8,7.8-1.7l0.1,0l0,0.1
		c0.6,1.4,1.4,3,2.2,4.7l0.1,0.1l-0.2,0c-2,0.4-4,0.9-5.9,1.4c-0.7,0.2-1.4,0.4-2,0.5L60.8,148.9L60.8,148.9z M61.3,150.1
		c-0.1-0.1-0.1-0.3-0.2-0.4c-0.1-0.1-0.1-0.3-0.2-0.4l-0.1-0.1l0.1,0c0.7-0.1,1.3-0.3,2-0.4c2-0.4,4.1-0.8,6.1-1.4l0.1,0l0.3,0.5
		c0.1,0.2,0.2,0.4,0.3,0.5l0.2,0.5l-0.2,0c-2.5,0.3-5.3,0.7-8.3,1.4L61.3,150.1L61.3,150.1z M63.9,155.9c-0.2-0.4-0.4-0.9-0.6-1.3
		l-0.1-0.2l0.2,0c3.5,0.1,6.1-0.3,8.2-1.1c0.1,0,0.1-0.1,0.1-0.1c0-0.1-0.1-0.1-0.2-0.1c-0.7,0.1-1.4,0.3-2.1,0.4
		c-0.8,0.2-1.6,0.2-2.4,0.3c-1.2,0.2-2.4,0.1-3.8,0.1h-0.1l0,0.1c-0.2-0.4-0.4-0.8-0.5-1.1l-0.1-0.1l0.2,0c2.8-0.1,5.7-0.4,8.3-1.2
		c0,0,0.1,0,0.1-0.1c0-0.1-0.1-0.1-0.2-0.1c-1.6,0.2-3.1,0.4-4.7,0.7c-1.2,0.2-2.4,0.4-3.7,0.6l-0.1,0l-0.5-1.2l0.2,0
		c0.6-0.1,1.3-0.1,1.9-0.2c2.1-0.2,4.2-0.5,6.3-0.9c0.1,0,0.1-0.2,0.1-0.2c0,0,0-0.2-0.1-0.2c0,0,0,0,0,0c-2.1,0-4.3,0.6-6.3,1
		c-0.6,0.1-1.3,0.3-1.9,0.4l-0.1,0l0-0.1c-0.1-0.3-0.3-0.7-0.4-0.9l-0.1-0.2l0.2,0c3.2-0.3,6-0.6,8.5-1.1l0.1,0l0,0.1
		c0.4,0.8,0.9,1.7,1.3,2.5c0.5,1,1.1,2,1.6,3l0.1,0.2l-0.2,0c-0.9,0.1-1.8,0.3-2.7,0.4c-2,0.3-4.1,0.6-6.2,0.7L63.9,155.9
		L63.9,155.9z M64.7,157.5c0-0.1-0.1-0.1-0.1-0.2l-0.1-0.2l0.5,0c1,0.1,2.1,0.2,3.1,0.2v0.2c-1,0-2,0.1-2.9,0.1l-0.2,0L64.7,157.5z
		 M73.2,162.1c-0.4,0.4-0.9,0.7-1.5,1l-0.1,0l-0.1,0c-0.1-0.1-0.2-0.1-0.4-0.1c-1.3,0.3-2.6-0.2-3.8-1.5l-0.2-0.2l0.3,0
		c1.7,0.2,3.7,0.4,5.6,0.6l0.3,0L73.2,162.1z M74.4,160.3c-0.1,0.3-0.2,0.6-0.4,0.9v0c-0.1,0.1-0.1,0.2-0.2,0.2l-0.1,0.1l-0.1,0
		c-2-0.2-4.1-0.4-6.2-0.5l-0.4,0l0,0c-0.2-0.2-0.3-0.4-0.5-0.6l-0.2-0.2l0.3,0c0.5,0,1.1,0,1.6,0c2,0.1,4.1,0.1,6.1,0l0.2,0
		L74.4,160.3z M74.7,159.8l-0.1,0.1l-0.2,0c-2-0.1-4.2,0-6.2,0.1c-0.6,0-1.3,0.1-1.9,0.1l-0.1,0l0-0.1c-0.4-0.6-0.9-1.3-1.3-2.1
		l-0.1-0.2l0.2,0c0.7,0,1.3,0,2,0c2.1,0,4.3-0.1,6.5-0.1c0.1,0,0.1-0.3,0.1-0.3c0-0.1,0-0.3-0.1-0.3c0,0,0,0,0,0
		c-0.7,0-1.4,0.2-2,0.2l0-0.2c0.8-0.1,1.5-0.2,2.1-0.4c0.1,0,0.1-0.1,0.1-0.1l0-0.1l-0.1,0c0,0,0,0-0.1,0c-0.7,0-1.5,0.2-2.2,0.3
		c-0.6,0.1-1.3,0.2-2,0.3c-1.5,0.1-3.1,0.1-4.9,0.1l-0.1,0l0-0.1c-0.1-0.1-0.1-0.2-0.2-0.4l-0.2-0.4l0.2,0c2.6,0,5.9-0.2,8.8-1.1
		c0,0,0,0,0.1,0l0.1-0.1l0.3,0.4c0.1,0.3,0.5,0.5,0.5,0.8v0l0.1,0.4l-0.1,0c0.3,0.8,0.5,1.3,0.6,1.9l0,0.1l-0.1,0
		c-0.5,0.1-0.9,0.2-1.4,0.2c-0.7,0.1-1.4,0.3-2.2,0.3c-1.5,0.1-3.1,0.1-4.8-0.1c0,0-0.1,0-0.1,0.1c0,0,0,0.1,0.1,0.1
		c3.6,0.4,6.5,0.3,8.6-0.3l0.4,0v0.2C75,159.3,74.8,159.6,74.7,159.8z"/>
	<path id="XMLID_3527_" class="st1" d="M69.8,73c0.1,0.2,0.4,0,0.4,0c0.1-0.1,0.2-0.2,0.1-0.3C59.6,51.6,37,37.3,11.3,35.5l-0.4,0
		l-0.1-0.3c-0.2-0.9-0.5-1.8-0.8-2.6c-0.1-0.2-0.3-0.4-0.5-0.5c-0.3-0.1-0.5-0.1-0.8,0c-3,1.1-5.8,2.6-8.4,4.4
		c-0.7,0.5-0.3,1.2-0.2,1.3C0.5,38.1,1,38.4,1.6,38l0.3-0.2L2.1,38c0.3,0.2,0.7,0.5,1.1,0.7l0.1,0.1C3.4,38.9,3.6,39,3.7,39h0.1
		l0.1,0.1c1.9,1.1,4,1.9,6.5,2.6c0.2,0,0.4,0,0.6-0.2c0.2-0.2,0.4-0.4,0.4-0.6c0.1-1.1,0-2.2-0.1-3.4l-0.1-0.6l0.6,0
		C34.6,38.6,56.3,52.1,69.8,73z"/>
</g>
<path id="XMLID_3550_" class="st0" d="M-281.1,80.4c0.4,0.3,0.9,0.5,1.3,0.7c0.2,0.1,0.5,0.2,0.7,0.3c0-0.6,0-1.2,0-1.9v-0.1
	c-2-0.6-2.8-1.4-4.4-2.3l0,1.4C-282.5,79.4-281.8,79.9-281.1,80.4z"/>
<path id="XMLID_3557_" class="st0" d="M-279.1,82.9c-1.6-0.6-3.1-1.8-4.2-2.7l0.1,1.2l0.1,0c1.4,0.7,2.8,1.3,4.1,2.1
	c0-0.1,0-0.2,0-0.3L-279.1,82.9z"/>
<path id="XMLID_3559_" class="st0" d="M-285.9,137.9c-0.1,0-0.1-0.1-0.2-0.1c-0.6-0.3-1.2-0.5-1.7-0.8c0.2,0.1,0.3,0.2,0.5,0.3
	C-286.8,137.5-286.3,137.7-285.9,137.9z"/>
<path id="XMLID_3560_" class="st0" d="M-284.8,136c-1.1,0-2,0-3,0c0.7,0.3,1.4,0.6,2.1,0.8c1.1,0.4,2.2,0.8,3.2,1.3l0.9,0
	c0.4,0,0.8,0,1.2-0.1c-0.1-0.1-0.3-0.1-0.4-0.2c-0.2-0.1-0.5-0.2-0.7-0.3L-284.8,136z"/>
<path id="XMLID_3562_" class="st0" d="M-291.5,136c-0.3,0-0.7,0-1,0c0.9,1,2.3,1.6,4.2,2c-0.9-0.6-1.8-1.2-2.6-2L-291.5,136z"/>
<path id="XMLID_3563_" class="st0" d="M-288.2,136.1c-0.4,0-0.8,0-1.1,0c0.3,0.2,0.7,0.4,1,0.6c-0.1-0.1-0.1-0.3,0-0.4
	C-288.4,136.2-288.3,136.1-288.2,136.1z"/>
<path id="XMLID_3564_" class="st0" d="M-279,86.8L-279,86.8c0-0.6,0-1.3-0.1-2c-1.4-0.7-2.8-1.5-4.2-2.4l0,0.6c0,0.5,0,1,0.1,1.4
	c0.9,0.7,1.7,1.2,2.5,1.6C-280.1,86.4-279.5,86.6-279,86.8z"/>
<path id="XMLID_3566_" class="st0" d="M-283.1,85.8c0,0.7,0.1,1.4,0.1,2.2c0.6,0.5,1.2,0.9,1.8,1.3c0.5,0.3,1.1,0.6,1.6,0.8
	c0.3,0.1,0.7,0.3,1,0.5c-0.1-0.7-0.2-1.4-0.2-2.3C-280.1,87.8-281.5,87-283.1,85.8z"/>
<path id="XMLID_3567_" class="st0" d="M-282.9,90.6l3,2c0.3,0.2,0.6,0.4,0.9,0.6c0.3,0.2,0.6,0.4,0.9,0.6c-0.1-0.6-0.2-1.3-0.4-2
	c-1.4-0.3-2.9-1.1-4.5-2.4l0,0.2C-282.9,89.9-282.9,90.3-282.9,90.6z"/>
<path id="XMLID_3568_" class="st0" d="M-282.3,99.8c0.5,1.1,1.5,1.9,2.8,2.3C-280.4,101.4-281.3,100.7-282.3,99.8z"/>
<path id="XMLID_3584_" class="st0" d="M-279.4,121.2c-0.5,0-0.9,0.1-1.4,0.1c0,0-0.1,0-0.1,0c-0.2,0.6-0.5,1.3-0.7,1.9
	c0.5-0.1,1-0.2,1.5-0.2l0.8-0.1c0.2-0.5,0.3-1.1,0.5-1.6L-279.4,121.2z"/>
<path id="XMLID_3587_" class="st0" d="M-280.4,124.5c-0.6,0.1-1.2,0.2-1.8,0.3c-0.2,0.4-0.3,0.8-0.5,1.2c0.5-0.1,1-0.1,1.5-0.2
	l1.1-0.1c0.1-0.4,0.3-0.8,0.4-1.2L-280.4,124.5z"/>
<path id="XMLID_3629_" class="st0" d="M-277.6,40c-1.6-0.9-3.2-1.8-4.7-2.8c-0.6-0.4-1.2-0.7-1.7-1.1c-0.3,0.2-0.6,0.4-0.8,0.7
	c1.9,0.7,4.5,1.8,6.7,3.2C-277.9,40.1-277.8,40.1-277.6,40z"/>
<path id="XMLID_3684_" class="st0" d="M-283.6,43.6c0.2,0.1,0.5,0.2,0.6,0.3c0.5,0.2,1,0.4,1.5,0.6c0.4,0.2,1,0.3,1.4,0.5
	c0-0.5,0.2-0.9,0.2-1.4v-0.6c-2-0.5-3.3-1.3-4.7-2.2l-0.4-0.2l0.1,2.4C-284.6,43.2-284.1,43.4-283.6,43.6z"/>
<path id="XMLID_3685_" class="st0" d="M-285.3,37.9c0,0.1-0.1,0.3-0.1,0.4l0,0.1l0,0.9c0.3,0.1,0.8,0.3,1.1,0.4
	c1.4,0.6,2.2,1.1,4.2,1.9c0,0,0-0.1,0-0.1c0-0.3-0.2-0.5-0.2-0.8c0-0.1-0.1-0.1-0.1-0.2C-281.7,39.9-283.4,39-285.3,37.9z"/>
<path id="XMLID_3692_" class="st0" d="M-282.4,65.9l0.7,0.3c0.3,0.2,0.6,0.3,1,0.5c0.4,0.2,0.8,0.4,1.3,0.6l0-0.9
	c-1.5-0.6-3-1.4-4.6-2.4l0.1,1.1C-283.5,65.3-282.9,65.6-282.4,65.9z"/>
<path id="XMLID_3693_" class="st0" d="M-279.4,68.8c-0.6-0.3-1.2-0.6-1.7-0.9c-0.3-0.2-0.6-0.3-0.9-0.5l-0.8-0.4
	c-0.4-0.2-0.8-0.4-1.2-0.6l0,0.5l0.3,0.2c1.5,0.8,3,1.7,4.3,2.7c0-0.1,0-0.2,0-0.3L-279.4,68.8z"/>
<path id="XMLID_3694_" class="st0" d="M-279.6,64.7l0-0.2c-0.8-0.3-1.6-0.8-2.3-1.3c-0.2-0.1-0.4-0.3-0.6-0.4
	c-0.5-0.3-1.1-0.7-1.7-1.1l0,0.6C-282.6,63.3-281,64-279.6,64.7z"/>
<path id="XMLID_3695_" class="st0" d="M-279.3,71.3C-279.3,71.3-279.3,71.3-279.3,71.3c-1.7-0.8-3.2-1.9-4.6-3l0.1,1.2
	c0.4,0.3,0.8,0.6,1.3,0.9c0.5,0.3,1.1,0.6,1.6,0.8c0.6,0.3,1.1,0.6,1.7,0.9C-279.3,71.9-279.3,71.6-279.3,71.3z"/>
<path id="XMLID_3696_" class="st0" d="M-279.6,73.1c-1.3-0.3-2.7-1-4.1-2.1l0.1,1.7c1.4,1,2.9,1.8,4.5,2.6c0-0.8,0-1.5,0-2.3
	C-279.4,73.1-279.5,73.1-279.6,73.1z"/>
<path id="XMLID_3697_" class="st0" d="M-281.4,50.1c0.4,0.2,0.8,0.4,1.2,0.6c0-0.2,0-0.3,0-0.5l0-0.6c-0.7-0.3-1.4-0.6-2.1-0.9
	c-0.2-0.1-0.5-0.2-0.7-0.4c-0.3-0.1-0.6-0.3-0.9-0.4c-0.3-0.1-0.6-0.3-0.9-0.4l0,0.7C-283.8,48.9-282.6,49.5-281.4,50.1z"/>
<path id="XMLID_3698_" class="st0" d="M-280.2,52.2c-1.4-0.4-2.9-1.3-4.6-2.5l0.1,1.1l0.8,0.4c1.2,0.7,2.5,1.4,3.8,2.1
	c0-0.3,0-0.5,0-0.8L-280.2,52.2z"/>
<path id="XMLID_3699_" class="st0" d="M-283.7,46.7c0.3,0.1,0.5,0.2,0.8,0.3c0.3,0.1,0.6,0.3,0.9,0.4c0.6,0.2,1.2,0.5,1.8,0.8
	c0-0.6,0-1.1,0-1.7l0-0.3c-1.3-0.3-2.6-1-3.7-1.5c-0.2-0.1-0.4-0.2-0.6-0.3c-0.1-0.1-0.3-0.1-0.4-0.2l0.1,1.9
	C-284.6,46.3-284.1,46.5-283.7,46.7z"/>
<path id="XMLID_3700_" class="st0" d="M-281.9,61.8c0.3,0.2,0.6,0.3,0.9,0.5c0.4,0.2,0.9,0.4,1.3,0.7l0-0.9c-1-0.3-2-1-2.9-1.6
	l-0.4-0.3c-0.4-0.3-0.8-0.6-1.3-0.9l0.1,1.2C-283.5,60.9-282.7,61.3-281.9,61.8z"/>
<path id="XMLID_3701_" class="st0" d="M-283.4,55.6c0.4,0.3,0.9,0.5,1.3,0.8c0.5,0.3,1.1,0.6,1.7,0.8c0.1,0.1,0.3,0.1,0.4,0.2
	c0-0.7-0.1-1.4-0.1-2.1l0-0.3c-1.6-0.9-3.1-1.8-4.6-2.7l0.1,2.6C-284.2,55.1-283.8,55.3-283.4,55.6z"/>
<path id="XMLID_3702_" class="st0" d="M-282,59.3c0.4,0.2,0.8,0.4,1.2,0.6c0.4,0.2,0.7,0.4,1.1,0.6l-0.1-1.5
	c-0.7-0.3-1.4-0.7-2.1-1.1l-0.7-0.4c-0.6-0.3-1.2-0.7-1.8-1.1l0.1,1.2C-283.5,58.4-282.8,58.9-282,59.3z"/>
<path id="XMLID_3707_" class="st0" d="M-279.2,78.1l0-1.5c-1.4-0.5-2.8-1.4-4.4-2.7l0.1,2C-281.9,76.7-280.5,77.4-279.2,78.1z"/>
<path id="XMLID_3746_" class="st0" d="M-279.1,119.6l0.9-0.1c0.3-0.9,0.5-1.7,0.8-2.6c-0.6-0.1-1.2-0.3-1.8-0.5
	c-0.3,1-0.7,2.2-1.1,3.4C-279.9,119.7-279.5,119.6-279.1,119.6z"/>
<path id="XMLID_3747_" class="st0" d="M-281.5,127.3c-0.6,0-1.2,0.1-1.8,0.1c-0.6,1.2-1.1,2.3-1.7,3.3c1-0.4,2.1-0.7,3.5-1
	c0.3-0.8,0.6-1.6,0.9-2.4L-281.5,127.3z"/>
<path id="XMLID_3789_" class="st0" d="M-282.4,93.7c0.1,0,0.2,0,0.3,0.1c1.5,0.8,2.9,1.7,4.3,2.5c0,0,0,0,0,0
	c0.1-0.2,0.2-0.3,0.3-0.3c0-0.1,0-0.1,0-0.2l0-0.1c-0.8-0.4-1.5-1-2.2-1.5c-0.3-0.2-0.6-0.5-0.9-0.7l-2.1-1.5c0,0.8,0,1.4,0,2.1
	c0,0,0,0,0,0C-282.7,93.8-282.6,93.7-282.4,93.7z"/>
</svg>
