<?xml version="1.0" encoding="utf-8"?>
<!-- Generator: Adobe Illustrator 16.0.4, SVG Export Plug-In . SVG Version: 6.00 Build 0)  -->
<!DOCTYPE svg PUBLIC "-//W3C//DTD SVG 1.1//EN" "http://www.w3.org/Graphics/SVG/1.1/DTD/svg11.dtd">
<svg version="1.1" id="Warstwa_1" xmlns="http://www.w3.org/2000/svg" xmlns:xlink="http://www.w3.org/1999/xlink" x="0px" y="0px"
	 width="200px" height="150px" viewBox="0 0 200 150" enable-background="new 0 0 200 150" xml:space="preserve">
<path fill="#F3F8FF" stroke="#0000FF" stroke-width="1.5" stroke-linecap="round" stroke-linejoin="round" d="M146.048,117.573
	H53.952c-1.488,0-2.706-1.219-2.706-2.707V50.19c0-1.487,1.218-2.707,2.706-2.707h92.096c1.488,0,2.707,1.22,2.707,2.707v64.676
	C148.755,116.354,147.536,117.573,146.048,117.573z"/>
<path fill="#F3F8FF" stroke="#0000FF" stroke-width="1.5" stroke-linecap="round" stroke-linejoin="round" d="M150.884,121.769
	H48.529c-2.457,0-4.553-1.779-4.95-4.205l-0.729-4.446h47.439l1.814,2.604h13.109l1.96-2.604h49.978l-0.635,3.866
	C156.062,119.744,153.68,121.769,150.884,121.769z"/>
<g id="XMLID_5087_">
	
		<circle fill="none" stroke="#0000FF" stroke-width="1.5" stroke-linecap="round" stroke-linejoin="round" cx="76.738" cy="32.039" r="3.808"/>
	<g id="XMLID_5088_">
		
			<line fill="none" stroke="#0000FF" stroke-width="1.5" stroke-linecap="round" stroke-linejoin="round" x1="32.902" y1="56.06" x2="32.902" y2="63.565"/>
		
			<line fill="none" stroke="#0000FF" stroke-width="1.5" stroke-linecap="round" stroke-linejoin="round" x1="36.657" y1="59.812" x2="29.15" y2="59.812"/>
	</g>
	<polygon fill="none" stroke="#0000FF" stroke-width="1.5" stroke-linecap="round" stroke-linejoin="round" points="163.326,90.405 
		167.088,83.89 170.85,90.405 	"/>
	
		<line fill="none" stroke="#0000FF" stroke-width="1.5" stroke-linecap="round" stroke-linejoin="round" x1="39.184" y1="84.356" x2="27.15" y2="84.356"/>
	
		<line fill="none" stroke="#0000FF" stroke-width="1.5" stroke-linecap="round" stroke-linejoin="round" x1="21.396" y1="84.356" x2="17.15" y2="84.356"/>
	
		<line fill="none" stroke="#0000FF" stroke-width="1.5" stroke-linecap="round" stroke-linejoin="round" x1="160.816" y1="66.522" x2="170.85" y2="66.522"/>
	
		<line fill="none" stroke="#0000FF" stroke-width="1.5" stroke-linecap="round" stroke-linejoin="round" x1="170.85" y1="58.522" x2="182.85" y2="58.522"/>
</g>
<g>
	<g>
		<path fill="#FFFFFF" stroke="#FEC400" stroke-width="1.5" stroke-linecap="round" stroke-linejoin="round" d="M135.055,56.876
			c-1.114-0.195-3.854-0.131-4.595-1.075c-0.712-0.913,0.506-1.78-0.294-2.696c-0.37-0.424-0.958-0.125-1.333-0.462
			c-0.646-0.577-0.412-0.979-0.597-1.751c-0.448-1.882-1.771-3.301-2.907-4.814c-0.822-1.1-2.416-2.534-2.851-3.836
			c-0.521-1.56,0.389-3.553-0.069-5.166c-0.33-1.17-1.342-2.004-2.572-1.998c-1.626,0.01-2.268,1.262-2.897,2.519
			c-1.333,2.661-2.608,5.357-3.913,8.034c-0.805,1.649-2.208,6.614-4.499,6.567c-3.43-0.075-1.47-4.668-2.397-6.338
			c-0.818-1.47-3.955-1.889-5.429-2.28c-1.344-0.355-1.137-0.295-1.961,0.83c-1.204,1.65-2.409,3.296-3.613,4.945
			c-1.666,2.283-3.276,5.734-5.832,7.072c-2.123,1.111-2.289,1.012-2.624,3.34c-0.244,1.687-0.805,4.648,1.998,4.272
			c0.756-0.099,1.297-0.923,2.122-0.534c0.647,0.309,0.45,0.979,0.841,1.369c1.007,1.008,2.576,0.627,3.478-0.4
			c0.766-0.872,1.407-2.44,1.228-3.579c-0.228-1.433-1.038-1.421-0.574-2.721c0.52-1.447,2.586-4.77,4.414-4.022
			c1.523,0.623,1.869,3.277,2.681,4.581c0.22,0.354,0.409,0.978,0.864,0.981c0.466,0.006,0.187-0.932,0.439-1.015
			c0.137-0.048,0.885,1.644,0.879,1.846c-0.031,1.319-1.695,1.426-2.628,2.095c-1.02,0.729-1.989,1.828-2.43,3.023
			c-0.332,0.899-0.257,1.844-0.729,2.736c-1.873,3.551-6.494,2.937-9.879,3.186c-4.154,0.308-8.597,3.388-11.768,5.863
			c-0.927,0.723-1.941,1.426-2.297,2.612c-0.218,0.729,0.047,1.396-0.104,2.077c-0.302,1.37-1.308,2.825-1.896,4.104
			c-1.733-0.818-3.452-1.682-5.204-2.461c-2.075-0.924-3.229-0.356-4.268,1.564c-1.036,1.916-2.315,3.924-3.09,5.958
			c-0.801,2.101,1.02,2.318,2.265,3.665c1.127,1.217,0.95,1.824,2.78,1.704c1.197-0.077,2.107,0.271,3.289,0.3
			c2.022,0.049,3.52-2.462,4.766-3.798c0.734-0.786,1.425-1.569,2.409-2.065c1.457-0.732,1.86-0.457,2.714-1.798
			c0.988-1.558,1.533-1.499,3.425-0.979c1.468,0.405,2.067-0.024,3.38-0.614c3.107-1.396,2.655,1.907,4.431,3.521
			c0.527,0.479,4.123,4.203,4.687,4.021c0.332-0.104-3.212-7.85-2.687-8.806c1.338-2.425,7.885,4.274,8.215,5.969
			c0.133,0.664-0.131,1.492,0.086,2.132c0.201,0.59,0.898,1.262,1.253,1.763c0.824,1.16,1.708,3.164,2.916,3.964
			c2.006,1.33,3.419-2.077,2.734-3.591c-0.648-1.441-3.063-2.757-0.444-3.668c1.379-0.478,3.402-0.469,4.562-1.442
			c1.313-1.104,0.42-1.533-0.1-2.68c-0.728-1.604,0.523-3.624,1.093-5.137c0.696-1.837,0.958-3.136,3-1.894
			c2.543,1.544,3.036,0.043,5.298-0.669c2.221-0.701,5.139,1.666,7.502,1.812c1.576,0.099,3.358-0.359,4.927-0.528
			c1.541-0.165,3.519-0.037,4.994-0.533c0.892-0.303,1.636-1.065,0.922-1.996c-0.567-0.738-2.002-0.702-2.82-0.93
			c-2.988-0.83-4.632-3.186-3.694-6.288c0.425-1.398,1.58-2.854,1.034-4.128c-0.654-1.52-2.531-3.047-3.604-4.34
			c1.404-1.141,2.777-2.351,4.226-3.438c0.375-0.278,1.001-0.593,1.315-0.901C136.578,58.994,136.812,57.181,135.055,56.876z"/>
		<path fill="#FFFFFF" stroke="#FEC400" stroke-width="1.5" stroke-linecap="round" stroke-linejoin="round" d="M72.089,72.984
			c3.734,0,9.693,0.797,8.661-4.918c-0.32-1.786-1.328-3.746-1.366-5.556c-0.024-1.366,1.366-3.582,0.139-4.752
			c-1.143-1.093-4.822-1.143-5.316,0.561c-0.492,1.693,0.685,3.514,0.136,5.319c-0.506,1.671-1.395,3.304-2.076,4.917
			C71.915,69.384,69.816,72.984,72.089,72.984z"/>
	</g>
	<g>
		<path fill="#FFFFFF" stroke="#FEC400" stroke-width="1.5" stroke-linecap="round" stroke-linejoin="round" d="M113.346,65.813
			c0,4.017-7.167,15.508-7.273,15.723c-0.106,0.214-7.271-11.706-7.271-15.723c0-4.016,3.256-7.271,7.271-7.271
			C110.089,58.542,113.346,61.798,113.346,65.813z"/>
		
			<circle fill="#FFFFFF" stroke="#FEC400" stroke-width="1.5" stroke-linecap="round" stroke-linejoin="round" cx="106.073" cy="65.813" r="3.208"/>
	</g>
</g>
</svg>
