<?xml version="1.0" encoding="utf-8"?>
<!-- Generator: Adobe Illustrator 16.0.4, SVG Export Plug-In . SVG Version: 6.00 Build 0)  -->
<!DOCTYPE svg PUBLIC "-//W3C//DTD SVG 1.1//EN" "http://www.w3.org/Graphics/SVG/1.1/DTD/svg11.dtd">
<svg version="1.1" id="Warstwa_1" xmlns="http://www.w3.org/2000/svg" xmlns:xlink="http://www.w3.org/1999/xlink" x="0px" y="0px"
	 width="300px" height="300px" viewBox="0 0 300 300" enable-background="new 0 0 300 300" xml:space="preserve">
<g>
	<path fill="#F3F8FF" stroke="#0000FF" stroke-width="1.5" stroke-linecap="round" stroke-linejoin="round" d="M239.021,173.443
		h-38.215c-0.152,0-30,56.195-30,56.195h86.165v-42.283C256.973,179.672,248.938,173.443,239.021,173.443z"/>
	<path fill="#F3F8FF" stroke="#0000FF" stroke-width="1.5" stroke-linecap="round" stroke-linejoin="round" d="M185.307,219.018
		L185.307,219.018c0-8.244,6.685-14.928,14.928-14.928h30.646c8.243,0,14.928,6.684,14.928,14.928l0,0"/>
	<path fill="#FFFFFF" stroke="#0000FF" stroke-width="1.5" stroke-linecap="round" stroke-linejoin="round" d="M201.807,216.232
		c0,4.498-3.646,8.144-8.143,8.144h-16.715c-4.498,0-8.145-3.646-8.145-8.144l0,0c0-4.498,3.646-8.144,8.145-8.144h16.715
		C198.16,208.09,201.807,211.734,201.807,216.232L201.807,216.232z"/>
	<g>
		<path fill="#F3F8FF" stroke="#0000FF" stroke-width="1.5" stroke-linecap="round" stroke-linejoin="round" d="M174.738,219.949
			v-86.541c0-2.281-1.535-4.131-3.432-4.131H68.651c-1.896,0-3.431,1.85-3.431,4.131v86.541H174.738z"/>
	</g>
	<g>
		
			<line fill="none" stroke="#0000FF" stroke-width="1.5" stroke-linecap="round" stroke-linejoin="round" x1="29.819" y1="229.639" x2="71.819" y2="229.639"/>
		
			<line fill="none" stroke="#0000FF" stroke-width="1.5" stroke-linecap="round" stroke-linejoin="round" x1="208.309" y1="229.639" x2="269.804" y2="229.639"/>
	</g>
	<g>
		<rect x="36.196" y="110.562" fill="#FEC400" width="68.615" height="81.997"/>
		<rect x="36.196" y="110.562" fill="#FEC400" width="68.615" height="8.76"/>
	</g>
	<g>
		<g>
			
				<line fill="none" stroke="#FFFFFF" stroke-width="1.5" stroke-linecap="round" stroke-linejoin="round" x1="48.229" y1="142.377" x2="93.493" y2="142.377"/>
			
				<line fill="none" stroke="#FFFFFF" stroke-width="1.5" stroke-linecap="round" stroke-linejoin="round" x1="48.229" y1="150.882" x2="88.272" y2="150.882"/>
			
				<line fill="none" stroke="#FFFFFF" stroke-width="1.5" stroke-linecap="round" stroke-linejoin="round" x1="48.229" y1="155.418" x2="93.493" y2="155.418"/>
			
				<line fill="none" stroke="#FFFFFF" stroke-width="1.5" stroke-linecap="round" stroke-linejoin="round" x1="48.229" y1="159.953" x2="87.62" y2="159.953"/>
			
				<line fill="none" stroke="#FFFFFF" stroke-width="1.5" stroke-linecap="round" stroke-linejoin="round" x1="56.712" y1="171.859" x2="90.883" y2="171.859"/>
			
				<line fill="none" stroke="#FFFFFF" stroke-width="1.5" stroke-linecap="round" stroke-linejoin="round" x1="56.712" y1="176.396" x2="90.883" y2="176.396"/>
			
				<line fill="none" stroke="#FFFFFF" stroke-width="1.5" stroke-linecap="round" stroke-linejoin="round" x1="56.712" y1="180.932" x2="90.883" y2="180.932"/>
			
				<line fill="none" stroke="#FFFFFF" stroke-width="1.5" stroke-linecap="round" stroke-linejoin="round" x1="47.515" y1="171.859" x2="51.553" y2="171.859"/>
			
				<line fill="none" stroke="#FFFFFF" stroke-width="1.5" stroke-linecap="round" stroke-linejoin="round" x1="47.515" y1="176.396" x2="51.553" y2="176.396"/>
			
				<line fill="none" stroke="#FFFFFF" stroke-width="1.5" stroke-linecap="round" stroke-linejoin="round" x1="47.515" y1="180.932" x2="51.553" y2="180.932"/>
		</g>
		
			<line fill="none" stroke="#FFFFFF" stroke-width="1.5" stroke-linecap="round" stroke-linejoin="round" x1="58.448" y1="123.709" x2="82.559" y2="123.709"/>
		
			<line fill="none" stroke="#FFFFFF" stroke-width="1.5" stroke-linecap="round" stroke-linejoin="round" x1="61.84" y1="129.088" x2="79.167" y2="129.088"/>
	</g>
	
		<circle fill="#FFFFFF" stroke="#0000FF" stroke-width="1.5" stroke-linecap="round" stroke-linejoin="round" cx="101.552" cy="111.526" r="13.749"/>
	<polyline fill="none" stroke="#0000FF" stroke-width="1.5" stroke-linecap="round" stroke-linejoin="round" points="
		96.229,111.854 99.13,114.756 107.835,106.051 	"/>
	<g>
		<path fill="none" stroke="#0000FF" stroke-width="1.5" stroke-linecap="round" stroke-linejoin="round" d="M169.807,97.145
			c0-1.059-0.86-1.92-1.924-1.92H142.18c-1.06,0-1.921,0.861-1.921,1.92v16.816c0,1.064,0.861,1.924,1.921,1.924h25.703
			c1.062,0,1.924-0.859,1.924-1.924V97.145z"/>
		<path fill="none" stroke="#0000FF" stroke-width="1.5" stroke-linecap="round" stroke-linejoin="round" d="M159.643,105.693
			l10.033,8.949c-0.272,0.723-0.973,1.242-1.793,1.242H142.18c-0.819,0-1.517-0.52-1.79-1.242l10.144-9.047"/>
		<path fill="none" stroke="#0000FF" stroke-width="1.5" stroke-linecap="round" stroke-linejoin="round" d="M169.676,96.467
			l-14.645,13.059l-14.644-13.059c0.272-0.723,0.97-1.242,1.79-1.242h25.703C168.703,95.225,169.402,95.744,169.676,96.467z"/>
		<path fill="none" stroke="#0000FF" stroke-width="1.5" stroke-linecap="round" stroke-linejoin="round" d="M135.472,66.479
			c0-1.061-0.861-1.922-1.923-1.922h-25.703c-1.06,0-1.921,0.861-1.921,1.922v16.814c0,1.064,0.861,1.924,1.921,1.924h25.703
			c1.062,0,1.923-0.859,1.923-1.924V66.479z"/>
		<path fill="none" stroke="#0000FF" stroke-width="1.5" stroke-linecap="round" stroke-linejoin="round" d="M125.309,75.025
			l10.033,8.949c-0.274,0.723-0.972,1.242-1.793,1.242h-25.703c-0.819,0-1.517-0.52-1.79-1.242l10.145-9.047"/>
		<path fill="none" stroke="#0000FF" stroke-width="1.5" stroke-linecap="round" stroke-linejoin="round" d="M135.342,65.801
			l-14.646,13.057l-14.642-13.057c0.272-0.725,0.97-1.244,1.79-1.244h25.703C134.37,64.557,135.067,65.076,135.342,65.801z"/>
		
			<line fill="none" stroke="#0000FF" stroke-width="1.5" stroke-linecap="round" stroke-linejoin="round" x1="158.699" y1="91.221" x2="158.699" y2="77.221"/>
		
			<line fill="none" stroke="#0000FF" stroke-width="1.5" stroke-linecap="round" stroke-linejoin="round" x1="154.031" y1="87.387" x2="154.031" y2="83.055"/>
		
			<line fill="none" stroke="#0000FF" stroke-width="1.5" stroke-linecap="round" stroke-linejoin="round" x1="154.031" y1="78.553" x2="154.031" y2="69.887"/>
		
			<line fill="none" stroke="#0000FF" stroke-width="1.5" stroke-linecap="round" stroke-linejoin="round" x1="149.365" y1="91.221" x2="149.365" y2="77.221"/>
		
			<line fill="none" stroke="#0000FF" stroke-width="1.5" stroke-linecap="round" stroke-linejoin="round" x1="125.366" y1="60.887" x2="125.366" y2="49.207"/>
		
			<line fill="none" stroke="#0000FF" stroke-width="1.5" stroke-linecap="round" stroke-linejoin="round" x1="120.698" y1="43.555" x2="120.698" y2="47.887"/>
		
			<line fill="none" stroke="#0000FF" stroke-width="1.5" stroke-linecap="round" stroke-linejoin="round" x1="120.698" y1="52.221" x2="120.698" y2="60.887"/>
		
			<line fill="none" stroke="#0000FF" stroke-width="1.5" stroke-linecap="round" stroke-linejoin="round" x1="116.032" y1="60.887" x2="116.032" y2="46.887"/>
	</g>
	<g>
		<path fill="#F3F8FF" stroke="#0000FF" stroke-width="1.5" stroke-linecap="round" stroke-linejoin="round" d="M221.686,82.148
			V71.033h-4.597h-12.103h-7.312c-8.075,0-14.616,6.547-14.616,14.619v11.116h4.598h12.103h7.31
			C215.145,96.77,221.686,90.223,221.686,82.148z"/>
		<path fill="#FFFFFF" stroke="#0000FF" stroke-width="1.5" stroke-linecap="round" stroke-linejoin="round" d="M244.686,149.613
			c0,7.18-5.819,13-13,13h-29.5c-7.18,0-13-5.82-13-13v-59c0-7.181,5.82-13,13-13h29.5c7.181,0,13,5.819,13,13V149.613z"/>
		<path fill="#FFFFFF" stroke="#0000FF" stroke-width="1.5" stroke-linecap="round" stroke-linejoin="round" d="M179.013,111.834
			v3.75c0,5.342,4.331,9.674,9.673,9.674c5.345,0,9.672-4.332,9.672-9.674v-3.75H179.013z"/>
		<path fill="#FFFFFF" stroke="#0000FF" stroke-width="1.5" stroke-linecap="round" stroke-linejoin="round" d="M203.711,111.834
			v3.75c0,5.342,4.33,9.674,9.673,9.674s9.671-4.332,9.671-9.674v-3.75H203.711z"/>
		
			<line fill="none" stroke="#0000FF" stroke-width="1.5" stroke-linecap="round" stroke-linejoin="round" x1="188.173" y1="117.07" x2="184.602" y2="117.07"/>
		
			<line fill="none" stroke="#0000FF" stroke-width="1.5" stroke-linecap="round" stroke-linejoin="round" x1="213.154" y1="117.07" x2="209.744" y2="117.07"/>
		
			<line fill="none" stroke="#0000FF" stroke-width="1.5" stroke-linecap="round" stroke-linejoin="round" x1="196.191" y1="111.834" x2="238.904" y2="111.834"/>
		<path fill="#FFFFFF" stroke="#0000FF" stroke-width="1.5" stroke-linecap="round" stroke-linejoin="round" d="M198.357,111.834
			v23.877c0,1.553,1.258,2.812,2.812,2.812h5.154c1.551,0,2.812-1.261,2.812-2.812v-1.408"/>
		<path fill="#F3F8FF" stroke="#0000FF" stroke-width="1.5" stroke-linecap="round" stroke-linejoin="round" d="M222.615,71.033
			c5.113,0,9.609,2.635,12.225,6.613h5.018c6.257,0,11.33,5.069,11.33,11.329v28.699l-7.973,0.869v-12.961
			c0-4.402-3.572-7.972-7.975-7.972h-4.65h-12.104h-7.311c-8.074,0-14.617-6.547-14.617-14.621V71.033H222.615z"/>
		<path fill="#FFFFFF" stroke="#0000FF" stroke-width="1.5" stroke-linecap="round" stroke-linejoin="round" d="M240.701,124.232
			c0-3.83,3.104-6.934,6.935-6.934h0.579c3.828,0,6.938,3.104,6.938,6.934v8.422c0,3.83-3.108,6.937-6.938,6.937h-0.579
			c-2.836,0-5.271-1.699-6.347-4.135"/>
		<path fill="#FFFFFF" stroke="#0000FF" stroke-width="1.5" stroke-linecap="round" stroke-linejoin="round" d="M203.686,153.613
			h11.5c2.763,0,5-2.238,5-5"/>
	</g>
	
		<rect x="210.701" y="162.613" fill="#FFFFFF" stroke="#0000FF" stroke-width="1.5" stroke-linecap="round" stroke-linejoin="round" width="16.359" height="10.83"/>
	<path fill="#F3F8FF" stroke="#0000FF" stroke-width="1.5" stroke-linecap="round" stroke-linejoin="round" d="M65.231,219.949
		v6.688c0,1.657,1.344,3,3,3h147.884c1.656,0,3-1.343,3-3v-6.688H65.231z"/>
	
		<circle fill="#F3F8FF" stroke="#0000FF" stroke-width="1.5" stroke-linecap="round" stroke-linejoin="round" cx="119.979" cy="174.613" r="6.689"/>
	
		<line fill="none" stroke="#0000FF" stroke-width="1.5" stroke-linecap="round" stroke-linejoin="round" x1="271.27" y1="176.534" x2="281.303" y2="176.534"/>
	
		<line fill="none" stroke="#0000FF" stroke-width="1.5" stroke-linecap="round" stroke-linejoin="round" x1="261.982" y1="160.534" x2="273.982" y2="160.534"/>
	<g>
		
			<line fill="none" stroke="#0000FF" stroke-width="1.5" stroke-linecap="round" stroke-linejoin="round" x1="21.897" y1="229.639" x2="5.228" y2="229.639"/>
		
			<line fill="none" stroke="#0000FF" stroke-width="1.5" stroke-linecap="round" stroke-linejoin="round" x1="294.771" y1="229.639" x2="253.169" y2="229.639"/>
	</g>
</g>
</svg>
