<?xml version="1.0" encoding="utf-8"?>
<!-- Generator: Adobe Illustrator 16.0.4, SVG Export Plug-In . SVG Version: 6.00 Build 0)  -->
<!DOCTYPE svg PUBLIC "-//W3C//DTD SVG 1.1//EN" "http://www.w3.org/Graphics/SVG/1.1/DTD/svg11.dtd">
<svg version="1.1" id="Warstwa_1" xmlns="http://www.w3.org/2000/svg" xmlns:xlink="http://www.w3.org/1999/xlink" x="0px" y="0px"
	 width="300px" height="300px" viewBox="0 0 300 300" enable-background="new 0 0 300 300" xml:space="preserve">
<line fill="none" stroke="#0000FF" stroke-width="1.5" stroke-linecap="round" stroke-linejoin="round" x1="28.008" y1="229.639" x2="267.992" y2="229.639"/>
<g>
	<path fill="#FFFFFF" stroke="#0000FF" stroke-width="1.5" stroke-linecap="round" stroke-linejoin="round" d="M238.823,217.477
		c0,3.07-2.49,5.562-5.564,5.562H66.76c-3.075,0-5.563-2.49-5.563-5.562V103.53c0-3.073,2.488-5.566,5.563-5.566h166.499
		c3.074,0,5.564,2.493,5.564,5.566V217.477z"/>
</g>
<g>
	<path fill="#FFFFFF" stroke="#0000FF" stroke-width="1.5" stroke-linecap="round" stroke-linejoin="round" d="M238.823,217.477
		c0,3.07-2.49,5.562-5.564,5.562H66.76c-3.075,0-5.563-2.49-5.563-5.562V103.53c0-3.073,2.488-5.566,5.563-5.566h166.499
		c3.074,0,5.564,2.493,5.564,5.566V217.477z"/>
</g>
<g>
	<path fill="#F3F8FF" stroke="#0000FF" stroke-width="1.5" stroke-linecap="round" stroke-linejoin="round" d="M238.823,217.477
		c0,3.07-2.49,5.562-5.564,5.562H66.76c-3.075,0-5.563-2.49-5.563-5.562V103.53c0-3.073,2.488-5.566,5.563-5.566h166.499
		c3.074,0,5.564,2.493,5.564,5.566V217.477z"/>
</g>
<path fill="#F3F8FF" stroke="#0000FF" stroke-width="1.5" stroke-linecap="round" stroke-linejoin="round" d="M49.127,216.98v8.699
	c0,2.154,1.75,3.901,3.902,3.901h193.96c2.155,0,3.901-1.747,3.901-3.901v-8.699H49.127z"/>
<g>
	<g>
		<g>
			
				<rect x="38.439" y="111.46" fill="#FFFFFF" stroke="#0000FF" stroke-width="1.5" stroke-linecap="round" stroke-linejoin="round" width="109.606" height="25.519"/>
		</g>
		
			<line fill="none" stroke="#0000FF" stroke-width="1.5" stroke-linecap="round" stroke-linejoin="round" x1="43.572" y1="116.798" x2="78.872" y2="116.798"/>
		
			<line fill="none" stroke="#0000FF" stroke-width="1.5" stroke-linecap="round" stroke-linejoin="round" x1="43.572" y1="121.646" x2="63.838" y2="121.646"/>
		
			<line fill="none" stroke="#0000FF" stroke-width="1.5" stroke-linecap="round" stroke-linejoin="round" x1="43.572" y1="131.178" x2="51.869" y2="131.178"/>
	</g>
	<g>
		<g>
			
				<rect x="38.439" y="145.668" fill="#FFFFFF" stroke="#0000FF" stroke-width="1.5" stroke-linecap="round" stroke-linejoin="round" width="109.606" height="25.52"/>
		</g>
		
			<line fill="none" stroke="#0000FF" stroke-width="1.5" stroke-linecap="round" stroke-linejoin="round" x1="43.572" y1="151.006" x2="78.872" y2="151.006"/>
		
			<line fill="none" stroke="#0000FF" stroke-width="1.5" stroke-linecap="round" stroke-linejoin="round" x1="43.572" y1="155.854" x2="63.838" y2="155.854"/>
		
			<line fill="none" stroke="#0000FF" stroke-width="1.5" stroke-linecap="round" stroke-linejoin="round" x1="43.572" y1="165.385" x2="51.869" y2="165.385"/>
	</g>
</g>
<g>
	<g>
		
			<rect x="38.439" y="179.874" fill="#FFFFFF" stroke="#0000FF" stroke-width="1.5" stroke-linecap="round" stroke-linejoin="round" width="109.606" height="25.521"/>
	</g>
	
		<line fill="none" stroke="#0000FF" stroke-width="1.5" stroke-linecap="round" stroke-linejoin="round" x1="43.572" y1="185.213" x2="78.872" y2="185.213"/>
	
		<line fill="none" stroke="#0000FF" stroke-width="1.5" stroke-linecap="round" stroke-linejoin="round" x1="43.572" y1="190.061" x2="63.838" y2="190.061"/>
	
		<line fill="none" stroke="#0000FF" stroke-width="1.5" stroke-linecap="round" stroke-linejoin="round" x1="43.572" y1="199.593" x2="51.869" y2="199.593"/>
</g>
<g>
	<polyline fill="#FFFFFF" stroke="#0000FF" stroke-width="1.5" stroke-linecap="round" stroke-linejoin="round" points="
		259.814,116.549 259.814,121.7 248.193,121.7 248.193,110.078 254.583,110.078 	"/>
	<polyline fill="#FFFFFF" stroke="#0000FF" stroke-width="1.5" stroke-linecap="round" stroke-linejoin="round" points="
		251.941,113.909 254.583,116.549 261.268,109.947 	"/>
	<polyline fill="#FFFFFF" stroke="#0000FF" stroke-width="1.5" stroke-linecap="round" stroke-linejoin="round" points="
		259.814,136.357 259.814,141.508 248.193,141.508 248.193,129.888 254.583,129.888 	"/>
	<polyline fill="#FFFFFF" stroke="#0000FF" stroke-width="1.5" stroke-linecap="round" stroke-linejoin="round" points="
		251.941,133.717 254.583,136.357 261.268,129.755 	"/>
	<polyline fill="#FFFFFF" stroke="#0000FF" stroke-width="1.5" stroke-linecap="round" stroke-linejoin="round" points="
		259.814,156.166 259.814,161.316 248.193,161.316 248.193,149.695 254.583,149.695 	"/>
	<polyline fill="#FFFFFF" stroke="#0000FF" stroke-width="1.5" stroke-linecap="round" stroke-linejoin="round" points="
		251.941,153.525 254.583,156.166 261.268,149.564 	"/>
</g>
<path fill="#FEC400" d="M218.553,159.688c0,1.896-1.408,3.436-3.145,3.436H99.094c-1.738,0-3.146-1.538-3.146-3.436V122.96
	c0-1.899,1.408-3.436,3.146-3.436h116.314c1.736,0,3.145,1.536,3.145,3.436V159.688z"/>
<g>
	<path fill="#FEC400" d="M172.771,140.33c0.549,8.488-5.887,15.814-14.375,16.363c-8.486,0.549-15.812-5.889-16.359-14.375
		c-0.549-8.491,5.886-15.816,14.371-16.365C164.898,125.404,172.223,131.84,172.771,140.33z"/>
	
		<path fill="none" stroke="#FFFFFF" stroke-width="1.5" stroke-linecap="round" stroke-linejoin="round" stroke-dasharray="3.0232,5.0387" d="
		M172.771,140.33c0.549,8.488-5.887,15.814-14.375,16.363c-8.486,0.549-15.812-5.889-16.359-14.375
		c-0.549-8.491,5.886-15.816,14.371-16.365C164.898,125.404,172.223,131.84,172.771,140.33z"/>
</g>
<g>
	<g id="XMLID_392_">
		<path fill="#FFFFFF" stroke="#0000FF" stroke-width="1.5" stroke-linecap="round" stroke-linejoin="round" d="M197.486,134.81
			c-2.17,2.17-2.17,5.72,0.004,7.886l-4.143-4.138c-2.164-2.171-5.718-2.171-7.885,0c-2.168,2.171-2.168,5.724,0,7.89l-4.146-4.143
			c-2.164-2.168-5.711-2.168-7.883,0c-2.166,2.169-2.166,5.727,0,7.891L160.9,137.66c-2.168-2.166-5.715-2.166-7.883,0
			c-2.172,2.169-2.172,5.718,0,7.885l24.825,24.833l-5.563,5.558c-1.473,1.479-1.473,3.864,0,5.334l17.561,17.558
			c1.408,1.412,3.508,1.872,5.383,1.182l4.728-1.735c1.873-0.694,3.97-0.229,5.382,1.175l7.598,7.604l26.242-26.238l-8.578-8.58
			c-0.854-0.854-1.328-2.018-1.313-3.226l0.09-7.94c0.012-1.433-0.554-2.812-1.565-3.832l-22.431-22.424
			C203.209,132.641,199.661,132.641,197.486,134.81z"/>
	</g>
	<g id="XMLID_391_">
		
			<rect x="206.488" y="186.758" transform="matrix(-0.7071 0.7071 -0.7071 -0.7071 533.0852 175.4024)" fill="#F3F8FF" stroke="#0000FF" stroke-width="1.5" stroke-linecap="round" stroke-linejoin="round" width="47.457" height="22.694"/>
	</g>
</g>
<g>
	<path fill="#FFFFFF" stroke="#0000FF" stroke-width="1.5" stroke-linecap="round" stroke-linejoin="round" d="M189.332,90.049
		c0-1.064-0.864-1.931-1.932-1.931h-25.838c-1.064,0-1.931,0.866-1.931,1.931v16.904c0,1.069,0.865,1.934,1.931,1.934H187.4
		c1.066,0,1.932-0.864,1.932-1.934V90.049z"/>
	<path fill="#FFFFFF" stroke="#0000FF" stroke-width="1.5" stroke-linecap="round" stroke-linejoin="round" d="M179.117,98.642
		l10.084,8.995c-0.274,0.727-0.977,1.25-1.801,1.25h-25.838c-0.823,0-1.522-0.523-1.799-1.25l10.196-9.094"/>
	<path fill="#FFFFFF" stroke="#0000FF" stroke-width="1.5" stroke-linecap="round" stroke-linejoin="round" d="M189.201,89.367
		l-14.719,13.126l-14.719-13.126c0.275-0.726,0.976-1.249,1.799-1.249H187.4C188.225,88.118,188.927,88.642,189.201,89.367z"/>
	
		<line fill="#FFFFFF" stroke="#0000FF" stroke-width="1.5" stroke-linecap="round" stroke-linejoin="round" x1="178.168" y1="84.094" x2="178.168" y2="70.022"/>
	
		<line fill="#FFFFFF" stroke="#0000FF" stroke-width="1.5" stroke-linecap="round" stroke-linejoin="round" x1="173.477" y1="80.241" x2="173.477" y2="75.887"/>
	
		<line fill="#FFFFFF" stroke="#0000FF" stroke-width="1.5" stroke-linecap="round" stroke-linejoin="round" x1="173.477" y1="71.361" x2="173.477" y2="62.649"/>
	
		<line fill="#FFFFFF" stroke="#0000FF" stroke-width="1.5" stroke-linecap="round" stroke-linejoin="round" x1="168.785" y1="84.094" x2="168.785" y2="70.022"/>
</g>
<g>
	<path fill="#FFFFFF" stroke="#0000FF" stroke-width="1.5" stroke-linecap="round" stroke-linejoin="round" d="M136.766,66.598
		c0-1.064-0.865-1.932-1.932-1.932h-25.837c-1.065,0-1.932,0.867-1.932,1.932v16.9c0,1.07,0.866,1.936,1.932,1.936h25.837
		c1.066,0,1.932-0.865,1.932-1.936V66.598z"/>
	<path fill="#FFFFFF" stroke="#0000FF" stroke-width="1.5" stroke-linecap="round" stroke-linejoin="round" d="M126.551,75.189
		l10.085,8.996c-0.276,0.727-0.977,1.248-1.802,1.248h-25.837c-0.823,0-1.524-0.521-1.799-1.248l10.196-9.094"/>
	<path fill="#FFFFFF" stroke="#0000FF" stroke-width="1.5" stroke-linecap="round" stroke-linejoin="round" d="M136.636,65.918
		l-14.721,13.123l-14.717-13.123c0.274-0.73,0.976-1.252,1.799-1.252h25.837C135.659,64.666,136.359,65.188,136.636,65.918z"/>
	
		<line fill="#FFFFFF" stroke="#0000FF" stroke-width="1.5" stroke-linecap="round" stroke-linejoin="round" x1="126.608" y1="60.977" x2="126.608" y2="49.238"/>
	
		<line fill="#FFFFFF" stroke="#0000FF" stroke-width="1.5" stroke-linecap="round" stroke-linejoin="round" x1="121.917" y1="43.555" x2="121.917" y2="47.908"/>
	
		<line fill="#FFFFFF" stroke="#0000FF" stroke-width="1.5" stroke-linecap="round" stroke-linejoin="round" x1="121.917" y1="52.266" x2="121.917" y2="60.977"/>
	
		<line fill="#FFFFFF" stroke="#0000FF" stroke-width="1.5" stroke-linecap="round" stroke-linejoin="round" x1="117.226" y1="60.977" x2="117.226" y2="46.904"/>
</g>
<line fill="none" stroke="#0000FF" stroke-width="1.5" stroke-linecap="round" stroke-linejoin="round" x1="210.812" y1="105.264" x2="213.285" y2="105.264"/>
<line fill="none" stroke="#0000FF" stroke-width="1.5" stroke-linecap="round" stroke-linejoin="round" x1="218.553" y1="105.264" x2="221.025" y2="105.264"/>
<line fill="none" stroke="#0000FF" stroke-width="1.5" stroke-linecap="round" stroke-linejoin="round" x1="226.294" y1="105.264" x2="228.766" y2="105.264"/>
<line fill="none" stroke="#0000FF" stroke-width="1.5" stroke-linecap="round" stroke-linejoin="round" x1="229.177" y1="78.354" x2="239.21" y2="78.354"/>
<line fill="none" stroke="#0000FF" stroke-width="1.5" stroke-linecap="round" stroke-linejoin="round" x1="216.891" y1="62.354" x2="228.891" y2="62.354"/>
<g>
	
		<line fill="none" stroke="#0000FF" stroke-width="1.5" stroke-linecap="round" stroke-linejoin="round" x1="21.897" y1="229.639" x2="5.228" y2="229.639"/>
	
		<line fill="none" stroke="#0000FF" stroke-width="1.5" stroke-linecap="round" stroke-linejoin="round" x1="294.771" y1="229.639" x2="253.169" y2="229.639"/>
</g>
</svg>
