<?xml version="1.0" encoding="utf-8"?>
<!-- Generator: Adobe Illustrator 16.0.4, SVG Export Plug-In . SVG Version: 6.00 Build 0)  -->
<!DOCTYPE svg PUBLIC "-//W3C//DTD SVG 1.1//EN" "http://www.w3.org/Graphics/SVG/1.1/DTD/svg11.dtd">
<svg version="1.1" id="Warstwa_1" xmlns="http://www.w3.org/2000/svg" xmlns:xlink="http://www.w3.org/1999/xlink" x="0px" y="0px"
	 width="200px" height="50px" viewBox="0 0 200 50" enable-background="new 0 0 200 50" xml:space="preserve">
<g>
	<g>
		<g>
			<path fill="#FFFFFF" d="M77.958,30.108v-3.017c0-5.014,2.569-7.522,7.708-7.522c2.406,0,4.232,0.604,5.48,1.813
				c1.249,1.209,1.873,2.999,1.873,5.371c0,0.497-0.023,1.005-0.068,1.524c-0.068,0.644-0.22,1.07-0.458,1.279
				c-0.237,0.209-0.677,0.313-1.321,0.313h-9.64v0.771c0,1.28,0.387,2.198,1.161,2.751c0.773,0.555,2.041,0.832,3.803,0.832
				c1.378,0,2.88-0.201,4.506-0.603c0.249-0.062,0.458-0.092,0.627-0.092c0.226,0,0.395,0.046,0.508,0.135
				c0.192,0.181,0.289,0.571,0.289,1.169v0.44c0,0.576-0.091,0.966-0.271,1.169c-0.181,0.204-0.565,0.385-1.152,0.543
				c-1.423,0.372-2.925,0.56-4.506,0.56c-2.925,0-5.08-0.586-6.463-1.755C78.649,34.623,77.958,32.729,77.958,30.108z
				 M81.532,26.957h8.115v-0.864c0-2.293-1.361-3.439-4.083-3.439c-2.688,0-4.032,1.146-4.032,3.439V26.957z"/>
			<path fill="#FFFFFF" d="M95.932,35.241v-0.44c0-0.609,0.09-1,0.27-1.169c0.103-0.091,0.261-0.136,0.476-0.136
				c0.18,0,0.395,0.027,0.644,0.083c1.728,0.43,3.416,0.646,5.065,0.646c1.174,0,2.004-0.106,2.49-0.32
				c0.485-0.214,0.729-0.602,0.729-1.164c0-0.438-0.152-0.795-0.458-1.071c-0.305-0.274-0.892-0.609-1.762-1.003l-3.745-1.653
				c-0.575-0.247-1.056-0.497-1.439-0.75c-0.384-0.253-0.737-0.562-1.059-0.928c-0.322-0.364-0.559-0.796-0.711-1.29
				c-0.153-0.495-0.23-1.074-0.23-1.737c0-1.615,0.529-2.807,1.585-3.579c1.055-0.772,2.735-1.16,5.04-1.16
				c1.434,0,2.778,0.17,4.032,0.509c0.609,0.169,1.005,0.358,1.186,0.567s0.271,0.601,0.271,1.178v0.406
				c0,0.599-0.096,0.983-0.287,1.152c-0.103,0.089-0.261,0.135-0.475,0.135c-0.181,0-0.401-0.033-0.661-0.097
				c-1.355-0.354-2.733-0.53-4.134-0.53c-1.14,0-1.934,0.109-2.38,0.329c-0.446,0.219-0.67,0.582-0.67,1.088
				c0,0.404,0.119,0.733,0.356,0.986c0.238,0.253,0.66,0.515,1.271,0.784l4.032,1.721c0.835,0.349,1.507,0.708,2.016,1.08
				c0.509,0.371,0.917,0.873,1.229,1.509c0.311,0.636,0.466,1.397,0.466,2.284c0,1.688-0.557,2.921-1.668,3.702
				c-1.113,0.78-2.895,1.172-5.346,1.172c-1.671,0-3.253-0.198-4.743-0.594c-0.588-0.158-0.967-0.336-1.135-0.533
				C96.017,36.222,95.932,35.828,95.932,35.241z"/>
			<path fill="#FFFFFF" d="M111.129,22.05v-0.337c0-0.483,0.077-0.817,0.233-1.002c0.156-0.185,0.464-0.324,0.922-0.414l1.825-0.354
				l0.411-3.265c0.068-0.499,0.199-0.833,0.393-1.003c0.193-0.17,0.542-0.256,1.044-0.256h0.462c0.501,0,0.837,0.085,1.009,0.256
				c0.17,0.17,0.257,0.504,0.257,1.003v3.265h4.819c0.583,0,0.971,0.096,1.162,0.286c0.19,0.192,0.285,0.579,0.285,1.164v0.421
				c0,0.596-0.095,0.986-0.285,1.172c-0.191,0.185-0.579,0.277-1.162,0.277h-4.819v7.891c0,1.087,0.23,1.861,0.694,2.325
				c0.463,0.463,1.129,0.695,1.999,0.695c0.981,0,1.92-0.107,2.812-0.322c0.237-0.044,0.441-0.067,0.609-0.067
				c0.238,0.012,0.413,0.062,0.525,0.153c0.182,0.157,0.277,0.536,0.289,1.134v0.424c0,0.587-0.094,0.99-0.279,1.211
				c-0.187,0.221-0.568,0.393-1.145,0.518c-0.938,0.18-1.874,0.271-2.812,0.271c-0.938,0-1.775-0.108-2.513-0.323
				c-0.735-0.215-1.393-0.562-1.968-1.044c-0.577-0.479-1.019-1.142-1.326-1.983c-0.309-0.842-0.462-1.852-0.462-3.028v-7.854
				h-1.793c-0.479,0-0.798-0.081-0.954-0.243C111.206,22.856,111.129,22.533,111.129,22.05z"/>
			<path fill="#FFFFFF" d="M134.617,30.04v-2.981c0-2.429,0.661-4.284,1.982-5.565c1.321-1.282,3.319-1.923,5.997-1.923
				c2.756,0,4.763,0.625,6.021,1.872c1.26,1.248,1.889,3.121,1.889,5.617v2.981c0,2.417-0.654,4.272-1.964,5.565
				c-1.311,1.293-3.292,1.94-5.946,1.94c-2.768,0-4.789-0.628-6.065-1.881C135.255,34.411,134.617,32.536,134.617,30.04z
				 M138.191,30.073c0,1.451,0.308,2.506,0.923,3.164s1.776,0.987,3.482,0.987c0.869,0,1.593-0.085,2.168-0.255
				c0.576-0.171,1.019-0.439,1.329-0.809s0.529-0.795,0.652-1.276c0.125-0.482,0.188-1.086,0.188-1.812v-2.996
				c0-1.464-0.303-2.527-0.907-3.191c-0.604-0.664-1.747-0.995-3.43-0.995c-0.882,0-1.612,0.087-2.194,0.263
				c-0.582,0.175-1.034,0.449-1.355,0.817c-0.321,0.368-0.545,0.796-0.669,1.284c-0.125,0.488-0.187,1.096-0.187,1.821V30.073z"/>
			<path fill="#FEC400" d="M153.084,37.084c-0.287-0.285-0.431-0.628-0.431-1.03c0-0.4,0.144-0.744,0.431-1.029
				s0.633-0.428,1.038-0.428c0.404,0,0.75,0.143,1.038,0.428c0.286,0.285,0.43,0.629,0.43,1.029c0,0.402-0.144,0.745-0.43,1.03
				c-0.288,0.284-0.634,0.427-1.038,0.427C153.717,37.511,153.371,37.368,153.084,37.084z"/>
			<path fill="#FEC400" d="M157.736,32.677v-2.259c0-1.507,0.445-2.691,1.339-3.558c0.892-0.866,2.227-1.3,4.003-1.3
				c0.588,0,1.19,0.076,1.809,0.226c0.384,0.091,0.634,0.21,0.751,0.357c0.116,0.147,0.174,0.416,0.174,0.808v0.294
				c0,0.398-0.067,0.655-0.203,0.769c-0.067,0.061-0.165,0.088-0.294,0.084c-0.128-0.003-0.286-0.031-0.475-0.084
				c-0.496-0.159-1.069-0.238-1.716-0.238c-1.115,0-1.895,0.206-2.339,0.619c-0.443,0.41-0.666,1.098-0.666,2.058v2.179
				c0,0.999,0.244,1.698,0.734,2.099c0.489,0.401,1.303,0.602,2.439,0.602c0.204,0,0.407-0.011,0.61-0.031
				c0.203-0.021,0.356-0.04,0.457-0.058c0.102-0.018,0.239-0.045,0.413-0.083c0.172-0.038,0.271-0.062,0.293-0.07
				c0.151-0.034,0.282-0.051,0.395-0.051c0.167,0.007,0.288,0.041,0.361,0.101c0.121,0.106,0.185,0.351,0.192,0.735v0.282
				c0,0.383-0.063,0.649-0.192,0.796c-0.127,0.146-0.387,0.265-0.778,0.355c-0.693,0.158-1.318,0.238-1.875,0.238
				c-1.853,0-3.221-0.405-4.105-1.215C158.178,35.521,157.736,34.303,157.736,32.677z"/>
			<path fill="#FEC400" d="M167.614,32.541v-1.987c0-1.619,0.439-2.856,1.321-3.71c0.881-0.855,2.214-1.283,3.998-1.283
				c1.837,0,3.176,0.417,4.015,1.249c0.84,0.832,1.261,2.08,1.261,3.744v1.987c0,1.611-0.438,2.849-1.311,3.711
				c-0.874,0.862-2.196,1.294-3.965,1.294c-1.845,0-3.192-0.419-4.043-1.255C168.039,35.456,167.614,34.206,167.614,32.541z
				 M169.997,32.563c0,0.968,0.205,1.671,0.616,2.11c0.41,0.438,1.184,0.657,2.32,0.657c0.58,0,1.062-0.057,1.446-0.17
				c0.384-0.113,0.678-0.293,0.886-0.539c0.207-0.246,0.352-0.529,0.435-0.851c0.084-0.322,0.125-0.725,0.125-1.208v-1.997
				c0-0.977-0.202-1.685-0.604-2.128c-0.403-0.442-1.166-0.663-2.287-0.663c-0.587,0-1.075,0.059-1.462,0.176
				c-0.389,0.117-0.689,0.298-0.904,0.545c-0.215,0.246-0.363,0.53-0.446,0.856c-0.083,0.325-0.124,0.729-0.124,1.214V32.563z"/>
		</g>
		<g>
			<path fill="#FFFFFF" d="M55.706,21.051c0-0.612-0.496-1.108-1.108-1.108h-1.359c-0.612,0-1.108,0.496-1.108,1.108v15.377
				c0,0.612,0.496,1.107,1.108,1.107h1.359c0.612,0,1.108-0.495,1.108-1.107V21.051z"/>
			<path fill="#FFFFFF" d="M131.229,21.051c0-0.612-0.496-1.108-1.108-1.108h-1.357c-0.612,0-1.108,0.496-1.108,1.108v15.334
				c0,0.612,0.496,1.109,1.108,1.109h1.357c0.612,0,1.108-0.497,1.108-1.109V21.051z"/>
		</g>
		<line fill="#FEC400" x1="186.862" y1="30.139" x2="186.862" y2="30.807"/>
		<g>
			<path fill="#FFFFFF" d="M53.935,16.826c0.61,0,1.126-0.212,1.55-0.635c0.423-0.423,0.635-0.94,0.635-1.55
				c0-0.599-0.212-1.112-0.635-1.541c-0.424-0.43-0.94-0.645-1.55-0.645s-1.132,0.212-1.567,0.635
				c-0.435,0.424-0.652,0.941-0.652,1.55c0,0.61,0.217,1.127,0.652,1.55S53.325,16.826,53.935,16.826z"/>
			<path fill="#FFFFFF" d="M72.778,21.256c-1.194-1.124-3.11-1.687-5.748-1.687c-2.553,0-4.45,0.577-5.692,1.729
				c-1.243,1.152-1.863,2.818-1.863,4.999v10.132c0,0.612,0.496,1.107,1.107,1.107h1.359c0.612,0,1.107-0.495,1.107-1.107V26.297
				c0-0.781,0.102-1.404,0.305-1.873c0.203-0.468,0.602-0.841,1.194-1.118c0.593-0.277,1.42-0.415,2.482-0.415
				c0.813,0,1.482,0.071,2.007,0.211c0.525,0.141,0.929,0.367,1.211,0.678c0.282,0.31,0.477,0.66,0.584,1.05
				c0.107,0.39,0.161,0.879,0.161,1.467v10.132c0,0.612,0.496,1.107,1.108,1.107h1.359c0.612,0,1.108-0.495,1.108-1.107V26.297
				C74.569,24.06,73.972,22.379,72.778,21.256z"/>
			<path fill="#FFFFFF" d="M129.458,16.826c0.609,0,1.127-0.212,1.552-0.635c0.422-0.423,0.634-0.94,0.634-1.55
				c0-0.599-0.212-1.112-0.634-1.541c-0.425-0.43-0.942-0.645-1.552-0.645s-1.132,0.212-1.566,0.635
				c-0.435,0.424-0.652,0.941-0.652,1.55c0,0.61,0.218,1.127,0.652,1.55S128.849,16.826,129.458,16.826z"/>
			<path fill="#FEC400" d="M195.188,26.691c-0.742-0.753-1.926-1.131-3.552-1.131c-1.679,0-2.835,0.562-3.467,1.684
				c-0.61-1.122-1.771-1.684-3.479-1.684c-1.581,0-2.758,0.384-3.529,1.153c-0.772,0.768-1.158,1.879-1.158,3.332V36.8
				c0,0.409,0.332,0.74,0.739,0.74h0.905c0.408,0,0.738-0.331,0.738-0.74v-6.754c0-0.791,0.16-1.367,0.48-1.729
				s0.929-0.542,1.824-0.542s1.503,0.181,1.818,0.542c0.316,0.361,0.474,0.938,0.474,1.729V36.8c0,0.409,0.331,0.74,0.739,0.74
				h0.838c0.407,0,0.738-0.331,0.738-0.74v-6.754c0-0.783,0.164-1.357,0.492-1.724c0.327-0.364,0.942-0.547,1.847-0.547
				c0.889,0,1.49,0.183,1.807,0.547c0.317,0.366,0.476,0.94,0.476,1.724V36.8c0,0.409,0.33,0.74,0.737,0.74h0.906
				c0.408,0,0.739-0.331,0.739-0.74v-6.754C196.301,28.562,195.929,27.443,195.188,26.691z"/>
		</g>
	</g>
	<g>
		<path fill="#231F20" d="M18.04,17.3v-0.001C18.04,17.299,18.04,17.299,18.04,17.3z"/>
		<polygon fill="#231F20" points="18.433,17.833 18.432,17.833 18.433,17.833 		"/>
		<polygon fill="#231F20" points="26.753,17.833 26.753,17.833 26.753,17.833 		"/>
		<path fill="#FEC400" d="M27.97,17.307l-3.346-10.3c-0.175-0.498-0.65-0.856-1.208-0.856c-0.56,0-1.035,0.358-1.209,0.858
			L18.862,17.3c-0.012,0.039-0.018,0.08-0.018,0.122c0,0.227,0.184,0.412,0.411,0.412h8.32c0.227,0,0.411-0.185,0.411-0.412
			C27.986,17.381,27.98,17.343,27.97,17.307z"/>
		<path fill="#FEC400" d="M14.118,31.903l-3.347,10.299c-0.152,0.506,0.021,1.075,0.474,1.403c0.452,0.329,1.048,0.318,1.482,0.017
			l8.755-6.36c0.032-0.024,0.062-0.055,0.087-0.088c0.133-0.184,0.092-0.441-0.091-0.575l-6.732-4.891
			c-0.184-0.133-0.441-0.093-0.574,0.092C14.148,31.832,14.13,31.866,14.118,31.903z"/>
		<path fill="#FEC400" d="M41.916,19.572L4.912,19.571c-0.528,0.013-1.016,0.353-1.188,0.884c-0.173,0.532,0.021,1.095,0.443,1.416
			l29.936,21.751c0.435,0.301,1.029,0.312,1.481-0.017c0.453-0.329,0.626-0.899,0.474-1.405l-3.281-10.099
			c-0.309-0.951-1.535-1.478-1.549-1.483l-14.739-6.015l15.459,3.799c0.025,0.006,1.319,0.297,2.125-0.29l8.591-6.242
			c0.42-0.32,0.614-0.883,0.442-1.414C42.933,19.924,42.445,19.583,41.916,19.572z"/>
	</g>
</g>
</svg>
