<?xml version="1.0" encoding="utf-8"?>
<!-- Generator: Adobe Illustrator 16.0.4, SVG Export Plug-In . SVG Version: 6.00 Build 0)  -->
<!DOCTYPE svg PUBLIC "-//W3C//DTD SVG 1.1//EN" "http://www.w3.org/Graphics/SVG/1.1/DTD/svg11.dtd">
<svg version="1.1" id="Warstwa_1" xmlns="http://www.w3.org/2000/svg" xmlns:xlink="http://www.w3.org/1999/xlink" x="0px" y="0px"
	 width="210.667px" height="100px" viewBox="0 0 210.667 100" enable-background="new 0 0 210.667 100" xml:space="preserve">
<g>
	<g>
		<path fill="#FFFFFF" d="M127.547,73.608h-0.432c-0.156,0-0.228-0.084-0.228-0.252v-8.024c0-0.144,0.06-0.251,0.239-0.251h0.444
			c0.168,0,0.216,0.096,0.216,0.251v3.431h4.245v-3.431c0-0.144,0.061-0.251,0.252-0.251h0.432c0.168,0,0.216,0.096,0.216,0.251
			v8.024c0,0.144-0.06,0.252-0.239,0.252h-0.42c-0.168,0-0.24-0.084-0.24-0.252v-3.778h-4.245v3.778
			C127.787,73.5,127.727,73.608,127.547,73.608z"/>
		<path fill="#FFFFFF" d="M136.031,73.608h-0.42c-0.156,0-0.228-0.084-0.228-0.252v-7.112c0-0.744,0.252-1.128,1.079-1.128h0.947
			c0.947,0,1.68,0.072,2.135,0.252c0.912,0.36,1.212,1.08,1.212,2.1c0,1.163-0.552,1.954-1.644,2.278l1.919,3.37
			c0.048,0.096,0.12,0.192,0.12,0.312c0,0.072-0.048,0.132-0.12,0.145c-0.084,0.023-0.407,0.048-0.552,0.048
			c-0.144,0-0.239-0.061-0.336-0.24l-1.906-3.49c-0.24,0.013-0.492,0.024-0.768,0.024h-1.188v3.442
			C136.283,73.512,136.211,73.608,136.031,73.608z M137.53,69.135c0.72,0,1.188-0.072,1.511-0.204
			c0.48-0.204,0.792-0.672,0.792-1.428c0-0.911-0.312-1.223-0.779-1.415c-0.276-0.12-0.78-0.18-1.548-0.18h-0.768
			c-0.335,0-0.455,0.156-0.455,0.468v2.759H137.53z"/>
		<path fill="#FFFFFF" d="M150.44,71.281c0,1.511-0.743,2.459-2.938,2.459c-0.816,0-1.655-0.12-2.352-0.372
			c-0.168-0.06-0.239-0.144-0.239-0.264c0-0.097,0.06-0.276,0.107-0.396c0.048-0.144,0.12-0.203,0.24-0.203
			c0.084,0,0.228,0.06,0.336,0.096c0.563,0.216,1.163,0.324,1.907,0.324c1.847,0,2.015-0.876,2.015-1.535
			c0-0.601-0.132-1.067-1.607-1.5l-1.163-0.335c-1.128-0.324-1.703-1.092-1.703-2.184c0-1.511,0.791-2.41,2.891-2.41
			c0.647,0,1.379,0.06,1.954,0.239c0.145,0.036,0.217,0.12,0.217,0.252c0,0.072-0.024,0.216-0.084,0.396
			c-0.036,0.119-0.12,0.168-0.216,0.168c-0.072,0-0.192-0.036-0.3-0.061c-0.624-0.132-1.2-0.191-1.644-0.191
			c-1.571,0-1.895,0.659-1.895,1.522c0,0.636,0.18,1.104,1.475,1.487l1.056,0.312C149.913,69.506,150.44,69.998,150.44,71.281z"/>
		<path fill="#FFFFFF" d="M154.307,73.74c-1.787,0-2.579-0.624-2.579-3.154c0-2.603,1.104-3.143,2.663-3.143
			c1.763,0,2.578,0.42,2.578,3.106C156.969,73.068,156.165,73.74,154.307,73.74z M154.366,68.223c-1.127,0-1.775,0.384-1.775,2.327
			c0,2.075,0.517,2.423,1.739,2.423c1.164,0,1.764-0.265,1.764-2.375C156.094,68.57,155.649,68.223,154.366,68.223z"/>
		<path fill="#FFFFFF" d="M159.622,72.625c0.108,0.144,0.324,0.251,0.672,0.3c0.132,0.012,0.18,0.083,0.18,0.203
			c0,0.108-0.012,0.288-0.036,0.36c-0.023,0.096-0.096,0.144-0.252,0.144c-0.803,0-1.187-0.275-1.379-0.6
			c-0.12-0.191-0.18-0.491-0.18-0.995v-7.172c0-0.145,0.048-0.252,0.24-0.252h0.396c0.18,0,0.216,0.084,0.216,0.252v7.063
			C159.479,72.289,159.526,72.492,159.622,72.625z"/>
		<path fill="#FFFFFF" d="M161.735,67.839c0-0.144,0.036-0.252,0.228-0.252h0.396c0.167,0,0.228,0.097,0.228,0.252v3.718
			c0,0.396,0.036,0.768,0.107,0.924c0.132,0.324,0.468,0.492,1.224,0.492c0.792,0,1.211-0.084,1.487-0.192
			c0.072-0.023,0.168-0.084,0.228-0.168c0.036-0.06,0.072-0.204,0.072-0.384v-4.39c0-0.144,0.048-0.252,0.228-0.252h0.396
			c0.168,0,0.228,0.084,0.228,0.252v4.798c0,0.42-0.144,0.611-0.372,0.72c-0.72,0.323-1.727,0.384-2.446,0.384
			c-1.188,0-1.68-0.324-1.859-0.78c-0.107-0.3-0.144-0.768-0.144-1.307V67.839z"/>
		<path fill="#FFFFFF" d="M169.941,72.457c0.192,0.312,0.588,0.432,1.344,0.468c0.144,0.012,0.204,0.071,0.204,0.216
			c0,0.096-0.013,0.252-0.024,0.359c-0.012,0.132-0.084,0.18-0.252,0.18c-0.983,0-1.547-0.12-1.942-0.588
			c-0.288-0.359-0.384-0.863-0.384-1.774v-2.938h-0.78c-0.107,0-0.203-0.06-0.203-0.216v-0.312c0-0.133,0.071-0.24,0.228-0.24h0.768
			c0,0,0-0.372,0.036-1.367c0.012-0.156,0.071-0.264,0.204-0.264h0.407c0.144,0,0.204,0.084,0.204,0.264v1.367h1.343
			c0.156,0,0.252,0.072,0.252,0.228v0.312c0,0.168-0.107,0.228-0.252,0.228h-1.343v2.986
			C169.75,71.965,169.822,72.265,169.941,72.457z"/>
		<path fill="#FFFFFF" d="M172.978,66.232c-0.312,0-0.551-0.12-0.551-0.576c0-0.432,0.216-0.611,0.551-0.611
			c0.349,0,0.564,0.132,0.564,0.6C173.542,66.076,173.338,66.232,172.978,66.232z M173.194,73.608h-0.396
			c-0.168,0-0.228-0.072-0.228-0.24v-5.517c0-0.156,0.036-0.265,0.228-0.265h0.396c0.18,0,0.228,0.097,0.228,0.252v5.529
			C173.422,73.512,173.374,73.608,173.194,73.608z"/>
		<path fill="#FFFFFF" d="M177.67,73.74c-1.787,0-2.579-0.624-2.579-3.154c0-2.603,1.104-3.143,2.663-3.143
			c1.763,0,2.578,0.42,2.578,3.106C180.332,73.068,179.528,73.74,177.67,73.74z M177.729,68.223c-1.127,0-1.775,0.384-1.775,2.327
			c0,2.075,0.517,2.423,1.739,2.423c1.164,0,1.764-0.265,1.764-2.375C179.457,68.57,179.013,68.223,177.729,68.223z"/>
		<path fill="#FFFFFF" d="M182.614,73.608h-0.396c-0.168,0-0.228-0.084-0.228-0.24v-4.689c0-0.42,0.156-0.6,0.372-0.695
			c0.743-0.36,1.919-0.516,2.674-0.516c1.092,0,1.487,0.264,1.667,0.731c0.097,0.275,0.108,0.695,0.108,1.175v3.994
			c0,0.144-0.036,0.24-0.228,0.24h-0.396c-0.168,0-0.228-0.084-0.228-0.24V69.53c0-0.324-0.036-0.672-0.084-0.827
			c-0.108-0.301-0.348-0.456-1.079-0.456c-0.876,0-1.403,0.168-1.655,0.275c-0.072,0.036-0.168,0.097-0.228,0.181
			c-0.036,0.06-0.072,0.18-0.072,0.359v4.306C182.842,73.512,182.794,73.608,182.614,73.608z"/>
		<path fill="#FFFFFF" d="M189.729,70.802c-0.863-0.252-1.331-0.756-1.331-1.596c0-1.104,0.647-1.751,2.183-1.751
			c0.48,0,1.104,0.048,1.56,0.168c0.18,0.048,0.216,0.132,0.216,0.24c0,0.072-0.048,0.228-0.108,0.407
			c-0.023,0.084-0.096,0.132-0.167,0.132c-0.049,0-0.145-0.023-0.216-0.035c-0.468-0.12-0.96-0.156-1.296-0.156
			c-1.14,0-1.319,0.443-1.319,0.936c0,0.359,0.132,0.672,1.044,0.947l0.839,0.264c0.972,0.3,1.451,0.672,1.451,1.619
			c0,1.044-0.636,1.764-2.254,1.764c-0.66,0-1.452-0.097-1.871-0.288c-0.12-0.048-0.168-0.12-0.168-0.216
			c0-0.084,0.048-0.229,0.107-0.372c0.048-0.12,0.12-0.168,0.204-0.168c0.06,0,0.18,0.048,0.252,0.072
			c0.432,0.144,0.924,0.204,1.499,0.204c1.247,0,1.392-0.528,1.392-0.972c0-0.396-0.132-0.624-1.067-0.911L189.729,70.802z"/>
	</g>
	<g>
		<g id="_x31_vCy0m_3_">
			<g id="XMLID_7719_">
				<path id="XMLID_7731_" fill-rule="evenodd" clip-rule="evenodd" fill="#FFFFFF" d="M118.357,57.008c0,2.104,0,4.126,0,6.146
					c-0.001,0.865,0.01,1.729-0.01,2.594c-0.016,0.724-0.236,0.986-0.947,1.025c-0.912,0.049-1.83,0.058-2.744,0.029
					c-0.669-0.021-0.863-0.267-0.896-0.949c-0.009-0.173-0.005-0.346-0.005-0.519c0-8.299,0-16.597,0.001-24.896
					c0-0.311,0.018-0.622,0.016-0.934c-0.006-1.167,0.571-1.954,1.646-2.31c1.11-0.365,2.241-0.699,3.388-0.916
					c2.282-0.431,4.586-0.591,6.913-0.369c3.438,0.329,5.585,2.188,6.267,5.597c0.672,3.36,0.651,6.735-0.092,10.083
					c-0.444,1.999-1.376,3.718-3.228,4.794c-1.079,0.625-2.258,0.932-3.483,1.077c-2.069,0.247-4.133,0.301-6.171-0.252
					C118.816,57.156,118.624,57.091,118.357,57.008z M118.361,46.836c-0.001,0-0.002,0-0.004,0c0,1.625-0.004,3.249,0.002,4.873
					c0.004,1.222,0.2,1.479,1.389,1.724c1.383,0.282,2.777,0.289,4.175,0.094c2.007-0.281,3.212-1.406,3.556-3.408
					c0.43-2.488,0.488-4.986-0.038-7.463c-0.37-1.748-1.419-2.685-3.101-2.873c-1.595-0.178-3.171-0.031-4.702,0.469
					c-1.075,0.352-1.261,0.588-1.272,1.712C118.349,43.587,118.361,45.211,118.361,46.836z"/>
				<path id="XMLID_7730_" fill-rule="evenodd" clip-rule="evenodd" fill="#FFFFFF" d="M167.552,47.587c0,0.242,0,0.428,0,0.613
					c0,2.524,0.003,5.049,0,7.573c-0.003,1.177-0.251,1.417-1.439,1.417c-0.657,0.001-1.314,0.006-1.972,0
					c-0.88-0.01-1.168-0.303-1.191-1.191c-0.002-0.121-0.001-0.242-0.001-0.363c0-9.285,0-18.57,0.001-27.855
					c0-0.189-0.005-0.381,0.009-0.57c0.047-0.682,0.298-0.934,0.974-0.941c0.881-0.012,1.764-0.012,2.645-0.001
					c0.68,0.007,0.916,0.245,0.963,0.938c0.016,0.207,0.013,0.414,0.013,0.622c0,5.049,0,10.098,0,15.146c0,0.204,0,0.406,0,0.622
					c0.989,0,1.92,0.041,2.845-0.015c0.544-0.033,0.911-0.441,1.23-0.87c1.342-1.801,2.714-3.579,4.029-5.398
					c0.571-0.788,1.239-1.203,2.232-1.086c0.668,0.079,1.347,0.066,2.018,0.121c0.684,0.055,0.919,0.41,0.687,1.06
					c-0.103,0.286-0.269,0.562-0.455,0.804c-1.746,2.275-3.499,4.546-5.263,6.807c-0.189,0.243-0.214,0.396-0.027,0.664
					c2.145,3.073,4.276,6.156,6.404,9.241c0.193,0.282,0.383,0.578,0.51,0.895c0.301,0.752-0.001,1.229-0.796,1.28
					c-0.793,0.052-1.591,0.047-2.381,0.121c-0.844,0.079-1.395-0.28-1.858-0.956c-1.739-2.534-3.532-5.032-5.255-7.578
					c-0.535-0.789-1.185-1.151-2.117-1.105C168.773,47.609,168.188,47.587,167.552,47.587z"/>
				<path id="XMLID_7727_" fill-rule="evenodd" clip-rule="evenodd" fill="#FFFFFF" d="M197.145,44.794
					c-0.057-1.078-0.056-2.099-0.18-3.104c-0.14-1.131-0.967-1.676-2.416-1.824c-2.195-0.226-4.342,0.091-6.488,0.474
					c-0.102,0.019-0.203,0.036-0.307,0.052c-1.289,0.187-1.491,0.049-1.732-1.234c-0.072-0.39-0.125-0.785-0.148-1.181
					c-0.044-0.729,0.214-1.131,0.92-1.284c1.297-0.278,2.599-0.566,3.913-0.735c1.993-0.257,4.004-0.312,5.995-0.007
					c0.89,0.136,1.802,0.375,2.608,0.765c1.563,0.756,2.111,2.224,2.229,3.842c0.104,1.446,0.109,2.9,0.118,4.352
					c0.017,2.869,0.008,5.739,0.004,8.609c-0.003,1.784-0.479,2.541-2.199,3.046c-3.398,0.996-6.872,1.392-10.393,0.819
					c-2.987-0.485-4.724-2.486-4.832-5.513c-0.033-0.961,0.001-1.943,0.174-2.884c0.362-1.982,1.661-3.158,3.553-3.71
					c2.442-0.713,4.948-0.68,7.457-0.584C195.954,44.714,196.488,44.756,197.145,44.794z M196.99,48.118
					c-1.941-0.134-3.925-0.31-5.898,0.021c-2.038,0.342-2.646,1.163-2.485,3.202c0.011,0.137,0.045,0.271,0.066,0.407
					c0.173,1.09,0.796,1.795,1.862,2.041c1.876,0.431,3.74,0.281,5.574-0.262c0.492-0.146,0.865-0.49,0.873-1.043
					C197.004,51.056,196.99,49.626,196.99,48.118z"/>
				<path id="XMLID_7724_" fill-rule="evenodd" clip-rule="evenodd" fill="#FFFFFF" d="M95.583,48.083
					c-0.027,1.252,0.104,2.41,0.644,3.483c0.757,1.51,2.138,1.974,3.681,2.104c2.169,0.185,4.314,0.021,6.422-0.542
					c0.083-0.022,0.166-0.051,0.25-0.063c1.018-0.165,1.303,0.003,1.573,0.995c0.113,0.414,0.183,0.844,0.231,1.271
					c0.085,0.765-0.053,1.063-0.811,1.276c-1.207,0.339-2.429,0.669-3.667,0.834c-2.146,0.286-4.303,0.302-6.45-0.103
					c-3.132-0.589-5.232-2.331-6.025-5.455c-0.892-3.516-0.915-7.055,0.151-10.536c0.997-3.255,3.354-4.959,6.654-5.411
					c2.086-0.285,4.169-0.276,6.208,0.361c2.1,0.656,3.346,2.12,3.892,4.203c0.553,2.11,0.58,4.273,0.521,6.436
					c-0.023,0.852-0.409,1.143-1.385,1.145c-3.736,0.005-7.47,0.002-11.205,0.002C96.063,48.083,95.858,48.083,95.583,48.083z
					 M104.479,44.632c0.079-1.05,0.058-2.041-0.233-3.012c-0.302-1-0.93-1.729-1.956-1.934c-0.869-0.174-1.777-0.256-2.661-0.216
					c-2.862,0.125-4.084,2.273-3.959,5.161C98.583,44.632,101.497,44.632,104.479,44.632z"/>
				<path id="XMLID_7723_" fill-rule="evenodd" clip-rule="evenodd" fill="#FFFFFF" d="M85.85,48.38c0,2.49,0.002,4.979-0.001,7.469
					c-0.001,1.095-0.251,1.34-1.339,1.342c-0.26,0.002-0.52-0.002-0.777,0.001c-2.58,0.027-2.487,0.09-2.479-2.5
					c0.013-3.683,0.014-7.366-0.006-11.049c-0.004-0.739-0.092-1.48-0.186-2.216c-0.104-0.811-0.594-1.32-1.396-1.461
					c-2.155-0.381-4.263-0.172-6.309,0.61c-0.511,0.195-0.821,0.556-0.836,1.13c-0.007,0.275-0.036,0.551-0.037,0.827
					c-0.002,4.356-0.001,8.714-0.003,13.071c0,0.241-0.006,0.484-0.031,0.725c-0.045,0.443-0.278,0.785-0.734,0.801
					c-1.032,0.038-2.068,0.03-3.102,0.008c-0.396-0.009-0.613-0.295-0.685-0.669c-0.038-0.202-0.048-0.413-0.048-0.619
					c-0.002-5.222-0.003-10.443,0.002-15.664c0-0.275,0.035-0.55,0.069-0.823c0.122-0.95,0.661-1.544,1.544-1.896
					c1.696-0.678,3.46-1.102,5.262-1.289c1.903-0.199,3.821-0.278,5.735-0.329c0.73-0.02,1.481,0.125,2.197,0.299
					c1.882,0.456,2.856,1.602,3.027,3.526c0.084,0.945,0.115,1.896,0.124,2.846C85.863,44.473,85.85,46.427,85.85,48.38z"/>
				<path id="XMLID_7722_" fill-rule="evenodd" clip-rule="evenodd" fill="#FFFFFF" d="M143.218,36.344
					c1.306,0,2.53-0.003,3.757,0.001c1.094,0.004,1.375,0.286,1.376,1.38c0.001,0.502,0.015,1.004-0.015,1.505
					c-0.037,0.674-0.306,0.971-1.002,1.002c-0.95,0.043-1.902,0.017-2.854,0.02c-0.396,0.002-0.792,0-1.221,0
					c-0.017,0.164-0.041,0.297-0.041,0.429c0,2.906,0,5.812,0.008,8.717c0.001,0.379,0.029,0.761,0.08,1.137
					c0.251,1.845,0.964,2.562,2.809,2.828c0.581,0.084,1.164,0.147,1.749,0.206c0.688,0.068,0.978,0.34,0.975,1.016
					c-0.004,0.657-0.032,1.314-0.092,1.967c-0.048,0.514-0.378,0.833-0.889,0.851c-1.732,0.06-3.464,0.022-5.146-0.449
					c-2.488-0.697-3.707-2.464-3.936-4.953c-0.122-1.323-0.159-2.657-0.174-3.987c-0.027-2.352-0.008-4.703-0.008-7.056
					c0-0.205,0-0.411,0-0.704c-0.665,0-1.298,0.001-1.929,0c-1.11-0.001-1.387-0.271-1.392-1.365
					c-0.003-0.467-0.016-0.934,0.004-1.4c0.033-0.797,0.37-1.124,1.164-1.139c0.723-0.013,1.446-0.003,2.321-0.003
					c0-0.772-0.013-1.509,0.003-2.245c0.019-0.777,0.05-1.556,0.104-2.332c0.055-0.756,0.373-1.047,1.122-1.06
					c0.709-0.011,1.418-0.011,2.127,0c0.773,0.012,1.049,0.255,1.075,1.072c0.039,1.208,0.017,2.42,0.021,3.63
					C143.219,35.7,143.218,35.99,143.218,36.344z"/>
				<path id="XMLID_7721_" fill-rule="evenodd" clip-rule="evenodd" fill="#FFFFFF" d="M156.758,46.661c0,2.99,0.001,5.98,0,8.971
					c0,0.208-0.004,0.415-0.022,0.622c-0.056,0.596-0.312,0.893-0.913,0.917c-0.915,0.037-1.832,0.034-2.747,0.002
					c-0.58-0.021-0.821-0.291-0.898-0.876c-0.024-0.188-0.021-0.38-0.021-0.57c-0.001-5.997-0.001-11.996,0-17.994
					c0-0.207-0.004-0.416,0.021-0.622c0.065-0.547,0.327-0.83,0.868-0.844c0.949-0.025,1.902-0.028,2.852,0
					c0.56,0.018,0.815,0.28,0.832,0.854c0.032,1.122,0.027,2.246,0.029,3.37C156.761,42.548,156.758,44.604,156.758,46.661z"/>
				<path id="XMLID_7720_" fill-rule="evenodd" clip-rule="evenodd" fill="#FFFFFF" d="M151.709,29.731
					c0.197-0.596,0.291-1.253,0.611-1.772c0.597-0.966,1.624-1.042,2.631-0.921c1.463,0.176,2.111,1.08,2.062,2.769
					c-0.006,0.224-0.034,0.448-0.063,0.67c-0.16,1.167-0.76,1.803-1.936,1.944c-0.505,0.062-1.04,0.041-1.541-0.053
					c-0.944-0.175-1.52-0.938-1.614-2.025c-0.017-0.188-0.002-0.38-0.002-0.57C151.808,29.76,151.758,29.746,151.709,29.731z"/>
			</g>
		</g>
		<g>
			<path fill="#B9D057" d="M54.834,27H42.583c-1.241,0-2.75,0.744-2.75,1.985v9.676c0,2.667-1.676,5.339-4.348,5.339h-9.649
				c-1.241,0-2.002,0.49-2.002,1.731v12.252c0,1.242,0.761,3.017,2.002,3.017h12.252c1.241,0,1.746-1.774,1.746-3.017v-9.676
				c0,0.01,0.254,0.277,0.254,0.287c0-2.675,2.416-4.595,5.088-4.595h9.659c1.242,0,1.999-1.521,1.999-2.764V28.985
				C56.833,27.744,56.077,27,54.834,27z"/>
			<path fill="#B9D057" d="M19.833,31.416c0-0.782-0.635-1.416-1.418-1.416h-8.164c-0.783,0-1.418,0.634-1.418,1.416v8.168
				c0,0.782,0.635,1.416,1.418,1.416h8.164c0.783,0,1.418-0.634,1.418-1.416V31.416z"/>
		</g>
	</g>
</g>
</svg>
