<?xml version="1.0" encoding="utf-8"?>
<!-- Generator: Adobe Illustrator 16.0.4, SVG Export Plug-In . SVG Version: 6.00 Build 0)  -->
<!DOCTYPE svg PUBLIC "-//W3C//DTD SVG 1.1//EN" "http://www.w3.org/Graphics/SVG/1.1/DTD/svg11.dtd">
<svg version="1.1" id="Warstwa_1" xmlns="http://www.w3.org/2000/svg" xmlns:xlink="http://www.w3.org/1999/xlink" x="0px" y="0px"
	 width="200px" height="150px" viewBox="0 0 200 150" enable-background="new 0 0 200 150" xml:space="preserve">
<g>
	<g id="XMLID_5314_">
		<path id="XMLID_5315_" fill="#F3F8FF" stroke="#0000FF" stroke-width="1.5" stroke-linecap="round" stroke-linejoin="round" d="
			M146.048,117.384H53.952c-1.488,0-2.706-1.219-2.706-2.707V50.002c0-1.488,1.218-2.707,2.706-2.707h92.096
			c1.488,0,2.707,1.219,2.707,2.707v64.675C148.755,116.165,147.536,117.384,146.048,117.384z"/>
	</g>
	<g id="XMLID_5310_">
		<path id="XMLID_5313_" fill="#F3F8FF" stroke="#0000FF" stroke-width="1.5" stroke-linecap="round" stroke-linejoin="round" d="
			M150.884,121.741H48.529c-2.457,0-4.553-1.779-4.95-4.205l-0.729-4.446h47.439l1.815,2.604h13.109l1.96-2.604h49.977l-0.635,3.866
			C156.063,119.718,153.68,121.741,150.884,121.741z"/>
	</g>
	<g id="XMLID_5090_">
		
			<circle id="XMLID_5309_" fill="none" stroke="#0000FF" stroke-width="1.5" stroke-linecap="round" stroke-linejoin="round" cx="164.849" cy="80.958" r="3.808"/>
		<g id="XMLID_5118_">
			
				<line id="XMLID_5308_" fill="none" stroke="#0000FF" stroke-width="1.5" stroke-linecap="round" stroke-linejoin="round" x1="75.184" y1="28.259" x2="75.184" y2="35.766"/>
			
				<line id="XMLID_5307_" fill="none" stroke="#0000FF" stroke-width="1.5" stroke-linecap="round" stroke-linejoin="round" x1="78.938" y1="32.012" x2="71.431" y2="32.012"/>
		</g>
		
			<polygon id="XMLID_5117_" fill="none" stroke="#0000FF" stroke-width="1.5" stroke-linecap="round" stroke-linejoin="round" points="
			31.422,97.637 35.184,91.121 38.945,97.637 		"/>
		<g id="XMLID_5114_">
			
				<line id="XMLID_5116_" fill="none" stroke="#0000FF" stroke-width="1.5" stroke-linecap="round" stroke-linejoin="round" x1="160.816" y1="62.075" x2="172.85" y2="62.075"/>
			
				<line id="XMLID_5115_" fill="none" stroke="#0000FF" stroke-width="1.5" stroke-linecap="round" stroke-linejoin="round" x1="178.604" y1="62.075" x2="182.85" y2="62.075"/>
			
				<line fill="none" stroke="#0000FF" stroke-width="1.5" stroke-linecap="round" stroke-linejoin="round" x1="39.184" y1="56.909" x2="29.15" y2="56.909"/>
			
				<line fill="none" stroke="#0000FF" stroke-width="1.5" stroke-linecap="round" stroke-linejoin="round" x1="29.15" y1="72.909" x2="17.15" y2="72.909"/>
		</g>
	</g>
	<g>
		<g>
			<g>
				<path fill="#FFFFFF" stroke="#0000FF" stroke-width="1.5" stroke-linecap="round" stroke-linejoin="round" d="M120.977,71.579
					c3.543,0,6.417,2.875,6.417,6.415c0,3.544-2.874,6.417-6.417,6.417"/>
				<path fill="#FFFFFF" stroke="#0000FF" stroke-width="1.5" stroke-linecap="round" stroke-linejoin="round" d="M79.025,84.411
					c-3.544,0-6.418-2.875-6.418-6.415c0-3.544,2.874-6.417,6.418-6.417"/>
			</g>
			<path fill="#FFFFFF" stroke="#0000FF" stroke-width="1.5" stroke-linecap="round" stroke-linejoin="round" d="M79.025,56.776
				v22.766c0,11.585,9.391,20.977,20.976,20.977s20.976-9.392,20.976-20.977V56.776H79.025z"/>
			<path fill="#FFFFFF" stroke="#0000FF" stroke-width="1.5" stroke-linecap="round" stroke-linejoin="round" d="M74.902,65.346
				L74.902,65.346c0-12.839,10.404-23.247,23.246-23.247h3.705c12.837,0,23.245,10.408,23.245,23.247l0,0"/>
			<path fill="#FFFFFF" stroke="#0000FF" stroke-width="1.5" stroke-linecap="round" stroke-linejoin="round" d="M129.621,69.916
				c0,2.456-1.99,4.449-4.449,4.449H74.83c-2.459,0-4.45-1.993-4.45-4.449l0,0c0-2.457,1.991-4.45,4.45-4.45h50.342
				C127.631,65.466,129.621,67.459,129.621,69.916L129.621,69.916z"/>
			<g>
				<path fill="#FFFFFF" stroke="#0000FF" stroke-width="1.5" stroke-linecap="round" stroke-linejoin="round" d="M109.666,54.717
					V41.984c0-2.37-1.924-4.296-4.296-4.296H94.631c-2.372,0-4.296,1.926-4.296,4.296v12.732"/>
			</g>
		</g>
		
			<line fill="none" stroke="#0000FF" stroke-width="1.5" stroke-linecap="round" stroke-linejoin="round" x1="100.001" y1="80.326" x2="100.001" y2="87.587"/>
		
			<line fill="none" stroke="#0000FF" stroke-width="1.5" stroke-linecap="round" stroke-linejoin="round" x1="100.001" y1="87.587" x2="104.659" y2="87.587"/>
	</g>
</g>
</svg>
