<?xml version="1.0" encoding="utf-8"?>
<!-- Generator: Adobe Illustrator 16.0.4, SVG Export Plug-In . SVG Version: 6.00 Build 0)  -->
<!DOCTYPE svg PUBLIC "-//W3C//DTD SVG 1.1//EN" "http://www.w3.org/Graphics/SVG/1.1/DTD/svg11.dtd">
<svg version="1.1" id="Warstwa_1" xmlns="http://www.w3.org/2000/svg" xmlns:xlink="http://www.w3.org/1999/xlink" x="0px" y="0px"
	 width="36.7px" height="57.1px" viewBox="0 0 36.7 57.1" enable-background="new 0 0 36.7 57.1" xml:space="preserve">
<g>
	<path fill="#0000ff" d="M34.2,2C34.1,1.3,34,0.7,33.9,0l-1.2,0.2c0.1,0.699,0.2,1.3,0.301,2L34.2,2z"/>
	<path fill="#0000ff" d="M31.299,28.9L30.1,29.1c0.3,1.3,0.5,2.601,0.699,4L32,32.9C31.799,31.5,31.6,30.2,31.299,28.9z"/>
	<path fill="#0000ff" d="M31.299,51.2l1.201,0.1c0.1-1.3,0.199-2.7,0.199-4.1H31.5C31.5,48.5,31.4,49.9,31.299,51.2z"/>
	<path fill="#0000ff" d="M30,23.9c-0.4-1.3-0.9-2.6-1.4-3.899l-1.1,0.5c0.5,1.2,0.899,2.5,1.299,3.8L30,23.9z"/>
	<path fill="#0000ff" d="M33,11.1l1.199,0.2C34.4,10,34.5,8.6,34.5,7.2h-1.201C33.299,8.5,33.2,9.9,33,11.1z"/>
	<path fill="#0000ff" d="M32.799,16.3l-1.1-0.5c-0.5,1.2-1.1,2.3-1.9,3.4l1,0.699C31.6,18.8,32.299,17.6,32.799,16.3z"/>
	<path fill="#0000ff" d="M32.5,38l-1.201,0.1c0.101,1.3,0.201,2.7,0.201,4H32.7C32.7,40.7,32.6,39.3,32.5,38z"/>
	<path fill="#0000ff" d="M1.2,21.5L0,21.7c0.1,0.5,0.3,1.1,0.5,1.6c0.3,0.8,0.8,1.6,1.3,2.3l1-0.7c-0.4-0.6-0.8-1.3-1.1-2
		C1.4,22.4,1.3,21.9,1.2,21.5z"/>
	<path fill="#0000ff" d="M26.299,15.4c-0.699-1.199-1.6-2.3-2.6-3.3L22.9,13c0.899,0.899,1.7,1.899,2.399,3.1L26.299,15.4z"/>
	<path fill="#0000ff" d="M0.3,16.4l1.1,0.4c0.4-1.2,1-2.3,1.8-3.4L2.3,12.7C1.4,13.8,0.7,15.1,0.3,16.4z"/>
	<path fill="#0000ff" d="M26.5,22.8c-0.9,0.8-1.801,1.5-2.9,2.3L23.4,25.2l0.7,1l0.199-0.2c1.101-0.8,2.101-1.5,3.101-2.3L26.5,22.8
		z"/>
	<path fill="#0000ff" d="M15.3,8.9C16.5,9.1,17.8,9.6,19,10.2L19.5,9c-1.3-0.7-2.601-1.101-4-1.4L15.3,8.9z"/>
	<path fill="#0000ff" d="M6,28.9c1.2,0.5,2.6,0.801,4.1,1l0.1-1.199c-1.4-0.101-2.6-0.4-3.8-0.9L6,28.9z"/>
	<path fill="#0000ff" d="M6.3,9.2l0.6,1C8,9.6,9.2,9.1,10.5,8.9L10.3,7.7C8.9,8,7.5,8.5,6.3,9.2z"/>
	<path fill="#0000ff" d="M15.1,28.4l0.2,1.2c1.3-0.2,2.7-0.6,4-1.1L18.9,27.4C17.6,27.8,16.4,28.2,15.1,28.4z"/>
	<polygon fill="#0000ff" points="35.9,51.7 31.299,55.4 27.9,50.5 27,51.2 31.1,57.1 36.7,52.6 	"/>
</g>
</svg>
