<?xml version="1.0" encoding="utf-8"?>
<!-- Generator: Adobe Illustrator 16.0.4, SVG Export Plug-In . SVG Version: 6.00 Build 0)  -->
<!DOCTYPE svg PUBLIC "-//W3C//DTD SVG 1.1//EN" "http://www.w3.org/Graphics/SVG/1.1/DTD/svg11.dtd">
<svg version="1.1" id="Warstwa_1" xmlns="http://www.w3.org/2000/svg" xmlns:xlink="http://www.w3.org/1999/xlink" x="0px" y="0px"
	 width="200px" height="150px" viewBox="0 0 200 150" enable-background="new 0 0 200 150" xml:space="preserve">
<g id="XMLID_5341_">
	<path fill="#F3F8FF" stroke="#0000FF" stroke-width="1.5" stroke-linecap="round" stroke-linejoin="round" d="M146.047,117.547
		H53.952c-1.488,0-2.705-1.219-2.705-2.707V50.165c0-1.488,1.217-2.707,2.705-2.707h92.095c1.488,0,2.707,1.219,2.707,2.707v64.675
		C148.754,116.328,147.535,117.547,146.047,117.547z"/>
</g>
<g id="XMLID_5340_">
	<path fill="#F3F8FF" stroke="#0000FF" stroke-width="1.5" stroke-linecap="round" stroke-linejoin="round" d="M150.883,121.741
		H48.529c-2.456,0-4.553-1.779-4.95-4.205l-0.729-4.446h47.44l1.813,2.604h13.109l1.961-2.604h49.977l-0.635,3.866
		C156.062,119.718,153.68,121.741,150.883,121.741z"/>
</g>
<g id="XMLID_5338_">
	
		<line fill="none" stroke="#0000FF" stroke-width="1.5" stroke-linecap="round" stroke-linejoin="round" x1="21.396" y1="88.579" x2="17.15" y2="88.579"/>
	
		<circle fill="none" stroke="#0000FF" stroke-width="1.5" stroke-linecap="round" stroke-linejoin="round" cx="69.258" cy="32.067" r="3.808"/>
	<g id="XMLID_5339_">
		
			<line fill="none" stroke="#0000FF" stroke-width="1.5" stroke-linecap="round" stroke-linejoin="round" x1="32.904" y1="60.282" x2="32.904" y2="67.789"/>
		
			<line fill="none" stroke="#0000FF" stroke-width="1.5" stroke-linecap="round" stroke-linejoin="round" x1="36.658" y1="64.035" x2="29.15" y2="64.035"/>
	</g>
	
		<line fill="none" stroke="#0000FF" stroke-width="1.5" stroke-linecap="round" stroke-linejoin="round" x1="39.184" y1="88.579" x2="27.15" y2="88.579"/>
	
		<line fill="none" stroke="#0000FF" stroke-width="1.5" stroke-linecap="round" stroke-linejoin="round" x1="170.85" y1="71.745" x2="182.85" y2="71.745"/>
	<polygon fill="none" stroke="#0000FF" stroke-width="1.5" stroke-linecap="round" stroke-linejoin="round" points="164.311,52.693 
		168.072,46.18 171.834,52.693 	"/>
	
		<line fill="none" stroke="#0000FF" stroke-width="1.5" stroke-linecap="round" stroke-linejoin="round" x1="160.816" y1="90.745" x2="170.85" y2="90.745"/>
</g>
<g>
	<path fill="#FFFFFF" stroke="#FEC400" stroke-width="1.5" stroke-linecap="round" stroke-linejoin="round" d="M123.704,85.182
		c2.994-4.505,4.744-9.91,4.744-15.727c0-15.712-12.736-28.448-28.449-28.448c-15.709,0-28.445,12.736-28.445,28.448
		c0,15.711,12.736,28.446,28.445,28.446c5.816,0,11.223-1.748,15.727-4.742l12.721,4.742L123.704,85.182z"/>
	<g>
		<path fill="none" stroke="#FEC400" stroke-width="1.5" stroke-linecap="round" stroke-linejoin="round" d="M79.622,57.547
			c0,0,18.229,0,40.758,0"/>
		<path fill="none" stroke="#FEC400" stroke-width="1.5" stroke-linecap="round" stroke-linejoin="round" d="M76.187,69.455
			c0,0,21.303,0,47.627,0"/>
		<path fill="none" stroke="#FEC400" stroke-width="1.5" stroke-linecap="round" stroke-linejoin="round" d="M79.378,81.363
			c0,0,18.447,0,41.244,0"/>
		
			<line fill="none" stroke="#FEC400" stroke-width="1.5" stroke-linecap="round" stroke-linejoin="round" x1="99.999" y1="45.642" x2="99.999" y2="93.269"/>
	</g>
	<g>
		<path fill="none" stroke="#FEC400" stroke-width="1.5" stroke-linecap="round" stroke-linejoin="round" d="M91.729,46.398
			c-4.947,4.603-8.277,13.2-8.277,23.057c0,9.854,3.33,18.453,8.277,23.056"/>
		<path fill="none" stroke="#FEC400" stroke-width="1.5" stroke-linecap="round" stroke-linejoin="round" d="M108.271,92.511
			c4.949-4.603,8.279-13.201,8.279-23.056c0-9.856-3.33-18.454-8.279-23.057"/>
	</g>
</g>
</svg>
