<?xml version="1.0" encoding="utf-8"?>
<!-- Generator: Adobe Illustrator 16.0.4, SVG Export Plug-In . SVG Version: 6.00 Build 0)  -->
<!DOCTYPE svg PUBLIC "-//W3C//DTD SVG 1.1//EN" "http://www.w3.org/Graphics/SVG/1.1/DTD/svg11.dtd">
<svg version="1.1" id="Warstwa_1" xmlns="http://www.w3.org/2000/svg" xmlns:xlink="http://www.w3.org/1999/xlink" x="0px" y="0px"
	 width="200px" height="150px" viewBox="0 0 200 150" enable-background="new 0 0 200 150" xml:space="preserve">
<g id="XMLID_5321_">
	<g id="XMLID_5323_">
		<path fill="#F3F8FF" stroke="#0000FF" stroke-width="1.5" stroke-linecap="round" stroke-linejoin="round" d="M146.048,117.547
			H53.952c-1.488,0-2.706-1.219-2.706-2.707V50.165c0-1.488,1.218-2.707,2.706-2.707h92.096c1.488,0,2.707,1.219,2.707,2.707v64.675
			C148.755,116.328,147.536,117.547,146.048,117.547z"/>
	</g>
	<g id="XMLID_5322_">
		<path fill="#F3F8FF" stroke="#0000FF" stroke-width="1.5" stroke-linecap="round" stroke-linejoin="round" d="M150.884,121.741
			H48.529c-2.457,0-4.553-1.779-4.95-4.205l-0.729-4.446h47.438l1.815,2.604h13.108l1.96-2.604h49.978l-0.635,3.866
			C156.062,119.718,153.68,121.741,150.884,121.741z"/>
	</g>
</g>
<g id="XMLID_5317_">
	
		<circle fill="none" stroke="#0000FF" stroke-width="1.5" stroke-linecap="round" stroke-linejoin="round" cx="31.054" cy="88.183" r="3.808"/>
	
		<line fill="none" stroke="#0000FF" stroke-width="1.5" stroke-linecap="round" stroke-linejoin="round" x1="171.184" y1="49.438" x2="171.184" y2="56.943"/>
	
		<line fill="none" stroke="#0000FF" stroke-width="1.5" stroke-linecap="round" stroke-linejoin="round" x1="174.938" y1="53.189" x2="167.432" y2="53.189"/>
	<polygon fill="none" stroke="#0000FF" stroke-width="1.5" stroke-linecap="round" stroke-linejoin="round" points="134.592,34.773 
		138.354,28.259 142.115,34.773 	"/>
	<g id="XMLID_5320_">
		
			<line fill="none" stroke="#0000FF" stroke-width="1.5" stroke-linecap="round" stroke-linejoin="round" x1="160.816" y1="86.535" x2="172.85" y2="86.535"/>
		
			<line fill="none" stroke="#0000FF" stroke-width="1.5" stroke-linecap="round" stroke-linejoin="round" x1="178.604" y1="86.535" x2="182.85" y2="86.535"/>
		
			<line fill="none" stroke="#0000FF" stroke-width="1.5" stroke-linecap="round" stroke-linejoin="round" x1="39.185" y1="59.168" x2="29.15" y2="59.168"/>
		
			<line fill="none" stroke="#0000FF" stroke-width="1.5" stroke-linecap="round" stroke-linejoin="round" x1="29.15" y1="67.789" x2="17.15" y2="67.789"/>
	</g>
</g>
<g>
	<path id="XMLID_5337_" fill="#FFFFFF" stroke="#FEC400" stroke-width="1.5" stroke-linecap="round" stroke-linejoin="round" d="
		M131.577,94.921c0,2.209-1.791,4-4,4H72.423c-2.209,0-4-1.791-4-4V44.952c0-2.209,1.791-4,4-4h55.154c2.209,0,4,1.791,4,4V94.921z"
		/>
	
		<line id="XMLID_5336_" fill="none" stroke="#FEC400" stroke-width="1.5" stroke-linecap="round" stroke-linejoin="round" x1="68.423" y1="51.952" x2="131.577" y2="51.952"/>
	<g>
		<g>
			<path fill="none" stroke="#FEC400" stroke-width="1.5" stroke-linecap="round" stroke-linejoin="round" d="M76.085,44.971
				c0.82,0,1.484,0.662,1.484,1.479c0,0.819-0.664,1.483-1.484,1.483c-0.816,0-1.479-0.664-1.479-1.483
				C74.606,45.633,75.269,44.971,76.085,44.971z"/>
		</g>
		<g>
			<path fill="none" stroke="#FEC400" stroke-width="1.5" stroke-linecap="round" stroke-linejoin="round" d="M81.837,44.971
				c0.82,0,1.484,0.662,1.484,1.479c0,0.819-0.664,1.483-1.484,1.483c-0.816,0-1.479-0.664-1.479-1.483
				C80.358,45.633,81.021,44.971,81.837,44.971z"/>
		</g>
		<g>
			<path fill="none" stroke="#FEC400" stroke-width="1.5" stroke-linecap="round" stroke-linejoin="round" d="M87.589,44.971
				c0.82,0,1.484,0.662,1.484,1.479c0,0.819-0.664,1.483-1.484,1.483c-0.816,0-1.479-0.664-1.479-1.483
				C86.11,45.633,86.772,44.971,87.589,44.971z"/>
		</g>
	</g>
	<g>
		<polyline fill="none" stroke="#FEC400" stroke-width="1.5" stroke-linecap="round" stroke-linejoin="round" points="90.78,76.159 
			83.558,68.937 90.78,61.714 		"/>
		<polyline fill="none" stroke="#FEC400" stroke-width="1.5" stroke-linecap="round" stroke-linejoin="round" points="
			109.222,61.714 116.442,68.937 109.222,76.159 		"/>
		
			<line fill="none" stroke="#FEC400" stroke-width="1.5" stroke-linecap="round" stroke-linejoin="round" x1="103.173" y1="60.013" x2="96.827" y2="77.86"/>
	</g>
	<g>
		
			<line fill="none" stroke="#FEC400" stroke-width="1.5" stroke-linecap="round" stroke-linejoin="round" x1="78.606" y1="85.706" x2="103.146" y2="85.706"/>
		
			<line fill="none" stroke="#FEC400" stroke-width="1.5" stroke-linecap="round" stroke-linejoin="round" x1="78.606" y1="91.206" x2="113.905" y2="91.206"/>
		
			<line fill="none" stroke="#FEC400" stroke-width="1.5" stroke-linecap="round" stroke-linejoin="round" x1="109.521" y1="85.706" x2="121.396" y2="85.706"/>
	</g>
</g>
</svg>
